<svg width="12" height="12" viewBox="0 0 12 12" fill="none" xmlns="http://www.w3.org/2000/svg">
<path d="M10.5348 2.615C9.72983 2.535 8.92483 2.475 8.11483 2.43V2.425L8.00483 1.775C7.92983 1.315 7.81983 0.625 6.64983 0.625H5.33983C4.17483 0.625 4.06483 1.285 3.98483 1.77L3.87983 2.41C3.41483 2.44 2.94983 2.47 2.48483 2.515L1.46483 2.615C1.25483 2.635 1.10483 2.82 1.12483 3.025C1.14483 3.23 1.32483 3.38 1.53483 3.36L2.55483 3.26C5.17483 3 7.81484 3.1 10.4648 3.365C10.4798 3.365 10.4898 3.365 10.5048 3.365C10.6948 3.365 10.8598 3.22 10.8798 3.025C10.8948 2.82 10.7448 2.635 10.5348 2.615Z" fill="white"/>
<path d="M9.61585 4.07C9.49585 3.945 9.33085 3.875 9.16085 3.875H2.84085C2.67085 3.875 2.50085 3.945 2.38585 4.07C2.27085 4.195 2.20585 4.365 2.21585 4.54L2.52585 9.67C2.58085 10.43 2.65085 11.38 4.39585 11.38H7.60585C9.35085 11.38 9.42085 10.435 9.47585 9.67L9.78585 4.545C9.79585 4.365 9.73085 4.195 9.61585 4.07ZM6.83085 8.875H5.16585C4.96085 8.875 4.79085 8.705 4.79085 8.5C4.79085 8.295 4.96085 8.125 5.16585 8.125H6.83085C7.03585 8.125 7.20585 8.295 7.20585 8.5C7.20585 8.705 7.03585 8.875 6.83085 8.875ZM7.25085 6.875H4.75085C4.54585 6.875 4.37585 6.705 4.37585 6.5C4.37585 6.295 4.54585 6.125 4.75085 6.125H7.25085C7.45585 6.125 7.62585 6.295 7.62585 6.5C7.62585 6.705 7.45585 6.875 7.25085 6.875Z" fill="white"/>
</svg>
