<svg width="100" height="100" viewBox="0 0 100 100" fill="none" xmlns="http://www.w3.org/2000/svg">
<path fill-rule="evenodd" clip-rule="evenodd" d="M65.8824 26.5086L27.9851 26.3343L27.9869 25.9482L65.8872 26.1226C66.1285 26.1049 69.8552 25.916 75.2661 30.4688C78.0265 32.7913 80.5299 34.952 82.3431 36.532C83.2497 37.322 83.9839 37.9669 84.4914 38.4143C84.7451 38.638 84.9423 38.8124 85.0759 38.9308C85.1428 38.9901 85.1938 39.0353 85.2281 39.0657L85.2669 39.1002L85.2764 39.1088L85.2767 39.1089L85.2772 39.1095L85.2788 39.1108C85.2801 39.1119 85.2818 39.1134 85.2839 39.1152C85.288 39.1189 85.2938 39.124 85.3009 39.1305C85.3153 39.1436 85.3356 39.1626 85.3608 39.1875C85.4113 39.2374 85.4817 39.3113 85.5653 39.4101C85.7324 39.6077 85.9519 39.9052 86.1682 40.3106C86.6012 41.122 87.0188 42.3608 86.9814 44.0859L87.1179 46.5432C87.1261 46.692 87.1716 46.8362 87.2502 46.9629L87.5916 47.513C87.7399 47.7518 87.8186 48.0275 87.8186 48.3088V52.5407C87.8186 52.661 87.7991 52.7807 87.7611 52.8947L87.6609 53.1955C87.6395 53.2594 87.6471 53.3294 87.6816 53.3874L87.6817 53.3876L87.8713 53.7066L87.8714 53.7068C87.9936 53.9127 87.9532 54.1762 87.7746 54.3359L87.6605 54.438C87.818 54.6579 87.6636 54.9775 87.3807 54.9775H20.0859V54.5915H87.2967C87.226 54.4563 87.2523 54.2849 87.3722 54.178C87.3722 54.1779 87.3723 54.1778 87.3724 54.1778L87.5173 54.0482C87.5582 54.0116 87.5676 53.9513 87.5395 53.9039M87.5394 53.9037L87.35 53.585C87.2579 53.4305 87.2378 53.2438 87.2947 53.0734L87.3949 52.7728C87.3949 52.7728 87.3949 52.7728 87.3949 52.7728C87.4198 52.6979 87.4326 52.6193 87.4326 52.5407V48.3088C87.4326 48.0994 87.374 47.8943 87.2637 47.7166L86.9222 47.1664C86.8096 46.9849 86.7443 46.778 86.7325 46.5646L86.5958 44.1054C86.5955 44.0991 86.5951 44.09 86.5954 44.0792C86.6316 42.4228 86.2312 41.2486 85.8276 40.4923C85.6255 40.1135 85.4219 39.8383 85.2705 39.6593C85.1948 39.5698 85.1322 39.5044 85.0894 39.462C85.068 39.4409 85.0515 39.4255 85.0409 39.4158C85.0356 39.4109 85.0317 39.4075 85.0294 39.4054L85.0272 39.4035L85.027 39.4034L85.0269 39.4033L85.0268 39.4032L85.0253 39.4019L85.0234 39.4003L85.1517 39.2561C85.0234 39.4003 85.0234 39.4003 85.0234 39.4003L85.0232 39.4001L84.9718 39.3544C84.9376 39.324 84.8867 39.2789 84.82 39.2198C84.6865 39.1015 84.4896 38.9274 84.2361 38.7039C83.7291 38.2569 82.9955 37.6125 82.0895 36.823C80.2775 35.244 77.7759 33.0849 75.0176 30.7641C69.6555 26.2525 66.0178 26.4997 65.9131 26.5078L65.9127 26.5078C65.9036 26.5085 65.8946 26.5088 65.8848 26.5086C65.884 26.5086 65.8832 26.5086 65.8824 26.5086" fill="black"/>
<path d="M25.5708 54.7831H34.7813V50.0222C34.7289 52.658 32.5025 54.7281 29.9817 54.6232C27.5994 54.524 25.616 52.5096 25.5708 50.0222V54.7831Z" fill="black"/>
<path d="M69.463 54.7831H78.77V50.0222C78.717 52.658 76.4674 54.7281 73.92 54.6232C71.5128 54.524 69.5085 52.5096 69.4629 50.0222V54.7831H69.463Z" fill="black"/>
<path fill-rule="evenodd" clip-rule="evenodd" d="M74.0683 45.5617C71.6049 45.5617 69.6079 47.5587 69.6079 50.0222C69.6079 52.4856 71.6049 54.4826 74.0683 54.4826C76.5317 54.4826 78.5287 52.4856 78.5287 50.0222C78.5287 47.5587 76.5317 45.5617 74.0683 45.5617ZM69.3184 50.0222C69.3184 47.3988 71.445 45.2722 74.0683 45.2722C76.6916 45.2722 78.8182 47.3988 78.8182 50.0222C78.8182 52.6455 76.6916 54.7721 74.0683 54.7721C71.445 54.7721 69.3184 52.6455 69.3184 50.0222Z" fill="black"/>
<path fill-rule="evenodd" clip-rule="evenodd" d="M30.1757 45.5617C27.7123 45.5617 25.7153 47.5587 25.7153 50.0222C25.7153 52.4856 27.7123 54.4826 30.1757 54.4826C32.6391 54.4826 34.6361 52.4856 34.6361 50.0222C34.6361 47.5587 32.6391 45.5617 30.1757 45.5617ZM25.4258 50.0222C25.4258 47.3988 27.5524 45.2722 30.1757 45.2722C32.799 45.2722 34.9257 47.3988 34.9257 50.0222C34.9257 52.6455 32.799 54.7721 30.1757 54.7721C27.5524 54.7721 25.4258 52.6455 25.4258 50.0222Z" fill="black"/>
<path d="M24.3894 39.6595H60.659C61.4277 39.6595 62.1164 39.1842 62.3891 38.4654L64.8702 31.9256C65.0885 31.3501 64.6634 30.7341 64.048 30.7341H27.2875C27.2875 30.7341 26.1314 33.1663 22.4481 32.6048C22.4481 32.6048 22.5144 34.3477 20.1465 36.3575C20.1465 36.3575 24.038 37.9928 24.3894 39.6595Z" fill="black"/>
<path fill-rule="evenodd" clip-rule="evenodd" d="M30.0648 46.6759C28.1535 46.6759 26.6041 48.2253 26.6041 50.1366C26.6041 52.0479 28.1535 53.5974 30.0648 53.5974C31.9762 53.5974 33.5256 52.0479 33.5256 50.1366C33.5256 48.2253 31.9762 46.6759 30.0648 46.6759ZM26.5796 50.1366C26.5796 48.2118 28.14 46.6514 30.0648 46.6514C31.9897 46.6514 33.5501 48.2118 33.5501 50.1366C33.5501 52.0615 31.9897 53.6219 30.0648 53.6219C28.14 53.6219 26.5796 52.0615 26.5796 50.1366Z" fill="black"/>
<path fill-rule="evenodd" clip-rule="evenodd" d="M23.7979 50.2113C23.7979 46.7915 26.5701 44.0193 29.9899 44.0193C33.4096 44.0193 36.1819 46.7915 36.1819 50.2113H35.9889C35.9889 46.8981 33.303 44.2123 29.9899 44.2123C26.6767 44.2123 23.9909 46.8981 23.9909 50.2113H23.7979Z" fill="black"/>
<path fill-rule="evenodd" clip-rule="evenodd" d="M74.0013 46.6761C72.09 46.6761 70.5406 48.2255 70.5406 50.1368C70.5406 52.048 72.09 53.5974 74.0013 53.5974C75.9125 53.5974 77.4619 52.048 77.4619 50.1368C77.4619 48.2255 75.9125 46.6761 74.0013 46.6761ZM70.5161 50.1368C70.5161 48.212 72.0765 46.6516 74.0013 46.6516C75.9261 46.6516 77.4864 48.212 77.4864 50.1368C77.4864 52.0616 75.9261 53.6219 74.0013 53.6219C72.0765 53.6219 70.5161 52.0616 70.5161 50.1368Z" fill="black"/>
<path fill-rule="evenodd" clip-rule="evenodd" d="M74.0436 43.7468C70.6669 43.7468 67.9194 46.6019 67.9194 50.1366H67.6299C67.6299 46.4534 70.4958 43.4573 74.0436 43.4573C77.5914 43.4573 80.4573 46.4534 80.4573 50.1366V51.0993H80.1678V50.1366C80.1678 46.6019 77.4203 43.7468 74.0436 43.7468Z" fill="black"/>
<path d="M83.1009 39.4841L74.787 32.1999C73.819 31.3809 72.6045 30.9097 71.3373 30.8617L67.4015 30.7346C67.0081 30.7197 66.8736 31.0736 66.9747 31.4541L68.7505 38.1426C68.8711 38.5965 69.2615 38.9271 69.729 38.9712L82.7986 40.2032C83.2992 40.2504 83.4848 39.8091 83.1009 39.4841ZM82.1227 39.8064L80.3372 39.6116C79.8855 39.5624 79.5389 39.1886 79.5238 38.7345L79.5003 38.0231C79.4875 37.6392 79.8981 37.3877 80.2344 37.5736L81.956 38.5252C82.2824 38.7055 82.4975 39.0366 82.5297 39.408C82.5499 39.6394 82.3535 39.8316 82.1227 39.8064Z" fill="black"/>
<path fill-rule="evenodd" clip-rule="evenodd" d="M78.1733 53.7695H87.705V53.8415H78.1733V53.7695Z" fill="black"/>
<path fill-rule="evenodd" clip-rule="evenodd" d="M68.9468 51.5238C68.5289 51.5238 68.19 51.8627 68.19 52.2806V52.9523C68.19 53.4768 67.7648 53.9021 67.2402 53.9021H36.6764C36.2353 53.9021 35.8777 53.5447 35.8777 53.1035V52.1295C35.8777 51.9799 35.7764 51.8298 35.6108 51.7116C35.4467 51.5944 35.2396 51.5239 35.0686 51.5239H34.6802V51.3309H35.0686C35.2855 51.3309 35.5311 51.4175 35.7229 51.5545C35.9132 51.6903 36.0707 51.8913 36.0707 52.1295V53.1035C36.0707 53.438 36.3419 53.7091 36.6764 53.7091H67.2402C67.6582 53.7091 67.997 53.3702 67.997 52.9523V52.2806C67.997 51.7561 68.4223 51.3308 68.9468 51.3308H69.4633V51.5238H68.9468Z" fill="black"/>
<path fill-rule="evenodd" clip-rule="evenodd" d="M25.5681 51.6622L21.0239 51.544L21.0289 51.3511L25.5731 51.4693L25.5681 51.6622Z" fill="black"/>
<path fill-rule="evenodd" clip-rule="evenodd" d="M66.189 31.6933C66.1257 30.9107 66.7434 30.241 67.5285 30.241H70.9404C72.3819 30.241 73.7773 30.7488 74.8816 31.6752L82.2768 37.8792C82.2768 37.8792 82.2768 37.8792 82.2768 37.8792C83.9802 39.3079 84.9208 41.4158 84.8293 43.6038L84.4908 51.7108H82.9901L78.7056 51.5656L78.7154 51.2763L82.995 51.4212H84.2131L84.54 43.5917C84.6277 41.4951 83.7266 39.4731 82.0907 38.101L74.6955 31.897C73.6433 31.0143 72.3138 30.5305 70.9404 30.5305H67.5285C66.9125 30.5305 66.4279 31.0559 66.4776 31.67C66.6075 33.277 66.928 36.1581 67.6821 39.0286C68.4382 41.9063 69.6222 44.7416 71.4592 46.2886L71.2727 46.5101C69.3625 44.9014 68.1605 41.9887 67.4021 39.1021C66.6418 36.2082 66.3196 33.3083 66.189 31.6933Z" fill="black"/>
<path fill-rule="evenodd" clip-rule="evenodd" d="M65.8472 50.4423H34.7729V50.1528H65.931L68.2823 51.6376L68.1277 51.8824L65.8472 50.4423Z" fill="black"/>
<path fill-rule="evenodd" clip-rule="evenodd" d="M21.0264 50.2012H25.5789V50.3942H21.0264V50.2012Z" fill="black"/>
<path fill-rule="evenodd" clip-rule="evenodd" d="M73.1206 42.1523C74.016 42.1523 74.9104 42.2129 75.7978 42.3333L78.103 42.6463L78.051 43.0288L75.7458 42.7158C74.8758 42.5977 73.9989 42.5384 73.1211 42.5384C73.121 42.5384 73.1208 42.5384 73.1206 42.5384L24.5122 42.7844L24.5103 42.3984L73.1206 42.1523Z" fill="black"/>
<path fill-rule="evenodd" clip-rule="evenodd" d="M26.7139 42.1554C26.7139 42.0205 26.8233 41.9114 26.9579 41.9114H45.177V43.0635H26.9579C26.8232 43.0635 26.7139 42.9542 26.7139 42.8195V42.1554ZM27.0034 42.2009V42.774H44.8875V42.2009H27.0034Z" fill="black"/>
<path fill-rule="evenodd" clip-rule="evenodd" d="M45.0324 42.456L28.5906 42.5168L28.5903 42.4448L45.0322 42.384L45.0324 42.456Z" fill="black"/>
<path fill-rule="evenodd" clip-rule="evenodd" d="M68.1158 28.5642L68.1156 28.5642L68.1062 28.5655H28.1553V28.276H68.0877C68.0882 28.2759 68.0888 28.2759 68.0894 28.2758C68.0965 28.275 68.1068 28.2739 68.1201 28.2726C68.1466 28.2701 68.1852 28.2671 68.2352 28.2645C68.3353 28.2594 68.4812 28.2562 68.6682 28.2638C69.0423 28.2789 69.5807 28.3367 70.2457 28.5065C71.5674 28.844 73.3851 29.6231 75.4026 31.3827H76.2213V31.6722H75.2937L75.2527 31.6362C73.2533 29.8816 71.4609 29.1156 70.174 28.787C69.5302 28.6226 69.012 28.5674 68.6565 28.5531C68.4788 28.5459 68.3417 28.5489 68.2501 28.5536C68.2042 28.556 68.1697 28.5588 68.1471 28.5609C68.1358 28.5619 68.1275 28.5628 68.1223 28.5634C68.1196 28.5637 68.1178 28.564 68.1167 28.5641L68.1158 28.5642Z" fill="black"/>
<path fill-rule="evenodd" clip-rule="evenodd" d="M65.7441 53.8055V28.4209H66.0337V53.8055H65.7441Z" fill="black"/>
<path d="M63.9645 42.2471V40.4774C63.9645 40.4379 63.9965 40.406 64.0359 40.406H64.5964C64.5092 40.3442 64.4029 40.3076 64.2879 40.3076H63.1238C62.8648 40.3076 62.6277 40.4524 62.5095 40.6826L62.0859 41.5072C61.9736 41.7259 62.0141 41.992 62.1865 42.1674L62.2279 42.2094C62.3284 42.3116 62.4658 42.3691 62.6091 42.3691H64.407C64.4778 42.3691 64.5437 42.3497 64.6021 42.3185H64.036C63.9965 42.3185 63.9645 42.2864 63.9645 42.2471ZM63.4761 41.8799C63.4761 42.0824 63.3092 42.2467 63.1034 42.2467L62.707 42.2434C62.5787 42.2434 62.4558 42.1926 62.3657 42.1026L62.3287 42.0655C62.1742 41.911 62.138 41.6765 62.2386 41.4838L62.6179 40.7572C62.7238 40.5544 62.8054 40.4447 63.0409 40.4337C63.0409 40.4337 63.0438 40.4318 63.0664 40.4351C63.2982 40.4682 63.4762 40.6645 63.4762 40.9017L63.4761 41.8799Z" fill="black"/>
<path d="M64.7026 40.5049V42.2458C64.777 42.1705 64.8232 42.0673 64.8232 41.9531V40.843C64.8232 40.7148 64.7778 40.597 64.7026 40.5049Z" fill="black"/>
<path fill-rule="evenodd" clip-rule="evenodd" d="M70.0545 40.3789C69.8328 40.3527 69.6377 40.526 69.6375 40.7495V41.2903C69.6375 41.5999 69.8886 41.851 70.1982 41.851H72.1388C72.2478 41.851 72.3238 41.7429 72.2871 41.6404L72.0704 41.0361C71.9745 40.7682 71.7351 40.5777 71.4524 40.5442L70.0545 40.3789ZM70.0659 40.2831C69.7867 40.2501 69.5412 40.4682 69.541 40.7494L69.541 41.2903C69.541 41.6532 69.8353 41.9475 70.1982 41.9475H72.1388C72.3145 41.9475 72.4372 41.7733 72.3779 41.6078L72.1613 41.0036C72.053 40.7012 71.7828 40.4862 71.4637 40.4484L70.0659 40.2831C70.0659 40.2831 70.0659 40.2831 70.0659 40.2831Z" fill="black"/>
<path d="M69.589 41.1139L72.1763 41.1894L72.1258 41.0549C72.0018 40.7251 71.7019 40.4936 71.3515 40.4571L70.1296 40.33C69.8025 40.2959 69.528 40.573 69.5649 40.8997L69.589 41.1139Z" fill="black"/>
<path fill-rule="evenodd" clip-rule="evenodd" d="M66.7979 43.2344H68.5822V45.986H66.7979V43.2344ZM67.0874 43.5239V45.6965H68.2927V43.5239H67.0874Z" fill="black"/>
<path fill-rule="evenodd" clip-rule="evenodd" d="M84.4818 38.6779L83.5968 39.5458L83.394 39.3391L84.2791 38.4712L84.4818 38.6779Z" fill="black"/>
<path fill-rule="evenodd" clip-rule="evenodd" d="M84.5178 44.1196H85.382L86.008 44.6851C86.2394 44.8944 86.3719 45.1886 86.3719 45.498C86.3719 45.498 86.3719 45.498 86.3719 45.498L86.372 47.936H84.3584L84.5178 44.1196ZM84.7954 44.4091L84.6603 47.6465H86.0824L86.0823 45.498C86.0823 45.272 85.9857 45.0553 85.8139 44.9L85.2706 44.4091H84.7954Z" fill="black"/>
<path fill-rule="evenodd" clip-rule="evenodd" d="M84.3729 47.6467H86.4427C86.8659 47.6467 87.2091 47.9897 87.2091 48.4131V49.3571H84.272L84.3729 47.6467ZM84.6459 47.9362L84.5791 49.0676H86.9196V48.4131C86.9196 48.1497 86.7061 47.9362 86.4427 47.9362H84.6459Z" fill="black"/>
<path fill-rule="evenodd" clip-rule="evenodd" d="M87.6226 49.3569H87.0645V49.0674H87.6226V49.3569Z" fill="black"/>
<path fill-rule="evenodd" clip-rule="evenodd" d="M30.0646 46.6612C28.1452 46.6612 26.5892 48.2172 26.5892 50.1366C26.5892 52.056 28.1452 53.612 30.0646 53.612C31.984 53.612 33.54 52.056 33.54 50.1366C33.54 48.2172 31.984 46.6612 30.0646 46.6612ZM26.4927 50.1366C26.4927 48.1639 28.0919 46.5647 30.0646 46.5647C32.0373 46.5647 33.6365 48.1639 33.6365 50.1366C33.6365 52.1093 32.0373 53.7085 30.0646 53.7085C28.0919 53.7085 26.4927 52.1093 26.4927 50.1366Z" fill="black"/>
<path fill-rule="evenodd" clip-rule="evenodd" d="M30.065 47.118C28.3978 47.118 27.0462 48.4695 27.0462 50.1367C27.0462 51.8039 28.3978 53.1555 30.065 53.1555C31.7322 53.1555 33.0837 51.8039 33.0837 50.1367C33.0837 48.4695 31.7322 47.118 30.065 47.118ZM26.9497 50.1367C26.9497 48.4162 28.3445 47.0215 30.065 47.0215C31.7855 47.0215 33.1802 48.4162 33.1802 50.1367C33.1802 51.8572 31.7855 53.252 30.065 53.252C28.3445 53.252 26.9497 51.8572 26.9497 50.1367Z" fill="black"/>
<path fill-rule="evenodd" clip-rule="evenodd" d="M30.0647 47.4605C28.5867 47.4605 27.3885 48.6587 27.3885 50.1367C27.3885 51.6147 28.5867 52.8128 30.0647 52.8128C31.5427 52.8128 32.7408 51.6147 32.7408 50.1367C32.7408 48.6587 31.5427 47.4605 30.0647 47.4605ZM27.292 50.1367C27.292 48.6054 28.5334 47.364 30.0647 47.364C31.596 47.364 32.8373 48.6054 32.8373 50.1367C32.8373 51.668 31.596 52.9093 30.0647 52.9093C28.5334 52.9093 27.292 51.668 27.292 50.1367Z" fill="black"/>
<path d="M29.1988 48.9345L29.1991 47.5527C29.0056 47.6063 28.7558 47.7626 28.4503 47.983C28.1692 48.1859 27.9846 48.4085 27.873 48.5667C28.3149 48.6892 28.7569 48.8118 29.1988 48.9345Z" fill="black"/>
<path d="M30.4487 47.4136H29.6177V49.0296H30.4487V47.4136Z" fill="black"/>
<path d="M30.8685 48.8551L32.185 48.4255C32.0699 48.2832 31.9087 48.1126 31.6911 47.9506C31.359 47.7037 31.0345 47.5801 30.8115 47.5159C30.8304 47.9623 30.8495 48.4086 30.8685 48.8551Z" fill="black"/>
<path d="M31.5134 50.0706L32.7412 49.5344L32.4083 48.7722L31.1805 49.3084L31.5134 50.0706Z" fill="black"/>
<path d="M31.3809 50.5268C31.6885 50.8978 31.9962 51.2689 32.3038 51.6401C32.4115 51.4904 32.5565 51.2528 32.6527 50.9328C32.7509 50.606 32.7596 50.3225 32.751 50.1367C32.2943 50.2667 31.8376 50.3968 31.3809 50.5268Z" fill="black"/>
<path d="M29.2437 52.7351C29.4276 52.7888 29.6838 52.8427 29.9921 52.8453C30.3378 52.8481 30.6218 52.7852 30.817 52.7256C30.5663 52.3908 30.3157 52.0559 30.0651 51.7209L29.2437 52.7351Z" fill="black"/>
<path d="M27.3593 50.2446C27.3522 50.412 27.3612 50.6692 27.4545 50.9645C27.5575 51.2905 27.7188 51.5224 27.8291 51.6577C28.0614 51.3099 28.2937 50.9619 28.526 50.6141C28.137 50.4909 27.7482 50.3677 27.3593 50.2446Z" fill="black"/>
<path d="M30.5371 51.4803L31.399 52.496C31.4946 52.4487 31.6042 52.3854 31.7186 52.3016C31.8579 52.1996 31.9667 52.0945 32.049 52.0033C31.7552 51.6506 31.4614 51.2978 31.1676 50.9453L30.5371 51.4803Z" fill="black"/>
<path d="M28.7823 52.567L29.6333 51.4812L29.005 50.9887L28.154 52.0745L28.7823 52.567Z" fill="black"/>
<path d="M27.3599 49.8095L28.6914 50.1718L28.9325 49.3852L27.6194 48.9983C27.5617 49.0959 27.4971 49.2251 27.4458 49.3837C27.393 49.5474 27.3698 49.6942 27.3599 49.8095Z" fill="black"/>
<path fill-rule="evenodd" clip-rule="evenodd" d="M30.0838 49.6286C29.7891 49.6286 29.5502 49.8675 29.5502 50.1622C29.5502 50.4569 29.7891 50.6958 30.0838 50.6958C30.3786 50.6958 30.6175 50.4569 30.6175 50.1622C30.6175 49.8675 30.3786 49.6286 30.0838 49.6286ZM29.52 50.1622C29.52 49.8508 29.7725 49.5984 30.0838 49.5984C30.3952 49.5984 30.6477 49.8508 30.6477 50.1622C30.6477 50.4736 30.3952 50.726 30.0838 50.726C29.7725 50.726 29.52 50.4736 29.52 50.1622Z" fill="black"/>
<path fill-rule="evenodd" clip-rule="evenodd" d="M29.3255 49.7585C29.2182 49.7585 29.1313 49.8454 29.1313 49.9527C29.1313 50.06 29.2182 50.1469 29.3255 50.1469C29.4328 50.1469 29.5197 50.06 29.5197 49.9527C29.5197 49.8454 29.4328 49.7585 29.3255 49.7585ZM29.1011 49.9527C29.1011 49.8287 29.2016 49.7283 29.3255 49.7283C29.4494 49.7283 29.5499 49.8287 29.5499 49.9527C29.5499 50.0766 29.4494 50.1771 29.3255 50.1771C29.2016 50.1771 29.1011 50.0766 29.1011 49.9527Z" fill="black"/>
<path fill-rule="evenodd" clip-rule="evenodd" d="M30.0648 49.2668C29.9575 49.2668 29.8705 49.3537 29.8705 49.461C29.8705 49.5682 29.9575 49.6552 30.0648 49.6552C30.172 49.6552 30.259 49.5682 30.259 49.461C30.259 49.3537 30.172 49.2668 30.0648 49.2668ZM29.8403 49.461C29.8403 49.337 29.9408 49.2366 30.0648 49.2366C30.1887 49.2366 30.2892 49.337 30.2892 49.461C30.2892 49.5849 30.1887 49.6854 30.0648 49.6854C29.9408 49.6854 29.8403 49.5849 29.8403 49.461Z" fill="black"/>
<path fill-rule="evenodd" clip-rule="evenodd" d="M30.7625 49.6855C30.6552 49.6855 30.5683 49.7724 30.5683 49.8797C30.5683 49.987 30.6552 50.0739 30.7625 50.0739C30.8698 50.0739 30.9567 49.987 30.9567 49.8797C30.9567 49.7724 30.8698 49.6855 30.7625 49.6855ZM30.5381 49.8797C30.5381 49.7558 30.6386 49.6553 30.7625 49.6553C30.8865 49.6553 30.9869 49.7558 30.9869 49.8797C30.9869 50.0036 30.8865 50.1041 30.7625 50.1041C30.6386 50.1041 30.5381 50.0036 30.5381 49.8797Z" fill="black"/>
<path fill-rule="evenodd" clip-rule="evenodd" d="M30.4803 50.58C30.373 50.58 30.2861 50.667 30.2861 50.7742C30.2861 50.8815 30.373 50.9684 30.4803 50.9684C30.5875 50.9684 30.6745 50.8815 30.6745 50.7742C30.6745 50.667 30.5875 50.58 30.4803 50.58ZM30.2559 50.7742C30.2559 50.6503 30.3563 50.5498 30.4803 50.5498C30.6042 50.5498 30.7047 50.6503 30.7047 50.7742C30.7047 50.8982 30.6042 50.9986 30.4803 50.9986C30.3563 50.9986 30.2559 50.8982 30.2559 50.7742Z" fill="black"/>
<path fill-rule="evenodd" clip-rule="evenodd" d="M29.6834 50.58C29.5761 50.58 29.4892 50.667 29.4892 50.7742C29.4892 50.8815 29.5761 50.9684 29.6834 50.9684C29.7907 50.9684 29.8776 50.8815 29.8776 50.7742C29.8776 50.667 29.7907 50.58 29.6834 50.58ZM29.459 50.7742C29.459 50.6503 29.5595 50.5498 29.6834 50.5498C29.8073 50.5498 29.9078 50.6503 29.9078 50.7742C29.9078 50.8982 29.8073 50.9986 29.6834 50.9986C29.5595 50.9986 29.459 50.8982 29.459 50.7742Z" fill="black"/>
<path fill-rule="evenodd" clip-rule="evenodd" d="M74.0441 46.6138C72.1247 46.6138 70.5687 48.1698 70.5687 50.0892C70.5687 52.0087 72.1247 53.5647 74.0441 53.5647C75.9635 53.5647 77.5195 52.0087 77.5195 50.0892C77.5195 48.1698 75.9635 46.6138 74.0441 46.6138ZM70.4722 50.0892C70.4722 48.1165 72.0714 46.5173 74.0441 46.5173C76.0168 46.5173 77.616 48.1165 77.616 50.0892C77.616 52.062 76.0168 53.6612 74.0441 53.6612C72.0714 53.6612 70.4722 52.062 70.4722 50.0892Z" fill="black"/>
<path fill-rule="evenodd" clip-rule="evenodd" d="M74.044 47.0706C72.3768 47.0706 71.0252 48.4222 71.0252 50.0894C71.0252 51.7566 72.3768 53.1081 74.044 53.1081C75.7112 53.1081 77.0627 51.7566 77.0627 50.0894C77.0627 48.4222 75.7112 47.0706 74.044 47.0706ZM70.9287 50.0894C70.9287 48.3689 72.3235 46.9741 74.044 46.9741C75.7645 46.9741 77.1592 48.3689 77.1592 50.0894C77.1592 51.8099 75.7645 53.2046 74.044 53.2046C72.3235 53.2046 70.9287 51.8099 70.9287 50.0894Z" fill="black"/>
<path fill-rule="evenodd" clip-rule="evenodd" d="M74.0437 47.4132C72.5657 47.4132 71.3675 48.6113 71.3675 50.0893C71.3675 51.5673 72.5657 52.7655 74.0437 52.7655C75.5217 52.7655 76.7198 51.5673 76.7198 50.0893C76.7198 48.6113 75.5217 47.4132 74.0437 47.4132ZM71.271 50.0893C71.271 48.558 72.5124 47.3167 74.0437 47.3167C75.575 47.3167 76.8163 48.558 76.8163 50.0893C76.8163 51.6206 75.575 52.862 74.0437 52.862C72.5124 52.862 71.271 51.6206 71.271 50.0893Z" fill="black"/>
<path d="M73.1778 48.887L73.1781 47.5051C72.9846 47.5587 72.7348 47.715 72.4293 47.9354C72.1482 48.1383 71.9636 48.3609 71.8521 48.5191C72.2939 48.6417 72.7359 48.7642 73.1778 48.887Z" fill="black"/>
<path d="M74.4277 47.366H73.5967V48.982H74.4277V47.366Z" fill="black"/>
<path d="M74.8475 48.8075L76.164 48.3779C76.049 48.2356 75.8877 48.065 75.6701 47.903C75.3381 47.6561 75.0135 47.5325 74.7905 47.4683C74.8093 47.9147 74.8285 48.361 74.8475 48.8075Z" fill="black"/>
<path d="M75.4948 50.0164L76.7227 49.4802L76.3898 48.718L75.1619 49.2542L75.4948 50.0164Z" fill="black"/>
<path d="M75.3599 50.4792C75.6675 50.8502 75.9752 51.2214 76.2827 51.5925C76.3905 51.4429 76.5354 51.2053 76.6316 50.8852C76.7299 50.5584 76.7385 50.2749 76.73 50.0891C76.2733 50.219 75.8167 50.3492 75.3599 50.4792Z" fill="black"/>
<path d="M73.2222 52.6877C73.4061 52.7413 73.6623 52.7953 73.9707 52.7979C74.3163 52.8007 74.6003 52.7377 74.7955 52.6782C74.5449 52.3433 74.2943 52.0085 74.0436 51.6736L73.2222 52.6877Z" fill="black"/>
<path d="M71.3383 50.197C71.3312 50.3644 71.3402 50.6216 71.4334 50.9169C71.5364 51.2429 71.6977 51.4749 71.808 51.6101C72.0403 51.2623 72.2726 50.9143 72.505 50.5665C72.116 50.4433 71.7272 50.3201 71.3383 50.197Z" fill="black"/>
<path d="M74.5161 51.433L75.378 52.4488C75.4736 52.4013 75.5832 52.3382 75.6976 52.2542C75.8369 52.1522 75.9457 52.0471 76.0282 51.9559L75.1467 50.8979L74.5161 51.433Z" fill="black"/>
<path d="M72.7604 52.5213L73.6113 51.4355L72.9829 50.943L72.132 52.0288L72.7604 52.5213Z" fill="black"/>
<path d="M71.3389 49.7619L72.6704 50.1242L72.9115 49.3376L71.5985 48.9507C71.5408 49.0482 71.4762 49.1776 71.4249 49.3361C71.372 49.4998 71.3489 49.6466 71.3389 49.7619Z" fill="black"/>
<path fill-rule="evenodd" clip-rule="evenodd" d="M74.0628 49.6141C73.7864 49.6141 73.5623 49.8381 73.5623 50.1146C73.5623 50.391 73.7864 50.615 74.0628 50.615C74.3392 50.615 74.5633 50.391 74.5633 50.1146C74.5633 49.8381 74.3392 49.6141 74.0628 49.6141ZM73.4658 50.1146C73.4658 49.7848 73.7331 49.5176 74.0628 49.5176C74.3925 49.5176 74.6598 49.7848 74.6598 50.1146C74.6598 50.4443 74.3925 50.7115 74.0628 50.7115C73.7331 50.7115 73.4658 50.4443 73.4658 50.1146Z" fill="black"/>
<path fill-rule="evenodd" clip-rule="evenodd" d="M73.3049 49.7442C73.216 49.7442 73.1439 49.8163 73.1439 49.9053C73.1439 49.9942 73.216 50.0663 73.3049 50.0663C73.3939 50.0663 73.466 49.9942 73.466 49.9053C73.466 49.8163 73.3939 49.7442 73.3049 49.7442ZM73.0474 49.9053C73.0474 49.763 73.1627 49.6477 73.3049 49.6477C73.4472 49.6477 73.5625 49.763 73.5625 49.9053C73.5625 50.0475 73.4472 50.1628 73.3049 50.1628C73.1627 50.1628 73.0474 50.0475 73.0474 49.9053Z" fill="black"/>
<path fill-rule="evenodd" clip-rule="evenodd" d="M74.0437 49.2525C73.9547 49.2525 73.8826 49.3246 73.8826 49.4136C73.8826 49.5025 73.9547 49.5746 74.0437 49.5746C74.1327 49.5746 74.2048 49.5025 74.2048 49.4136C74.2048 49.3246 74.1327 49.2525 74.0437 49.2525ZM73.7861 49.4136C73.7861 49.2713 73.9014 49.156 74.0437 49.156C74.1859 49.156 74.3013 49.2713 74.3013 49.4136C74.3013 49.5558 74.1859 49.6711 74.0437 49.6711C73.9014 49.6711 73.7861 49.5558 73.7861 49.4136Z" fill="black"/>
<path fill-rule="evenodd" clip-rule="evenodd" d="M74.7415 49.6712C74.6525 49.6712 74.5804 49.7433 74.5804 49.8323C74.5804 49.9212 74.6525 49.9933 74.7415 49.9933C74.8304 49.9933 74.9025 49.9212 74.9025 49.8323C74.9025 49.7433 74.8304 49.6712 74.7415 49.6712ZM74.4839 49.8323C74.4839 49.69 74.5992 49.5747 74.7415 49.5747C74.8837 49.5747 74.999 49.69 74.999 49.8323C74.999 49.9745 74.8837 50.0898 74.7415 50.0898C74.5992 50.0898 74.4839 49.9745 74.4839 49.8323Z" fill="black"/>
<path fill-rule="evenodd" clip-rule="evenodd" d="M74.4592 50.5655C74.3703 50.5655 74.2982 50.6376 74.2982 50.7266C74.2982 50.8155 74.3703 50.8876 74.4592 50.8876C74.5482 50.8876 74.6203 50.8155 74.6203 50.7266C74.6203 50.6376 74.5482 50.5655 74.4592 50.5655ZM74.2017 50.7266C74.2017 50.5843 74.317 50.469 74.4592 50.469C74.6015 50.469 74.7168 50.5843 74.7168 50.7266C74.7168 50.8688 74.6015 50.9841 74.4592 50.9841C74.317 50.9841 74.2017 50.8688 74.2017 50.7266Z" fill="black"/>
<path fill-rule="evenodd" clip-rule="evenodd" d="M73.6628 50.5655C73.5739 50.5655 73.5018 50.6376 73.5018 50.7266C73.5018 50.8155 73.5739 50.8876 73.6628 50.8876C73.7518 50.8876 73.8239 50.8155 73.8239 50.7266C73.8239 50.6376 73.7518 50.5655 73.6628 50.5655ZM73.4053 50.7266C73.4053 50.5843 73.5206 50.469 73.6628 50.469C73.8051 50.469 73.9204 50.5843 73.9204 50.7266C73.9204 50.8688 73.8051 50.9841 73.6628 50.9841C73.5206 50.9841 73.4053 50.8688 73.4053 50.7266Z" fill="black"/>
<path fill-rule="evenodd" clip-rule="evenodd" d="M44.8872 53.8055V28.4041H45.1767V53.8055H44.8872Z" fill="black"/>
<path d="M7.50098 30.7432C7.50397 32.3323 7.99769 33.9058 8.92365 35.1994C9.82808 36.4631 11.0976 37.4344 12.5566 37.9706C14.0658 38.5252 15.7531 38.5825 17.2988 38.143C18.7876 37.7197 20.1388 36.8368 21.1223 35.6413C22.1267 34.4203 22.7369 32.9159 22.861 31.3391C22.9865 29.7442 22.602 28.121 21.7703 26.754C20.9719 25.4417 19.7773 24.3738 18.3766 23.7406C16.8994 23.0729 15.2356 22.8861 13.6464 23.2075C12.1228 23.5156 10.7063 24.3044 9.63314 25.4279C8.55934 26.5521 7.83363 27.9997 7.59623 29.5377C7.53466 29.9368 7.50175 30.3393 7.50098 30.7432C7.50049 31.0043 7.9061 31.0047 7.90658 30.7432C7.90938 29.2293 8.38129 27.748 9.25842 26.5135C10.1032 25.3242 11.3184 24.3955 12.6899 23.8977C14.1292 23.3752 15.7177 23.3157 17.191 23.7346C18.6089 24.1377 19.8787 24.9773 20.8186 26.1115C21.7657 27.2545 22.3468 28.6952 22.4575 30.1754C22.5712 31.6953 22.2128 33.2247 21.4201 34.5277C20.6599 35.7773 19.5264 36.7775 18.1964 37.3845C16.8148 38.0151 15.2276 38.1886 13.7407 37.8851C12.2856 37.5881 10.9456 36.8456 9.91995 35.7718C8.89421 34.698 8.21868 33.3214 7.98948 31.8547C7.93206 31.4873 7.90726 31.115 7.90658 30.7432C7.9061 30.4823 7.50049 30.4818 7.50098 30.7432Z" fill="black"/>
<path d="M10.814 29.9516C10.814 30.5329 11.2852 31.0041 11.8664 31.0041C12.4477 31.0041 12.9189 30.5329 12.9189 29.9516C12.9189 29.3704 12.4477 28.8992 11.8664 28.8992C11.2852 28.8992 10.814 29.3704 10.814 29.9516Z" fill="black"/>
<path d="M17.5737 29.9516C17.5737 30.5329 18.045 31.0041 18.6262 31.0041C19.2074 31.0041 19.6787 30.5329 19.6787 29.9516C19.6787 29.3704 19.2074 28.8992 18.6262 28.8992C18.045 28.8992 17.5737 29.3704 17.5737 29.9516Z" fill="black"/>
<path d="M15.0621 35.2199H15.4123C16.2259 35.2199 16.8856 34.5603 16.8856 33.7467V31.1196C16.8856 30.3058 16.2259 29.6462 15.4123 29.6462H15.0621C14.2485 29.6462 13.5889 30.3058 13.5889 31.1196V33.7467C13.5888 34.5603 14.2484 35.2199 15.0621 35.2199Z" fill="black"/>
<path d="M9.34541 25.4219C8.23165 24.9889 6.89092 25.2478 6.08096 26.1475C5.27023 27.0481 5.15973 28.3845 5.76983 29.4237C6.11937 30.019 6.66548 30.4614 7.30289 30.7166C7.40461 30.7573 7.52562 30.6721 7.55236 30.5749C7.58411 30.4593 7.51279 30.3664 7.41069 30.3254C6.45703 29.9437 5.77292 29.001 5.77822 27.9689C5.78353 26.9323 6.49699 26.026 7.48355 25.7288C8.06316 25.5542 8.67547 25.5944 9.23761 25.813C9.33971 25.8527 9.46015 25.7693 9.48708 25.6713C9.51854 25.5566 9.44789 25.4617 9.34541 25.4219Z" fill="black"/>
<path d="M10.7541 24.5659C10.1686 23.2013 8.9995 22.0424 7.49953 21.7766C6.1421 21.5361 4.79799 22.0442 3.81741 22.9866C2.73406 24.0278 2.1339 25.4988 2.01935 26.9832C1.90615 28.4504 2.2885 29.9725 3.19853 31.1421C4.07566 32.2692 5.46117 32.9553 6.90256 32.78C7.14594 32.7503 7.38479 32.701 7.61929 32.6292C7.86818 32.5531 7.76203 32.1615 7.5114 32.2382C6.76475 32.4668 5.98094 32.4537 5.25012 32.1893C4.69406 31.9881 4.19127 31.6348 3.78238 31.2024C2.86009 30.2267 2.41685 28.865 2.40585 27.538C2.39427 26.1436 2.84233 24.7152 3.75382 23.6458C4.5577 22.7026 5.70957 22.0684 6.95834 22.1216C8.34636 22.1809 9.50846 23.09 10.1629 24.2754C10.2516 24.4363 10.3314 24.6018 10.4039 24.7706C10.4471 24.8713 10.5952 24.8938 10.6814 24.8434C10.7856 24.7825 10.7976 24.6669 10.7541 24.5659Z" fill="black"/>
<path d="M21.1207 25.948C22.0956 25.569 23.2385 25.7599 23.9633 26.5398C24.6691 27.2993 24.7609 28.4437 24.2515 29.331C23.9591 29.8403 23.4929 30.2422 22.9475 30.4605C22.8459 30.5012 22.7745 30.5959 22.8059 30.7099C22.8324 30.8065 22.9531 30.8925 23.0554 30.8516C23.6279 30.6224 24.1192 30.2469 24.4727 29.7393C24.8011 29.2679 24.9856 28.6923 24.9856 28.1173C24.9857 26.9019 24.1579 25.8393 23.0082 25.4806C22.3592 25.2781 21.6451 25.3111 21.0129 25.5569C20.9109 25.5966 20.84 25.6931 20.8712 25.8064C20.8979 25.9038 21.018 25.9881 21.1207 25.948Z" fill="black"/>
<path d="M19.9539 24.9054C20.5163 23.5949 21.6205 22.4869 23.0792 22.2842C24.35 22.1077 25.5769 22.675 26.4418 23.5989C27.435 24.6598 27.9401 26.1246 27.952 27.5658C27.9634 28.9369 27.5172 30.3521 26.5576 31.3559C26.1313 31.8019 25.6065 32.1579 25.0244 32.3531C24.3688 32.5727 23.6569 32.5849 22.9705 32.5039C22.8123 32.4853 22.6545 32.4554 22.502 32.4091C22.2517 32.3331 22.1447 32.7244 22.3942 32.8002C22.7686 32.9139 23.1744 32.9406 23.5636 32.9484C23.9367 32.9557 24.3125 32.9374 24.6792 32.8646C25.3442 32.7325 25.9591 32.4163 26.4786 31.9845C27.6149 31.0398 28.2224 29.5753 28.3379 28.1255C28.4611 26.5773 28.0296 24.9612 27.0778 23.7256C26.2295 22.6244 24.9468 21.8363 23.5274 21.8475C22.7865 21.8534 22.0538 22.0761 21.4309 22.4764C20.7733 22.8989 20.2401 23.4989 19.8595 24.179C19.7648 24.3481 19.6802 24.5225 19.6037 24.7007C19.5606 24.8012 19.5738 24.9181 19.6765 24.9781C19.7619 25.0281 19.9105 25.0066 19.9539 24.9054Z" fill="black"/>
<path d="M18.4516 37.5972C18.5296 38.8125 18.6037 40.0277 18.7065 41.239C18.7801 41.9864 18.8176 42.7487 18.9935 43.4739C19.3178 44.515 19.3867 45.6364 19.1575 46.7098C18.6963 48.8488 16.9348 49.7473 14.874 49.7397C11.8421 49.7768 10.3684 47.5502 10.5415 44.699C10.5729 44.0814 10.7216 43.4745 10.8665 42.8776C11.1591 41.6943 11.5032 40.5267 11.7971 39.3455C11.9287 38.7569 12.1075 38.1612 12.072 37.5527C12.1538 38.1597 12.0118 38.7733 11.9132 39.3707C11.6846 40.567 11.3859 41.7489 11.1374 42.9395C11.0124 43.5283 10.883 44.113 10.8672 44.7152C10.7715 47.3406 12.0602 49.3784 14.8728 49.3356C18.2227 49.3533 19.3779 47.0319 18.8372 43.9822C18.7739 43.6851 18.6701 43.3823 18.645 43.0816C18.4551 41.2567 18.4512 39.4276 18.4516 37.5972Z" fill="black"/>
<path d="M22.2751 45.5945C22.6956 45.5015 23.0989 45.2226 23.4139 44.9424C24.2657 44.1847 24.687 43.0535 24.8404 41.9486C24.9262 41.3309 24.9379 40.7232 24.7579 40.1201C24.6047 39.6068 24.3405 39.1387 24.0124 38.7177C23.4101 37.9451 22.5974 37.3458 21.7475 36.8706C21.4337 36.6951 21.1108 36.5356 20.7809 36.3927C20.5992 36.3141 20.4137 36.2287 20.224 36.1701C20.216 36.1677 20.2082 36.1646 20.2004 36.162C19.9525 36.0785 19.8461 36.4701 20.0926 36.553C20.209 36.5923 20.3235 36.638 20.4371 36.6845C20.4638 36.6954 20.4903 36.7065 20.5169 36.7175C20.5579 36.7344 20.4715 36.6979 20.5236 36.7204C20.5411 36.7279 20.5586 36.7353 20.5761 36.7429C20.6432 36.772 20.71 36.8017 20.7765 36.8321C20.9379 36.9061 21.0975 36.984 21.2551 37.0658C22.0774 37.4926 22.815 37.9901 23.4377 38.6651C23.612 38.8542 23.7388 39.0112 23.8767 39.2154C24.0147 39.4198 24.135 39.6355 24.2347 39.8612C24.2619 39.9228 24.2277 39.8437 24.243 39.8802C24.2484 39.8931 24.2536 39.9061 24.2588 39.9191C24.2706 39.9483 24.282 39.9778 24.293 40.0073C24.3151 40.0667 24.3355 40.1268 24.3544 40.1873C24.3927 40.3099 24.4241 40.4347 24.4484 40.5608C24.4946 40.7998 24.5119 41.0634 24.4986 41.3325C24.4657 41.9982 24.3248 42.6749 24.0719 43.2921C23.9836 43.5076 23.857 43.7497 23.7221 43.9589C23.6899 44.0086 23.6567 44.0575 23.6224 44.1057C23.6076 44.1265 23.5926 44.1471 23.5775 44.1677C23.57 44.1777 23.5624 44.1878 23.5548 44.1978C23.5262 44.2358 23.5677 44.182 23.5411 44.2155C23.4754 44.2981 23.4067 44.3783 23.3341 44.4548C23.268 44.5247 23.199 44.5917 23.1271 44.6557C23.0955 44.6838 23.0634 44.7112 23.0308 44.7381C23.0141 44.7518 22.9972 44.7652 22.9803 44.7788C22.9721 44.7852 22.9499 44.802 22.9881 44.7729C22.9771 44.7812 22.9661 44.7896 22.9551 44.7979C22.8386 44.8848 22.716 44.9638 22.5879 45.0327C22.5383 45.0593 22.4879 45.0846 22.4366 45.1079C22.4115 45.1194 22.3477 45.1447 22.4127 45.1193C22.3912 45.1277 22.3698 45.137 22.3482 45.1453C22.2959 45.1654 22.2428 45.1816 22.1894 45.198C22.1821 45.2002 22.1746 45.2019 22.1673 45.2036C21.9125 45.2598 22.0204 45.6509 22.2751 45.5945Z" fill="black"/>
<path d="M23.5542 44.4207C23.5542 44.4207 23.6057 44.8453 23.2636 45.2819L24.2319 44.8983C24.2319 44.8983 23.8745 45.628 23.3521 46.2361C23.3521 46.2361 24.6626 45.5812 24.7358 45.5906C24.8092 45.5999 24.9559 47.3775 23.7279 47.6114C22.4998 47.8452 19.4949 47.2456 23.5542 44.4207Z" fill="black"/>
<path d="M23.7644 47.3497C23.7379 47.3615 23.8295 47.3241 23.7952 47.3367C23.7788 47.3428 23.7628 47.3497 23.7464 47.3558C23.6893 47.3773 23.6314 47.3963 23.573 47.4138C23.4851 47.4399 23.396 47.4622 23.3061 47.4806C23.2534 47.4913 23.2005 47.5007 23.1474 47.5087C23.1338 47.5108 23.1202 47.5127 23.1067 47.5146C23.1406 47.5096 23.1392 47.5107 23.1071 47.5143C23.0764 47.5177 23.0457 47.5212 23.015 47.5239C22.8872 47.5352 22.7586 47.5381 22.6305 47.5316C22.5977 47.53 22.565 47.5277 22.5322 47.5249C22.5156 47.5232 22.499 47.5217 22.4824 47.5197C22.4699 47.5184 22.3985 47.5082 22.4575 47.5171C22.3866 47.5064 22.3162 47.4938 22.2464 47.4772C22.1741 47.4599 22.1026 47.4392 22.0323 47.4148C21.9974 47.4028 21.963 47.3895 21.9286 47.3761C21.8955 47.3629 21.9531 47.3878 21.9105 47.3682C21.8907 47.359 21.8709 47.3502 21.8513 47.3408C21.7782 47.3056 21.7072 47.2662 21.6386 47.2229C21.5563 47.1711 21.497 47.1271 21.4499 47.0882C21.1257 46.8201 20.9119 46.5042 20.7307 46.1197C20.5836 45.8075 20.4681 45.4662 20.4036 45.1266C20.398 45.0973 20.393 45.0679 20.3885 45.0383C20.3856 45.0199 20.3838 45.0011 20.3803 44.9828C20.3789 44.9758 20.3872 45.04 20.3822 44.9968C20.3807 44.9841 20.379 44.9714 20.3775 44.9586C20.3641 44.8442 20.3558 44.7291 20.3519 44.614C20.3469 44.4629 20.3496 44.3115 20.3603 44.1607C20.3662 44.0766 20.3745 43.9925 20.3855 43.9088C20.3802 43.9495 20.3878 43.8945 20.3897 43.8814C20.3929 43.86 20.3963 43.8387 20.3999 43.8173C20.4077 43.7707 20.4163 43.7239 20.4257 43.6774C20.6058 42.7907 21.1006 42.0183 21.8583 41.4883C21.9798 41.4033 22.1058 41.3251 22.2347 41.2521C22.4618 41.1234 22.2577 40.7728 22.03 40.9019C21.1108 41.4229 20.4051 42.2399 20.1101 43.2621C19.9347 43.8692 19.9001 44.5188 19.9968 45.1427C20.0385 45.4119 20.1216 45.6759 20.2157 45.9306C20.3868 46.3935 20.6239 46.8375 20.9689 47.1949C21.4529 47.6964 22.1215 47.9529 22.8145 47.9407C23.1828 47.9341 23.5639 47.8663 23.9063 47.7269C23.9273 47.7184 23.9483 47.7096 23.9691 47.7004C24.0693 47.656 24.0927 47.5099 24.0419 47.423C23.9815 47.3192 23.865 47.3051 23.7644 47.3497Z" fill="black"/>
<path d="M20.7124 42.5075C20.4466 42.1877 20.1809 41.868 19.9151 41.5482C19.8778 41.5032 19.8404 41.4583 19.803 41.4134C19.735 41.3314 19.5857 41.3377 19.5162 41.4134C19.4363 41.5004 19.4436 41.6127 19.5162 41.7002C19.782 42.0199 20.0477 42.3397 20.3134 42.6594C20.3509 42.7044 20.3882 42.7494 20.4256 42.7943C20.4937 42.8763 20.6429 42.87 20.7124 42.7943C20.7923 42.7073 20.785 42.5949 20.7124 42.5075Z" fill="black"/>
<path d="M19.8224 41.9965C19.8406 42.4602 19.8583 42.926 19.9054 43.3878C19.9169 43.4997 19.9215 43.6197 19.9715 43.7225C20.0195 43.8211 20.1597 43.8476 20.249 43.7953C20.3496 43.7365 20.3698 43.6167 20.3217 43.5178C20.3366 43.5482 20.3397 43.5755 20.3322 43.5359C20.3292 43.52 20.3257 43.5041 20.3231 43.4882C20.3216 43.4797 20.3206 43.4711 20.3191 43.4626C20.3118 43.4186 20.3242 43.508 20.3206 43.4731C20.3178 43.4467 20.3144 43.4204 20.3117 43.394C20.2981 43.2622 20.2886 43.1299 20.2798 42.9977C20.2618 42.7257 20.248 42.4534 20.2358 42.1811C20.2331 42.1196 20.2304 42.058 20.228 41.9966C20.2237 41.8871 20.1379 41.7937 20.0253 41.7937C19.9187 41.7936 19.8181 41.8865 19.8224 41.9965Z" fill="black"/>
<path d="M20.8015 46.977C20.8095 47.0327 20.7958 46.9322 20.7999 46.9651C20.8048 47.0033 20.8098 47.0413 20.8143 47.0796C20.8307 47.216 20.845 47.3527 20.8579 47.4895C20.9023 47.9649 20.9295 48.4419 20.9406 48.9192C20.9714 50.2499 20.8923 51.5915 20.5478 52.8768C20.3533 53.6022 20.0752 54.2933 19.6269 54.9024C19.5483 55.0093 19.6321 55.1696 19.7481 55.2003C19.8213 55.2198 19.8933 55.2446 19.9644 55.2705C19.9979 55.2826 20.0311 55.2953 20.0641 55.3084C20.0813 55.3152 20.0985 55.3223 20.1155 55.3293C20.1579 55.3465 20.0721 55.3101 20.1147 55.3289C20.1269 55.3344 20.1392 55.3396 20.1514 55.345C20.2395 55.3843 20.3259 55.4272 20.41 55.4745C20.498 55.524 20.582 55.5789 20.6636 55.6383C20.6895 55.6572 20.6263 55.6081 20.666 55.6401C20.6741 55.6466 20.6823 55.6532 20.6904 55.6598C20.7105 55.6764 20.7302 55.6934 20.7495 55.7107C20.7878 55.7454 20.8245 55.7819 20.8587 55.8206C20.8672 55.8301 20.9167 55.8915 20.8854 55.8504C20.9007 55.8704 20.9154 55.8911 20.9292 55.9122C20.9567 55.9545 20.9804 55.9985 21.0014 56.0442C20.9786 55.9944 21.0096 56.0686 21.0132 56.08C21.0209 56.104 21.0276 56.1284 21.033 56.1531C21.0351 56.1631 21.0368 56.1732 21.0389 56.1833C21.0496 56.2324 21.0366 56.1512 21.0393 56.183C21.0417 56.2121 21.0439 56.2409 21.0438 56.27C21.0436 56.3031 21.0416 56.3361 21.0374 56.3688C21.0436 56.3205 21.0294 56.403 21.0259 56.4176C21.0171 56.4539 21.0056 56.4892 20.9937 56.5246C20.9796 56.5663 20.9872 56.5462 20.9678 56.587C20.889 56.7527 20.7785 56.8973 20.6548 57.0317C20.4782 57.2234 20.7643 57.511 20.9416 57.3185C21.1681 57.0726 21.3814 56.7779 21.4336 56.4395C21.4738 56.1778 21.4199 55.9154 21.271 55.6948C21.0117 55.3108 20.5821 55.0783 20.1609 54.9129C20.0612 54.8738 19.9596 54.8369 19.8559 54.8094L19.9772 55.1073C20.8139 53.97 21.1248 52.5061 21.2666 51.1277C21.3867 49.9604 21.3762 48.7776 21.2743 47.6094C21.2527 47.3621 21.2278 47.115 21.1926 46.8694C21.177 46.7608 21.0392 46.7013 20.9432 46.7276C20.8266 46.7596 20.7859 46.8681 20.8015 46.977Z" fill="black"/>
<path d="M18.9487 55.9653C18.9847 55.9561 19.0214 55.9491 19.058 55.9427C19.0753 55.9397 19.0925 55.9369 19.1097 55.9341C19.1193 55.9325 19.1291 55.9315 19.1387 55.9297C19.1593 55.9261 19.0808 55.9365 19.1342 55.9305C19.1859 55.9246 19.2377 55.9195 19.2897 55.9163C19.4176 55.9087 19.5423 55.9167 19.6697 55.9256C19.7066 55.9281 19.6245 55.9176 19.6759 55.9263C19.6915 55.929 19.7072 55.9315 19.7228 55.9342C19.7589 55.9407 19.7948 55.9484 19.8303 55.9575C19.8618 55.9655 19.8929 55.9746 19.9238 55.9847C19.9416 55.9906 19.9589 55.9972 19.9766 56.0034C20.0249 56.0203 19.9657 55.9968 19.9933 56.0096C20.0585 56.0402 20.1195 56.0748 20.1795 56.1148C20.1875 56.1202 20.1952 56.1262 20.2029 56.132C20.2021 56.1313 20.1733 56.1081 20.1906 56.1226C20.2057 56.1353 20.2209 56.1478 20.2354 56.161C20.2632 56.1865 20.2897 56.2134 20.3144 56.2419C20.3212 56.2498 20.3601 56.3015 20.3313 56.2616C20.3422 56.2767 20.353 56.2918 20.3632 56.3074C20.386 56.3421 20.4066 56.3782 20.4252 56.4152C20.4297 56.4243 20.4568 56.4851 20.4408 56.4464C20.4489 56.466 20.4562 56.4859 20.4633 56.5058C20.4803 56.5544 20.4942 56.6039 20.5056 56.6539C20.5318 56.7682 20.5373 56.8278 20.5411 56.9502C20.5432 57.0137 20.5424 57.0773 20.5395 57.1408C20.5381 57.1726 20.536 57.2043 20.5335 57.236C20.5325 57.2501 20.5313 57.264 20.53 57.2781C20.5294 57.2846 20.5186 57.3785 20.5277 57.3086C20.5358 57.2476 20.5233 57.3237 20.5194 57.339C20.515 57.3561 20.5099 57.3729 20.5043 57.3896C20.501 57.3997 20.497 57.4093 20.4938 57.4194C20.4775 57.4692 20.5047 57.4018 20.493 57.4218C20.4777 57.4479 20.4662 57.4765 20.4504 57.5025C20.4408 57.5189 20.4297 57.5338 20.4197 57.5498C20.3972 57.586 20.4443 57.5256 20.4064 57.5666C20.3802 57.595 20.3534 57.6215 20.3249 57.6478C20.2985 57.6719 20.3245 57.6488 20.33 57.6447C20.3194 57.6526 20.3088 57.6603 20.2977 57.6674C20.2792 57.6793 20.2606 57.6909 20.2413 57.7015C20.2321 57.7066 20.1653 57.737 20.2023 57.7221C20.1791 57.7315 20.1552 57.7397 20.1312 57.7469C20.1022 57.7556 20.0727 57.7627 20.043 57.7687C20.0326 57.7707 20.0222 57.7728 20.0117 57.7744C19.944 57.7854 20.0293 57.7734 19.9885 57.7771C19.8356 57.791 19.6854 57.7759 19.5358 57.7444C19.2811 57.6904 19.1722 58.0814 19.4279 58.1355C19.9187 58.2393 20.4679 58.1959 20.7736 57.7494C20.9543 57.4857 20.9661 57.1528 20.9409 56.8442C20.9052 56.4075 20.7347 55.9972 20.3603 55.7483C20.0884 55.5675 19.7469 55.5056 19.4253 55.5064C19.2313 55.5068 19.0293 55.5258 18.8409 55.5742C18.5883 55.6391 18.6954 56.0305 18.9487 55.9653Z" fill="black"/>
<path d="M18.1828 56.1434C18.1886 56.1454 18.1943 56.1478 18.2001 56.1499C18.2062 56.1523 18.212 56.155 18.2181 56.1573C18.2556 56.1713 18.1658 56.1337 18.2071 56.1526C18.2641 56.1787 18.3209 56.2044 18.3766 56.2329C18.4551 56.2732 18.5321 56.3168 18.6068 56.3638C18.6486 56.3899 18.6896 56.4171 18.7299 56.4455C18.7522 56.4612 18.7742 56.4774 18.796 56.4937C18.8011 56.4975 18.826 56.5173 18.799 56.4958C18.8112 56.5056 18.8234 56.5154 18.8355 56.5254C18.9223 56.5969 19.0042 56.6748 19.0773 56.7603C19.088 56.7727 19.0983 56.7853 19.1087 56.7981C19.1295 56.8239 19.0931 56.7769 19.113 56.8036C19.1307 56.8274 19.1477 56.8516 19.1639 56.8763C19.1963 56.9261 19.2251 56.978 19.2507 57.0317C19.2529 57.0363 19.2665 57.067 19.2543 57.038C19.2594 57.0501 19.2643 57.0628 19.2687 57.0753C19.2776 57.1008 19.2862 57.1261 19.2937 57.152C19.3021 57.1817 19.3084 57.2114 19.3149 57.2415C19.3166 57.2495 19.3236 57.2932 19.319 57.2594C19.3214 57.2769 19.3227 57.2945 19.3239 57.312C19.3334 57.4482 19.3233 57.5399 19.2822 57.6692C19.2764 57.6873 19.2582 57.7297 19.2775 57.6878C19.269 57.7064 19.26 57.7248 19.2498 57.7424C19.2397 57.7597 19.2286 57.7758 19.2172 57.7921C19.2463 57.7505 19.2132 57.7948 19.1987 57.8093C19.1866 57.8213 19.1737 57.8322 19.1609 57.8433C19.1935 57.815 19.1706 57.8368 19.1503 57.8491C19.1336 57.8591 19.1167 57.8684 19.0997 57.8778C19.049 57.9063 19.1066 57.8784 19.0815 57.8868C19.0418 57.9002 19.0026 57.913 18.9616 57.9216C18.9426 57.9257 18.9236 57.9289 18.9045 57.9322C18.9616 57.9222 18.8841 57.934 18.8685 57.9352C18.7733 57.9426 18.6774 57.9399 18.5824 57.9315C18.5563 57.9293 18.5302 57.9262 18.5042 57.9232C18.4959 57.9222 18.4645 57.9177 18.505 57.9235C18.4932 57.9217 18.4812 57.9202 18.4693 57.9182C18.4146 57.9091 18.3601 57.8996 18.3057 57.8884C18.1925 57.8649 18.0804 57.8362 17.9693 57.804C17.7502 57.7405 17.535 57.6637 17.323 57.5792C17.2738 57.5598 17.2249 57.5397 17.1761 57.5193C17.1465 57.5071 17.2033 57.5309 17.1741 57.5186C17.1631 57.5139 17.1521 57.5091 17.141 57.5045C17.1141 57.4929 17.0872 57.4812 17.0603 57.4694C16.9736 57.4314 16.8874 57.3923 16.8018 57.3521C16.6784 57.2941 16.556 57.234 16.435 57.1711C16.4099 57.1582 16.3829 57.1382 16.356 57.1295C16.3213 57.1183 16.4096 57.1826 16.375 57.1447C16.3527 57.1203 16.3277 57.0982 16.3055 57.0735C16.2872 57.0532 16.2698 57.0323 16.2522 57.0113C16.2424 56.9996 16.2132 56.9602 16.2507 57.0102C16.2389 56.9943 16.227 56.9786 16.2156 56.9626C16.1675 56.8956 16.1238 56.8254 16.0841 56.753C16.0615 56.7117 16.0402 56.6696 16.0203 56.6268C16.0103 56.6053 16.0006 56.5836 15.9913 56.5618C16.0055 56.5952 15.9758 56.5212 15.9702 56.506C15.8777 56.257 15.8333 56.0179 15.824 55.7631C15.8107 55.4029 15.8679 55.0474 15.9688 54.702C16.0696 54.3571 16.1403 54.0126 16.1238 53.6509C16.0816 52.7264 15.5728 51.8339 14.8815 51.232C14.868 51.2202 14.8544 51.2084 14.8404 51.1972C14.755 51.1287 14.6369 51.1139 14.5536 51.1972C14.4826 51.2681 14.4677 51.4151 14.5536 51.484C14.6123 51.5312 14.6674 51.5836 14.7213 51.6363C14.7798 51.6936 14.8364 51.7528 14.8911 51.8136C14.9242 51.8504 14.9567 51.8876 14.9883 51.9256C15.0035 51.9436 15.0183 51.9618 15.0332 51.9801C15.0427 51.9918 15.0521 52.0037 15.0616 52.0156C15.0673 52.0228 15.073 52.0302 15.0786 52.0376C15.068 52.0237 15.067 52.0225 15.0757 52.0338C15.4046 52.4695 15.6521 52.9667 15.7075 53.5056C15.7424 53.8462 15.7039 54.1795 15.6042 54.5064C15.4882 54.8872 15.4128 55.2839 15.4165 55.6832C15.4211 56.1877 15.5509 56.7045 15.836 57.1254C15.9323 57.2674 16.0419 57.4223 16.1971 57.504C16.4999 57.6631 16.8117 57.8055 17.128 57.9351C17.5726 58.1174 18.0338 58.2732 18.5129 58.3298C18.9033 58.3759 19.368 58.3256 19.5931 57.9586C19.7339 57.729 19.7546 57.4237 19.7114 57.1642C19.6673 56.8983 19.5269 56.6592 19.3513 56.4587C19.0966 56.1681 18.7512 55.9485 18.398 55.7964C18.3626 55.7813 18.327 55.7657 18.2907 55.7521C18.1881 55.7139 18.0684 55.7948 18.0412 55.8939C18.01 56.0074 18.0797 56.105 18.1828 56.1434Z" fill="black"/>
<path d="M9.68292 35.7488C9.35837 35.9189 9.04251 36.1073 8.7309 36.2997C8.05392 36.718 7.39673 37.1742 6.78856 37.6882C6.20066 38.185 5.59548 38.7679 5.2746 39.4807C5.20406 39.6374 5.14384 39.7991 5.1117 39.9684C5.07194 40.1786 5.07619 40.3867 5.08709 40.5995C5.11576 41.1611 5.20695 41.7247 5.3878 42.2582C5.71003 43.2089 6.32235 44.0578 7.21154 44.5494C7.3177 44.6079 7.42694 44.6606 7.5384 44.7084C7.63896 44.7516 7.75582 44.7384 7.81585 44.6356C7.86584 44.5502 7.84422 44.4017 7.74309 44.3582C6.88478 43.9896 6.24273 43.2956 5.88567 42.4353C5.68687 41.9565 5.56846 41.4421 5.51721 40.927C5.49328 40.6854 5.46925 40.4341 5.48749 40.1915C5.48894 40.1727 5.49096 40.154 5.49289 40.1352C5.49685 40.0948 5.4874 40.1648 5.49444 40.1246C5.501 40.0866 5.50785 40.0489 5.51654 40.0114C5.53439 39.9341 5.55765 39.8581 5.58506 39.7837C5.59114 39.7673 5.59751 39.7511 5.60378 39.7348C5.60696 39.7266 5.61034 39.7185 5.61372 39.7104C5.62549 39.6814 5.60127 39.7385 5.61401 39.7098C5.63099 39.6714 5.64865 39.6332 5.66747 39.5955C5.70492 39.5204 5.74593 39.447 5.78965 39.3753C5.83529 39.3004 5.88393 39.2274 5.93479 39.1558C5.99655 39.0692 6.02106 39.0374 6.08176 38.9629C6.33181 38.6558 6.61572 38.3768 6.91267 38.1152C7.49082 37.606 8.11405 37.1672 8.7751 36.7502C9.1339 36.5237 9.50574 36.323 9.87081 36.1078C9.87622 36.1046 9.88201 36.1019 9.8876 36.0989C10.1189 35.9778 9.91414 35.6276 9.68292 35.7488Z" fill="black"/>
<path d="M10.0589 38.8174C10.0619 39.1877 10.043 39.5591 10.0179 39.9284C9.96524 40.7041 9.86884 41.4793 9.69194 42.2372C9.59795 42.6399 9.47529 43.0316 9.32474 43.4166C9.18337 43.7783 9.05713 44.1465 8.95851 44.5223C8.75324 45.3046 8.67459 46.1177 8.80661 46.9192C8.98119 47.9786 9.54815 48.9152 10.2843 49.6812C10.4655 49.8698 10.752 49.5827 10.5711 49.3944C9.93156 48.7289 9.43466 47.9349 9.23847 47.0253C9.07624 46.2733 9.13685 45.4932 9.31895 44.7507C9.50579 43.989 9.84818 43.2809 10.0402 42.5211C10.2368 41.7437 10.3442 40.9431 10.4076 40.1446C10.4427 39.7038 10.4681 39.2597 10.4645 38.8174C10.4623 38.5567 10.0567 38.5559 10.0589 38.8174Z" fill="black"/>
<path d="M7.98341 40.9531C8.18346 41.1279 8.36943 41.3212 8.54603 41.5193C8.84963 41.8601 9.16105 42.2657 9.31044 42.6838C9.33254 42.7455 9.35155 42.8083 9.36651 42.8722C9.37336 42.9016 9.37915 42.9311 9.38436 42.9607C9.3915 43.0014 9.38677 42.9743 9.38562 42.9654C9.38813 42.9846 9.38986 43.0041 9.39121 43.0234C9.39527 43.0805 9.39469 43.1375 9.38986 43.1945C9.38639 43.2349 9.3888 43.2048 9.39015 43.1963C9.38726 43.2147 9.38378 43.2331 9.37963 43.2513C9.37288 43.2817 9.36409 43.3115 9.35435 43.341C9.27203 43.5894 9.66355 43.6959 9.74548 43.4489C9.91041 42.9512 9.67658 42.4127 9.41457 41.9938C9.15951 41.5862 8.83901 41.2167 8.4971 40.8797C8.42327 40.8069 8.34839 40.7347 8.27022 40.6663C8.18781 40.5943 8.06457 40.5853 7.98341 40.6663C7.90997 40.7399 7.90071 40.8808 7.98341 40.9531Z" fill="black"/>
<path d="M9.93988 41.0949C9.85756 41.1794 9.77332 41.262 9.68811 41.3435C9.61206 41.4164 9.53495 41.4883 9.45611 41.5583C9.4177 41.5924 9.3789 41.6261 9.33943 41.6589C9.32148 41.6738 9.30334 41.6887 9.2851 41.7033C9.27748 41.7094 9.23984 41.7387 9.27285 41.713C9.30517 41.6879 9.26928 41.7155 9.26175 41.7211C9.22749 41.7463 9.19246 41.7709 9.15521 41.7916C9.14816 41.7954 9.14092 41.799 9.13388 41.8027C9.09885 41.8209 9.18165 41.7868 9.15859 41.7925C9.1527 41.794 9.14527 41.796 9.13957 41.7985C9.11333 41.8097 9.1996 41.7932 9.17412 41.7938C9.06816 41.7958 8.96635 41.8856 8.97137 41.9965C8.97619 42.1046 9.06053 42.2016 9.17412 42.1994C9.26628 42.1976 9.35024 42.1521 9.42445 42.1013C9.51584 42.0386 9.60202 41.9675 9.68589 41.8951C9.83971 41.7622 9.98679 41.6212 10.131 41.478C10.1631 41.4461 10.1951 41.4141 10.2267 41.3817C10.3008 41.3057 10.3081 41.1696 10.2267 41.0949C10.1466 41.0214 10.019 41.0138 9.93988 41.0949Z" fill="black"/>
<path d="M12.3422 50.4334C11.932 50.4886 11.5213 50.6487 11.1549 50.8337C10.3608 51.2346 9.73144 51.893 9.40834 52.7255C9.22103 53.2084 9.16756 53.7324 9.01808 54.2274C8.98556 54.3349 8.95033 54.442 8.91134 54.5473C8.87052 54.6577 8.849 54.7105 8.80423 54.8065C8.72702 54.9719 8.6367 55.1323 8.5261 55.2778C8.55235 55.2432 8.50999 55.2973 8.50449 55.3039C8.49194 55.3191 8.4791 55.334 8.46598 55.3488C8.43847 55.3796 8.41001 55.4097 8.38028 55.4385C8.35307 55.4647 8.32479 55.4898 8.29603 55.5144C8.25541 55.5491 8.29806 55.5149 8.27432 55.5322C8.25724 55.5446 8.24016 55.5571 8.2226 55.5689C8.15688 55.6134 8.08749 55.6514 8.0154 55.6842C7.98259 55.699 8.04561 55.6742 7.99745 55.6911C7.97979 55.6972 7.96232 55.7041 7.94457 55.7101C7.90587 55.7233 7.86649 55.7343 7.82683 55.7441C7.78601 55.754 7.7448 55.7619 7.70331 55.7687C7.66702 55.7747 7.73245 55.7668 7.68024 55.7716C7.65679 55.7736 7.63344 55.7761 7.60999 55.7777C7.51686 55.7839 7.42335 55.7828 7.33032 55.776C7.21538 55.7676 7.17524 55.7614 7.05673 55.7377C6.94739 55.7159 6.83921 55.6883 6.73228 55.6566C6.47867 55.5812 6.23239 55.4831 5.99248 55.372C5.79783 55.2817 5.60945 55.1567 5.40535 55.0912C5.38373 55.0845 5.36231 55.0771 5.34108 55.0692C5.32776 55.0644 5.31454 55.0594 5.30141 55.0543C5.29137 55.0504 5.24332 55.0304 5.26899 55.0415C5.29716 55.0536 5.2464 55.0312 5.23907 55.0277C5.21996 55.0188 5.20095 55.0096 5.18223 55.0001C5.14498 54.9811 5.1084 54.9608 5.07299 54.9387C5.05591 54.9282 5.03921 54.9169 5.02261 54.9057C5.01306 54.8993 5.0037 54.8923 4.99443 54.8855C4.99675 54.8873 5.01904 54.9053 5.00119 54.8908C4.96538 54.8616 4.93335 54.8297 4.9016 54.7963C4.87091 54.7639 4.9042 54.8057 4.88664 54.7775C4.87631 54.761 4.86656 54.7443 4.85653 54.7276C4.83346 54.6892 4.85643 54.7396 4.84736 54.7074C4.84128 54.6858 4.83462 54.6645 4.83105 54.6422C4.83867 54.6898 4.83298 54.6201 4.83317 54.609C4.83317 54.6064 4.83559 54.5761 4.83298 54.5992C4.83009 54.6246 4.83588 54.5847 4.83752 54.579C4.85431 54.5179 4.85682 54.5088 4.88664 54.4548C4.99492 54.2584 4.72953 54.0354 4.56808 54.209C4.54144 54.2378 4.51153 54.2631 4.48219 54.2889C4.44117 54.3251 4.49126 54.2843 4.46134 54.306C4.44185 54.3202 4.42226 54.3342 4.40209 54.3474C4.36291 54.3729 4.32238 54.3961 4.2802 54.4163C4.214 54.448 4.11451 54.4754 4.01974 54.4619C4.04396 54.4654 3.98558 54.453 3.98027 54.4514C3.95325 54.4438 3.93395 54.4355 3.91059 54.4232C3.84825 54.3902 3.7999 54.3433 3.75262 54.2917C3.5764 54.0985 3.41697 53.8505 3.40414 53.5818C3.38937 53.2714 3.55758 53.0064 3.76391 52.7884C3.94331 52.5988 3.65698 52.3114 3.4771 52.5015C3.25793 52.7331 3.06676 53.0126 3.0159 53.3338C2.97055 53.6201 3.02719 53.8985 3.16076 54.1543C3.29451 54.4107 3.50547 54.6903 3.77742 54.807C4.01491 54.909 4.26727 54.8734 4.49425 54.762C4.62579 54.6974 4.75481 54.6036 4.85489 54.4959C4.74873 54.414 4.64258 54.3321 4.53642 54.2502C4.41598 54.4686 4.38742 54.7156 4.51017 54.9397C4.60427 55.1112 4.77218 55.2396 4.94116 55.3313C5.06305 55.3975 5.19236 55.4463 5.32332 55.4905C5.3294 55.4925 5.35459 55.5034 5.33606 55.4946C5.37369 55.5126 5.48342 55.5742 5.54779 55.6064C5.68482 55.6751 5.8235 55.7404 5.9642 55.8013C6.72109 56.129 7.71054 56.4288 8.45334 55.9011C9.16795 55.3935 9.41761 54.4309 9.58909 53.6199C9.64651 53.3484 9.70249 53.0809 9.8042 52.8215C9.88816 52.6073 10.0081 52.3917 10.1438 52.1989C10.3738 51.8723 10.6934 51.5841 11.0259 51.3731C11.182 51.2741 11.3453 51.1865 11.5135 51.1102C11.531 51.1021 11.5485 51.0944 11.5662 51.0867C11.5814 51.08 11.6219 51.0631 11.5843 51.0787C11.6224 51.0629 11.6608 51.0474 11.6994 51.0326C11.7679 51.0063 11.8371 50.9817 11.9068 50.9589C12.0778 50.9032 12.2503 50.8661 12.4254 50.8282C12.4335 50.8264 12.4419 50.8256 12.45 50.8244C12.5586 50.8098 12.6179 50.6703 12.5916 50.5749C12.5594 50.4577 12.4511 50.4187 12.3422 50.4334Z" fill="black"/>
<path d="M5.17828 53.3948C5.16235 53.4034 5.14614 53.4112 5.12983 53.419C5.11082 53.4282 5.09152 53.4367 5.07222 53.4453C5.03526 53.4619 5.06064 53.4495 5.08062 53.4422C5.06749 53.4471 5.05466 53.4528 5.04163 53.458C4.90363 53.5128 4.76283 53.55 4.61682 53.5764C4.57976 53.5831 4.6476 53.5737 4.63448 53.5741C4.62386 53.5744 4.61315 53.5766 4.60253 53.5775C4.58121 53.5796 4.55978 53.5812 4.53826 53.5821C4.4986 53.5839 4.45874 53.5836 4.41898 53.5806C4.40837 53.5799 4.39785 53.5784 4.38723 53.5777C4.34998 53.5756 4.41686 53.5838 4.40499 53.5803C4.38501 53.5744 4.36301 53.5731 4.34265 53.5682C4.32364 53.5637 4.30482 53.5583 4.28619 53.5523C4.2776 53.5495 4.26921 53.5461 4.26062 53.5433C4.22337 53.5308 4.27519 53.5508 4.27152 53.5482C4.2417 53.527 4.1977 53.5017 4.16489 53.4859C4.18148 53.4939 4.20031 53.5162 4.17647 53.4943C4.16827 53.4867 4.15967 53.4796 4.15157 53.4719C4.13478 53.456 4.12021 53.4385 4.10448 53.4216C4.07948 53.3947 4.11577 53.4405 4.11104 53.4304C4.10679 53.4213 4.09859 53.4127 4.09309 53.4043C4.079 53.3829 4.06607 53.3606 4.05439 53.3379C4.04821 53.3259 4.04291 53.3134 4.03673 53.3014C4.02061 53.2697 4.04956 53.3401 4.03866 53.3052C4.02968 53.2766 4.01859 53.249 4.01029 53.2201C4.00073 53.1864 3.99292 53.1523 3.98626 53.1181C3.98298 53.1009 3.98047 53.0837 3.97738 53.0666C3.97651 53.0617 3.97323 53.0356 3.9767 53.0628C3.98076 53.0944 3.97535 53.0487 3.97477 53.0423C3.96676 52.9566 3.96368 52.8708 3.96551 52.7846C3.97082 52.5416 4.00334 52.3419 4.05323 52.1031C4.02216 52.1434 3.99108 52.1838 3.96001 52.2243C4.03239 52.1778 4.10872 52.1365 4.18631 52.0994C4.20059 52.0925 4.21487 52.0858 4.22935 52.0794C4.28638 52.0537 4.19335 52.0923 4.25232 52.07C4.28494 52.0576 4.31794 52.0459 4.35162 52.0368C4.36619 52.0328 4.38115 52.0301 4.39572 52.026C4.44166 52.0132 4.36426 52.0217 4.40885 52.0238C4.4241 52.0246 4.43983 52.0235 4.45517 52.0241C4.41078 52.0224 4.4627 52.0331 4.41898 52.0137C4.51906 52.0581 4.63689 52.0429 4.69653 51.9409C4.747 51.8546 4.72442 51.7081 4.62376 51.6635C4.38897 51.5595 4.13796 51.6674 3.92479 51.7775C3.86823 51.8067 3.81043 51.8368 3.75764 51.8725C3.63025 51.9588 3.62688 52.164 3.60574 52.3054C3.54543 52.7106 3.5103 53.1655 3.70418 53.5425C3.95576 54.0318 4.5372 54.0495 5.00119 53.9023C5.13147 53.8609 5.26233 53.8099 5.38296 53.7451C5.61293 53.6212 5.40834 53.271 5.17828 53.3948Z" fill="black"/>
<path d="M6.10334 52.7545C6.20699 52.7101 6.10334 52.7529 6.07767 52.7619C6.02141 52.7812 5.96399 52.7979 5.90609 52.812C5.86845 52.8212 5.83063 52.8292 5.79251 52.8361C5.77185 52.8398 5.7512 52.843 5.73045 52.8462C5.69967 52.851 5.78276 52.8408 5.73402 52.8455C5.71916 52.8469 5.7044 52.8487 5.68953 52.8501C5.59515 52.8584 5.50068 52.858 5.40639 52.8482C5.36789 52.8442 5.40475 52.8478 5.4116 52.849C5.39809 52.8467 5.38448 52.8445 5.37097 52.842C5.34646 52.8372 5.32205 52.8318 5.29792 52.8253C5.27351 52.819 5.24938 52.8114 5.22554 52.8032C5.21213 52.7985 5.19881 52.7936 5.18568 52.7884C5.21251 52.799 5.19534 52.793 5.17903 52.7846C5.13145 52.7602 5.0859 52.7347 5.04238 52.7035C5.0141 52.6835 5.07702 52.7343 5.03273 52.6958C5.02337 52.6876 5.01381 52.6795 5.00465 52.6711C4.98081 52.6493 4.9588 52.6258 4.93699 52.6021C4.90621 52.5684 4.88179 52.5322 4.84753 52.4722C4.80999 52.4065 4.78905 52.3589 4.76531 52.2891C4.74022 52.2152 4.72005 52.1393 4.70567 52.0626C4.69525 52.0066 4.69226 51.9908 4.69313 51.913C4.69322 51.9006 4.69815 51.8312 4.69516 51.8567C4.69197 51.8828 4.70278 51.8195 4.70577 51.8084C4.71069 51.7899 4.71687 51.7719 4.72343 51.754C4.70355 51.808 4.73598 51.7384 4.74283 51.7249C4.76174 51.6873 4.71629 51.7453 4.7547 51.7102C4.76724 51.6987 4.7794 51.6867 4.79185 51.6751C4.74968 51.7145 4.79986 51.671 4.81443 51.6626C4.82939 51.654 4.89183 51.629 4.83846 51.6485C4.87919 51.6337 4.91982 51.6232 4.96199 51.6137C5.01236 51.6023 4.95215 51.6127 4.98361 51.61C5.01285 51.6074 5.04209 51.6051 5.07152 51.6043C5.11977 51.603 5.16812 51.6046 5.21618 51.6083C5.30062 51.6146 5.28586 51.6133 5.36209 51.6269C5.84713 51.7139 6.28197 51.9069 6.68198 52.1985C6.69144 52.2054 6.7009 52.2125 6.71036 52.2196C6.75649 52.2539 6.67976 52.1942 6.72348 52.2298C6.74471 52.2472 6.76585 52.2644 6.7863 52.2825C6.87132 52.3572 6.95248 52.4367 7.03461 52.5144C7.2005 52.6715 7.36485 52.8302 7.52746 52.9907C7.68119 53.1421 7.83424 53.2944 7.98344 53.4504C8.16429 53.6392 8.45081 53.3521 8.27025 53.1636C8.1308 53.0178 7.98778 52.8754 7.84438 52.7336C7.5539 52.4464 7.26738 52.1389 6.94255 51.8904C6.52188 51.5685 5.99169 51.3294 5.46999 51.2359C5.02105 51.1554 4.39397 51.1991 4.30238 51.7602C4.25114 52.0739 4.34754 52.4266 4.50842 52.6962C4.6553 52.9424 4.88314 53.1247 5.1578 53.2075C5.52934 53.3195 5.95569 53.2557 6.30803 53.1049C6.40878 53.0618 6.43117 52.9136 6.38079 52.8274C6.3199 52.7231 6.20438 52.7112 6.10334 52.7545Z" fill="black"/>
<path d="M8.83913 46.232C8.44154 46.4464 8.07588 46.7441 7.74477 47.0477C7.0124 47.7196 6.42682 48.5536 6.09204 49.4921C5.85204 50.1649 5.75495 50.8857 5.78728 51.5985C5.79905 51.8583 6.20476 51.8598 6.19289 51.5985C6.14087 50.4532 6.45384 49.3561 7.09183 48.4134C7.33338 48.0563 7.61526 47.7289 7.9427 47.4176C8.07424 47.2925 8.21089 47.1726 8.35208 47.0584C8.3819 47.0344 8.412 47.0107 8.44211 46.9869C8.46904 46.9658 8.41162 47.0099 8.45543 46.9768C8.47126 46.9649 8.48699 46.9529 8.50291 46.941C8.55753 46.9 8.61274 46.8599 8.66871 46.8208C8.78972 46.7363 8.91363 46.6524 9.04382 46.5822C9.27369 46.4584 9.0691 46.108 8.83913 46.232Z" fill="black"/>
<path d="M7.33875 44.3711L5.74662 43.6204C5.74662 43.6204 6.31822 44.2597 6.36936 44.4564C6.42041 44.6532 5.27124 44.2351 4.99051 44.2105C4.70978 44.186 5.35375 44.9482 5.74662 45.0711C6.13949 45.194 4.73535 45.2432 4.73535 45.2432C4.73535 45.2432 6.71803 47.6529 8.93088 46.1284C8.93088 46.1284 8.96629 45.2823 9.07216 44.8595C9.17792 44.4366 7.33875 44.3711 7.33875 44.3711Z" fill="black"/>
<path d="M10.955 49.8685C11.288 50.2096 11.6904 50.4995 12.0948 50.7481C12.9067 51.247 13.8523 51.5849 14.8154 51.548C15.4857 51.5221 16.1306 51.3137 16.7033 50.9674C16.9265 50.8326 16.7228 50.4816 16.4986 50.6172C16.0319 50.8993 15.5109 51.0897 14.9648 51.1334C14.4818 51.1722 14.0138 51.1109 13.5516 50.9718C13.1385 50.8476 12.7647 50.6743 12.3896 50.4521C12.2303 50.3579 12.0752 50.2566 11.9244 50.1493C11.8587 50.1025 11.7939 50.0545 11.7298 50.0055C11.6985 49.9817 11.7506 50.022 11.7203 49.9981C11.7062 49.987 11.692 49.976 11.6779 49.9647C11.6495 49.9421 11.6213 49.9192 11.5932 49.8962C11.4721 49.7967 11.3514 49.6938 11.2418 49.5816C11.0591 49.3946 10.7724 49.6814 10.955 49.8685Z" fill="black"/>
<path fill-rule="evenodd" clip-rule="evenodd" d="M92.9916 18.5729C93.0204 18.5743 93.0427 18.5755 93.0584 18.5763L93.0854 18.5777C93.0856 18.5778 93.0857 18.5778 93.0963 18.385L93.0857 18.5778L93.1202 18.1935L93.0963 18.385C93.1202 18.1935 93.12 18.1935 93.1197 18.1935L93.1192 18.1934L93.1179 18.1933L93.1149 18.1929C93.1126 18.1927 93.1098 18.1924 93.1063 18.1921C93.0994 18.1915 93.0901 18.1908 93.0777 18.19C93.0604 18.189 93.0371 18.1879 93.0064 18.1871C93.003 18.1869 92.9995 18.1868 92.996 18.1866C92.9232 18.1829 92.8151 18.1776 92.6742 18.1711C92.3923 18.1582 91.9787 18.1404 91.4514 18.1212C90.3966 18.0828 88.8867 18.0387 87.0652 18.0157C83.4226 17.9698 78.532 18.0086 73.5427 18.3475C68.5557 18.6864 63.4603 19.3257 59.4124 20.4842C57.3887 21.0635 55.6177 21.775 54.2508 22.6497C52.8845 23.5241 51.9062 24.572 51.4985 25.8288L51.8657 25.9479C52.2358 24.807 53.135 23.8221 54.4589 22.9749C55.7822 22.128 57.514 21.4291 59.5187 20.8554C63.5276 19.7079 68.5913 19.0708 73.5689 18.7327C78.5443 18.3947 83.4239 18.3559 87.0604 18.4017C87.8452 18.4116 88.572 18.4254 89.2293 18.441C85.9565 18.7565 79.9869 19.4531 69.1866 20.9764C67.1098 21.2694 65.536 21.5746 64.4122 21.9052C63.8503 22.0706 63.3952 22.2439 63.0438 22.4283C62.6946 22.6116 62.4332 22.8133 62.2763 23.0426C62.1136 23.2805 62.0696 23.5401 62.1436 23.8077C62.2147 24.0649 62.3905 24.3147 62.6355 24.559C63.1253 25.0474 63.952 25.5718 65.0362 26.1446L65.2165 25.8033C64.1357 25.2322 63.3539 24.7302 62.9081 24.2856C62.6853 24.0635 62.5614 23.8703 62.5157 23.7048C62.4728 23.5499 62.4946 23.4073 62.595 23.2605C62.7012 23.1052 62.9002 22.9396 63.2232 22.7701C63.5439 22.6018 63.9727 22.4369 64.5211 22.2756C65.6179 21.9528 67.1699 21.6507 69.2405 21.3587C80.0798 19.8298 86.0473 19.1346 89.3037 18.8217C90.932 18.6652 91.8809 18.6044 92.4212 18.5826C92.6913 18.5717 92.8583 18.5707 92.9564 18.5722C92.9693 18.5724 92.981 18.5726 92.9916 18.5729Z" fill="black"/>
<path fill-rule="evenodd" clip-rule="evenodd" d="M79.4918 33.9736C84.1922 35.5765 87.2632 36.6885 90.0416 38.0867C92.8804 39.5152 94.7647 41.1368 95.8489 42.8363C96.9356 44.5399 97.2124 46.313 96.8487 48.0221C96.1241 51.4269 92.8725 54.5322 88.5631 56.3791C87.4618 56.851 85.3178 57.2271 82.4396 57.5306C79.5518 57.8351 75.8982 58.0688 71.7584 58.2458C63.4784 58.5999 53.2432 58.7278 43.2779 58.7409C33.3121 58.7541 23.6141 58.6526 16.4078 58.5478C12.8046 58.4954 9.82416 58.4422 7.74452 58.4021C6.7047 58.382 5.89006 58.3652 5.33536 58.3535C5.05801 58.3476 4.84564 58.3429 4.7026 58.3398C4.63107 58.3382 4.57688 58.337 4.54057 58.3362L4.48665 58.3349C4.48607 58.3349 4.48578 58.3349 4.4902 58.142C4.49463 57.949 4.49491 57.949 4.49548 57.949L4.54926 57.9502C4.58552 57.9511 4.63966 57.9523 4.71112 57.9539C4.85406 57.957 5.06632 57.9616 5.34355 57.9675C5.89802 57.9793 6.71241 57.9961 7.75196 58.0161C9.83108 58.0562 12.8109 58.1095 16.4134 58.1618C23.6185 58.2666 33.3143 58.3681 43.2774 58.3549C53.2409 58.3417 63.4698 58.2139 71.7419 57.8601C75.8782 57.6832 79.5227 57.45 82.3991 57.1467C85.2852 56.8423 87.3716 56.4697 88.411 56.0242C92.664 54.2016 95.7836 51.1724 96.4711 47.9417C96.8134 46.333 96.5564 44.6632 95.5234 43.0439C94.4879 41.4207 92.6668 39.8398 89.8681 38.4315C87.1166 37.0469 84.0695 35.9425 79.3672 34.339L79.4918 33.9736Z" fill="black"/>
<path d="M43.6222 70.6464H41.6909V64.8614H43.4929C43.5086 65.1347 43.5234 65.3949 43.5436 65.7477C43.708 65.5961 43.8228 65.4936 43.9336 65.3871C44.4384 64.9023 45.0255 64.6357 45.7401 64.6597C46.382 64.6812 46.8872 64.9287 47.2375 65.4743C47.2852 65.5487 47.3368 65.6207 47.417 65.7382C47.5509 65.6055 47.6697 65.4851 47.7913 65.3675C48.4692 64.7121 49.2695 64.5213 50.1754 64.7484C50.6754 64.8736 51.02 65.1906 51.1824 65.6711C51.281 65.9631 51.3591 66.2772 51.364 66.5827C51.3847 67.8756 51.3747 69.1689 51.3744 70.4621C51.3744 70.5045 51.3577 70.5471 51.3354 70.6535C50.7032 70.688 50.0623 70.677 49.3875 70.6582C49.3787 70.4683 49.3664 70.3235 49.3661 70.1789C49.3643 69.3018 49.3653 68.4248 49.3649 67.5478C49.3649 67.429 49.3679 67.3097 49.3605 67.1912C49.3335 66.7604 49.1569 66.4978 48.8314 66.3962C48.4956 66.2912 48.0659 66.4264 47.8297 66.7205C47.5949 67.0131 47.5287 67.3596 47.5287 67.7247C47.5288 68.5421 47.5292 69.3597 47.527 70.1773C47.5266 70.3221 47.5145 70.4668 47.5065 70.6413H45.5142C45.5142 70.4821 45.5142 70.339 45.5142 70.196C45.5142 69.3191 45.5145 68.442 45.5138 67.5649C45.5137 67.4312 45.52 67.2964 45.5051 67.1641C45.4664 66.8224 45.3552 66.5168 44.9878 66.4048C44.6113 66.2899 44.2582 66.3828 44.0203 66.6824C43.8623 66.8814 43.7529 67.1483 43.7072 67.4002C43.6467 67.7328 43.6621 68.0806 43.6587 68.4218C43.6526 69.0312 43.6583 69.6408 43.6553 70.2502C43.6547 70.3663 43.6364 70.4823 43.6222 70.6464Z" fill="black"/>
<path d="M87.8521 70.9338V61.3894C88.5041 61.2982 89.1426 61.2088 89.8352 61.1118V65.0289C90.016 64.9684 90.1373 64.932 90.2554 64.8875C92.0151 64.2244 93.6354 65.1484 93.9407 67.0091C94.0372 67.5975 94.0275 68.194 93.8661 68.7775C93.5476 69.9282 92.5643 70.7688 91.3772 70.9046C90.8117 70.9692 90.2465 70.9608 89.6965 70.8114C89.2969 70.7029 88.9114 70.6916 88.5141 70.8069C88.3178 70.864 88.1114 70.8856 87.8521 70.9338ZM89.8476 69.3294C90.3763 69.5352 90.8307 69.5352 91.2549 69.2318C92.0031 68.697 92.1943 67.3455 91.6117 66.6306C91.1496 66.0638 90.5763 66.0803 89.9827 66.4383C89.9122 66.4807 89.8542 66.6051 89.8533 66.6922C89.8439 67.565 89.8476 68.4379 89.8476 69.3294Z" fill="black"/>
<path d="M5.51855 61.39C6.1439 61.2994 6.75593 61.2107 7.43223 61.1128V67.0886C7.46205 67.0981 7.49187 67.1076 7.52169 67.1172C7.59639 67.0385 7.67967 66.9664 7.74423 66.8804C8.19018 66.2863 8.63863 65.6939 9.07184 65.0905C9.20666 64.9027 9.35344 64.8178 9.58862 64.8241C10.1459 64.8389 10.7038 64.8289 11.3758 64.8289C10.6624 65.7098 10.0218 66.5007 9.35499 67.324C10.1669 68.4101 10.9724 69.4875 11.8169 70.6173C11.647 70.6415 11.5387 70.6692 11.4302 70.6705C10.9547 70.6754 10.4788 70.6601 10.0039 70.6774C9.73705 70.6874 9.57009 70.595 9.42022 70.371C8.88327 69.5687 8.32615 68.7796 7.77482 67.9869C7.70129 67.8811 7.61714 67.7828 7.491 67.689C7.42393 68.1746 7.44121 68.6555 7.43803 69.135C7.43474 69.6224 7.43725 70.11 7.43725 70.6519C6.77929 70.6878 6.16513 70.676 5.51855 70.6601V61.39Z" fill="black"/>
<path d="M86.2765 70.4589C85.7104 70.6138 85.1143 70.7768 84.5044 70.9435C84.4188 70.7632 84.3504 70.6194 84.2673 70.4443C84.1324 70.5173 84.0052 70.586 83.8781 70.6549C82.9176 71.1756 81.8216 71.0312 81.0423 70.2685C80.2381 69.4814 79.9928 68.4972 80.0876 67.4113C80.1557 66.6319 80.4444 65.9416 81.0141 65.3883C81.8345 64.5914 82.8171 64.3652 83.8936 64.6803C84.3905 64.8257 84.8731 64.8868 85.3808 64.8581C85.6462 64.8431 85.9132 64.8555 86.2408 64.8555C86.2525 66.7038 86.2643 68.5391 86.2765 70.4589ZM84.2284 67.6822C84.2284 67.3111 84.2191 66.94 84.232 66.5696C84.2395 66.3545 84.1465 66.2426 83.9534 66.1755C83.4531 66.0018 83.0149 66.1076 82.6423 66.4703C81.9963 67.099 81.9471 68.3568 82.5327 69.0448C82.9265 69.5072 83.465 69.57 83.9608 69.223C84.1459 69.0932 84.2444 68.9429 84.233 68.7058C84.2165 68.3653 84.2289 68.0235 84.2284 67.6822Z" fill="black"/>
<path d="M36.2121 70.4581C35.6495 70.6125 35.0538 70.7761 34.4416 70.9441C34.3569 70.7666 34.2885 70.6236 34.2005 70.4391C34.0679 70.5134 33.9436 70.5846 33.818 70.6531C32.8451 71.1837 31.7333 71.0283 30.9493 70.2409C30.1686 69.4565 29.93 68.4847 30.0236 67.4158C30.0918 66.6372 30.3768 65.9449 30.9464 65.3909C31.7518 64.6076 32.7199 64.3654 33.7815 64.6696C34.3227 64.8246 34.8494 64.887 35.4011 64.8564C35.6369 64.8432 35.874 64.8542 36.1753 64.8542C36.1875 66.7018 36.1994 68.5363 36.2121 70.4581ZM34.1631 67.6542C34.1631 67.2833 34.1566 66.9123 34.1657 66.5417C34.1705 66.3453 34.0756 66.2476 33.905 66.1807C33.4381 65.9972 32.9264 66.1103 32.557 66.4887C31.938 67.1228 31.8906 68.348 32.4585 69.0321C32.8576 69.5126 33.4171 69.5752 33.9198 69.2068C34.0898 69.0822 34.1756 68.9395 34.1673 68.7222C34.1538 68.3667 34.1637 68.0103 34.1631 67.6542Z" fill="black"/>
<path d="M25.2427 70.4612C24.6664 70.6172 24.0693 70.779 23.4632 70.943C23.3782 70.7557 23.3126 70.6111 23.2348 70.4394C23.075 70.5272 22.9354 70.6071 22.7929 70.6819C21.8835 71.1585 20.8142 71.0196 20.0623 70.3207C19.2492 69.5649 18.9793 68.6016 19.0432 67.5301C19.0905 66.7357 19.3573 66.0204 19.9276 65.4412C20.7435 64.6125 21.7351 64.3559 22.8296 64.6761C23.3584 64.8309 23.8706 64.8774 24.406 64.8562C24.6557 64.8464 24.9061 64.8546 25.2028 64.8546C25.2161 66.7151 25.2291 68.5514 25.2427 70.4612ZM23.1928 67.6414C23.1928 67.3596 23.1931 67.0777 23.1927 66.796C23.1918 66.2585 23.0279 66.0911 22.488 66.0946C22.1466 66.0966 21.8542 66.2279 21.6103 66.467C20.9692 67.0949 20.913 68.3617 21.4962 69.0432C21.8927 69.5063 22.4261 69.5698 22.9236 69.2242C23.1089 69.0955 23.2086 68.947 23.197 68.709C23.1797 68.3539 23.1926 67.9973 23.1928 67.6414Z" fill="black"/>
<path d="M58.7017 64.8549C58.7249 66.7355 58.7475 68.5605 58.771 70.4557C58.2155 70.6099 57.6228 70.7744 57.0084 70.9447C56.9246 70.7753 56.8545 70.6338 56.7647 70.4522C56.6513 70.5105 56.5375 70.5655 56.427 70.6267C55.3696 71.2127 54.1973 71.0174 53.3928 70.1202C52.3228 68.9272 52.2681 66.8612 53.2921 65.6302C54.1077 64.6496 55.1676 64.3317 56.3747 64.6808C56.8899 64.8298 57.3873 64.8718 57.907 64.8561C58.1564 64.8486 58.4063 64.8549 58.7017 64.8549ZM56.7151 67.6445H56.7141C56.7141 67.2741 56.709 66.9037 56.7161 66.5335C56.7199 66.3383 56.6261 66.2365 56.4517 66.1761C55.9533 66.0036 55.516 66.1066 55.1423 66.4689C54.4895 67.1018 54.4353 68.3423 55.0237 69.0373C55.4269 69.5136 55.9883 69.5736 56.4843 69.2033C56.6395 69.0874 56.7222 68.9543 56.7177 68.7557C56.7093 68.3854 56.7151 68.0149 56.7151 67.6445Z" fill="black"/>
<path d="M14.9284 64.5483C16.8283 64.5494 18.17 65.8807 18.167 67.7614C18.1641 69.6213 16.7857 70.9777 14.9083 70.968C13.0355 70.9584 11.6884 69.5956 11.6963 67.7184C11.7041 65.8633 13.0458 64.5472 14.9284 64.5483ZM16.0758 67.7431C16.0934 67.3103 16.0096 66.9086 15.768 66.5527C15.321 65.8942 14.5161 65.9 14.074 66.5603C13.6581 67.1816 13.6669 68.3039 14.0623 68.9347C14.462 69.5725 15.365 69.6169 15.7892 68.9255C16.0144 68.5585 16.096 68.1602 16.0758 67.7431Z" fill="black"/>
<path d="M59.4196 64.8342C60.2318 64.8342 60.9404 64.8247 61.6481 64.8446C61.7498 64.8475 61.8684 64.9762 61.9429 65.0742C62.2104 65.427 62.4625 65.7918 62.7555 66.2009C63.0603 65.8107 63.3435 65.4728 63.5973 65.1139C63.7517 64.8956 63.9307 64.8144 64.1945 64.8237C64.6918 64.8412 65.1902 64.8287 65.8 64.8287C65.0589 65.7964 64.3866 66.6743 63.7039 67.5657C64.4219 68.581 65.1235 69.5727 65.8572 70.61C65.7142 70.637 65.6217 70.669 65.5289 70.6697C64.9642 70.6745 64.3994 70.6624 63.8349 70.6768C63.5957 70.6829 63.4549 70.5873 63.3282 70.3942C63.0683 69.9979 62.7856 69.6162 62.491 69.1982C62.4 69.283 62.3199 69.3411 62.2604 69.4158C61.9828 69.7644 61.7073 70.115 61.4386 70.4706C61.3419 70.5985 61.2342 70.6737 61.0677 70.6724C60.5194 70.6677 59.9711 70.6706 59.4425 70.6706C59.4162 70.6262 59.4073 70.6149 59.4025 70.6021C59.3974 70.589 59.3907 70.5724 59.3948 70.5609C59.4048 70.5332 59.4166 70.5046 59.4343 70.4816C60.1142 69.5993 60.7948 68.7176 61.5082 67.7935C60.8358 66.8411 60.1627 65.8871 59.4196 64.8342Z" fill="black"/>
<path d="M79.1851 65.0918C79.1156 65.659 79.0473 66.2152 78.9716 66.8335C78.7511 66.7261 78.5863 66.6377 78.4151 66.5639C77.876 66.3318 77.328 66.1617 76.7308 66.3288C75.977 66.5398 75.511 67.1933 75.5995 67.9263C75.695 68.7167 76.2635 69.2114 77.0883 69.2352C77.6117 69.2501 78.0801 69.0738 78.5351 68.8456C78.7306 68.7474 78.9193 68.636 79.1793 68.4931C79.1235 69.115 79.083 69.6717 79.0145 70.2247C79.0034 70.3145 78.8826 70.4173 78.7878 70.4659C77.6998 71.024 76.5603 71.1368 75.4267 70.6777C73.145 69.754 73.0968 67.0558 74.3038 65.7408C74.8222 65.1758 75.4448 64.8038 76.1992 64.6447C77.0246 64.4706 78.3718 64.5614 79.1851 65.0918Z" fill="black"/>
<path d="M28.7928 70.6462H26.8322C26.7389 70.3142 26.7162 61.9517 26.8103 61.3853C27.4256 61.2988 28.0537 61.2104 28.6915 61.1208C28.8454 61.2527 28.79 61.4265 28.7903 61.5774C28.794 63.6151 28.7928 65.6529 28.7928 67.6907C28.7928 68.5087 28.7928 69.3267 28.7928 70.1448V70.6462Z" fill="black"/>
<path d="M68.3999 70.6471H66.4845C66.3879 70.3243 66.3613 65.4163 66.4557 64.8202C67.0833 64.7349 67.7251 64.6475 68.3626 64.5608C68.4569 64.9126 68.486 69.9223 68.3999 70.6471Z" fill="black"/>
<path d="M68.3999 63.9989H66.4845C66.3879 63.9001 66.3613 62.3974 66.4557 62.2149C67.0833 62.1888 67.7251 62.162 68.3626 62.1355C68.4569 62.2431 68.486 63.777 68.3999 63.9989Z" fill="black"/>
<path d="M17.6795 34.7819C17.4368 35.8123 16.1393 36.5924 15.1719 35.9948L15.1798 35.967C16.271 35.9229 17.1246 35.8686 17.6523 34.772L17.6795 34.7819Z" fill="black"/>
<path d="M27.0123 78.409C27.289 78.5289 27.4991 78.6983 27.6425 78.9172C27.786 79.1361 27.8577 79.402 27.8577 79.7147C27.8577 80.2099 27.681 80.5878 27.3274 80.8485C26.9739 81.1091 26.4615 81.2394 25.7902 81.2394H23.8149V75.7974H25.8825C26.4615 75.7974 26.9073 75.9225 27.2198 76.1727C27.5324 76.4177 27.6887 76.7696 27.6887 77.2283C27.6887 77.7756 27.4632 78.1692 27.0123 78.409ZM24.8295 76.7044V78.0024H25.7902C26.0669 78.0024 26.2744 77.945 26.4128 77.8304C26.5511 77.7157 26.6203 77.5489 26.6203 77.33C26.6203 77.0902 26.5588 76.926 26.4358 76.8374C26.318 76.7487 26.1054 76.7044 25.7979 76.7044H24.8295ZM25.7902 80.3246C26.154 80.3246 26.4102 80.2725 26.5588 80.1682C26.7125 80.0588 26.7894 79.8737 26.7894 79.6131C26.7894 79.3681 26.7074 79.1883 26.5435 79.0736C26.3846 78.9589 26.1361 78.9016 25.7979 78.9016H24.8295V80.3246H25.7902Z" fill="black"/>
<path d="M31.633 81.3332C31.0848 81.3332 30.6134 81.2186 30.2188 80.9892C29.8243 80.7599 29.5245 80.4341 29.3196 80.0118C29.1146 79.5896 29.0121 79.0918 29.0121 78.5184C29.0121 77.945 29.1146 77.4472 29.3196 77.025C29.5245 76.6028 29.8243 76.277 30.2188 76.0476C30.6134 75.8183 31.0848 75.7036 31.633 75.7036C32.1813 75.7036 32.6527 75.8183 33.0473 76.0476C33.4418 76.277 33.7416 76.6028 33.9465 77.025C34.1515 77.4472 34.254 77.945 34.254 78.5184C34.254 79.0918 34.1515 79.5896 33.9465 80.0118C33.7416 80.4341 33.4418 80.7599 33.0473 80.9892C32.6527 81.2186 32.1813 81.3332 31.633 81.3332ZM31.633 80.3793C32.1147 80.3793 32.4939 80.2203 32.7706 79.9024C33.0473 79.5792 33.1856 79.1179 33.1856 78.5184C33.1856 77.919 33.0473 77.4603 32.7706 77.1423C32.4939 76.8191 32.1147 76.6575 31.633 76.6575C31.1514 76.6575 30.7722 76.8191 30.4955 77.1423C30.2188 77.4603 30.0805 77.919 30.0805 78.5184C30.0805 79.1179 30.2188 79.5792 30.4955 79.9024C30.7722 80.2203 31.1514 80.3793 31.633 80.3793Z" fill="black"/>
<path d="M38.7106 81.2394L37.6192 79.1674H36.6661V81.2394H35.6516V75.7974H37.5808C38.2725 75.7974 38.79 75.9382 39.1333 76.2197C39.4766 76.5011 39.6483 76.9103 39.6483 77.4472C39.6483 77.8278 39.5637 78.1509 39.3946 78.4168C39.2256 78.6826 38.9745 78.8807 38.6414 79.011L39.8251 81.2394H38.7106ZM36.6661 78.2604H37.5885C37.9266 78.2604 38.1751 78.2005 38.334 78.0806C38.498 77.9607 38.5799 77.7574 38.5799 77.4707C38.5799 77.1944 38.5005 76.9989 38.3417 76.8843C38.1828 76.7696 37.9292 76.7123 37.5808 76.7123H36.6661V78.2604Z" fill="black"/>
<path d="M45.5987 75.7974V81.2394H44.5842L42.0478 77.6427V81.2394H41.0333V75.7974H42.0478L44.5842 79.3863V75.7974H45.5987Z" fill="black"/>
<path d="M49.2655 75.7974H50.28V81.2394H49.2655V75.7974Z" fill="black"/>
<path d="M56.362 75.7974V81.2394H55.3475L52.8111 77.6427V81.2394H51.7966V75.7974H52.8111L55.3475 79.3863V75.7974H56.362Z" fill="black"/>
<path d="M63.2723 80.004H60.9896L60.5438 81.2394H59.5292L61.5583 75.7974H62.742L64.771 81.2394H63.7181L63.2723 80.004ZM62.9572 79.1283L62.1348 76.8139L61.3047 79.1283H62.9572Z" fill="black"/>
<path d="M67.8431 81.3332C67.1309 81.3332 66.5724 81.1247 66.1676 80.7077C65.7628 80.2907 65.5604 79.7173 65.5604 78.9876V75.7974H66.575V78.9641C66.575 79.4645 66.6851 79.8346 66.9055 80.0744C67.1258 80.309 67.4384 80.4262 67.8431 80.4262C68.2531 80.4262 68.5656 80.3064 68.7808 80.0666C69.0012 79.8216 69.1113 79.4541 69.1113 78.9641V75.7974H70.1259V78.9876C70.1259 79.7173 69.9235 80.2907 69.5187 80.7077C69.1139 81.1247 68.5554 81.3332 67.8431 81.3332Z" fill="black"/>
<path d="M73.2946 81.3332C73.0076 81.3332 72.7028 81.2941 72.38 81.216C72.0571 81.1378 71.7523 81.0309 71.4653 80.8954V79.8946C72.1314 80.2594 72.7258 80.4419 73.2485 80.4419C73.5098 80.4419 73.7199 80.3845 73.8787 80.2699C74.0427 80.1552 74.1247 79.9936 74.1247 79.7851C74.1247 79.6391 74.0785 79.5166 73.9863 79.4176C73.8992 79.3134 73.789 79.23 73.6558 79.1674C73.5226 79.0996 73.333 79.0188 73.0871 78.925C72.754 78.7999 72.4824 78.68 72.2724 78.5653C72.0623 78.4507 71.8829 78.2891 71.7343 78.0806C71.5857 77.8669 71.5114 77.5932 71.5114 77.2596C71.5114 76.7696 71.678 76.3891 72.011 76.118C72.3441 75.8417 72.8001 75.7036 73.3791 75.7036C73.6507 75.7036 73.9171 75.7349 74.1785 75.7974C74.4398 75.8548 74.6806 75.9408 74.9009 76.0555V77.0328C74.3834 76.7409 73.8838 76.595 73.4022 76.595C73.1357 76.595 72.9257 76.6445 72.7719 76.7435C72.6233 76.8374 72.549 76.9729 72.549 77.1501C72.549 77.3273 72.6259 77.4681 72.7796 77.5723C72.9385 77.6714 73.1819 77.7808 73.5098 77.9007C73.8531 78.031 74.1349 78.1562 74.3552 78.276C74.5756 78.3959 74.7652 78.5706 74.924 78.7999C75.088 79.0241 75.1751 79.316 75.1853 79.6756C75.1853 80.1917 75.0137 80.5983 74.6704 80.8954C74.3271 81.1873 73.8685 81.3332 73.2946 81.3332Z" fill="black"/>
<path fill-rule="evenodd" clip-rule="evenodd" d="M5.51855 77.8149H19.5926V78.5186H5.51855V77.8149Z" fill="black"/>
<path fill-rule="evenodd" clip-rule="evenodd" d="M80.1113 77.8149H94.1854V78.5186H80.1113V77.8149Z" fill="black"/>
</svg>
