<svg width="40" height="29" viewBox="0 0 40 29" fill="none" xmlns="http://www.w3.org/2000/svg">
<g clip-path="url(#clip0_5_17602)">
<path d="M1.5 0H38.5C39.3284 0 40 0.671573 40 1.5C40 2.32843 39.3284 3 38.5 3H1.5C0.671574 3 0 2.32843 0 1.5C0 0.671573 0.671574 0 1.5 0Z" fill="black"/>
<path d="M11.5 13H38.5C39.3284 13 40 13.6716 40 14.5C40 15.3284 39.3284 16 38.5 16H11.5C10.6716 16 10 15.3284 10 14.5C10 13.6716 10.6716 13 11.5 13Z" fill="black"/>
<path d="M6.5 26H38.5C39.3284 26 40 26.6716 40 27.5C40 28.3284 39.3284 29 38.5 29H6.5C5.67157 29 5 28.3284 5 27.5C5 26.6716 5.67157 26 6.5 26Z" fill="black"/>
</g>
<defs>
<clipPath id="clip0_5_17602">
<rect width="40" height="29" fill="white"/>
</clipPath>
</defs>
</svg>
