<svg width="34" height="30" viewBox="0 0 34 30" fill="none" xmlns="http://www.w3.org/2000/svg">
<path d="M2.0835 16.6667H31.2502C32.5002 16.6667 33.3335 15.8333 33.3335 14.5833C33.3335 13.3333 32.5002 12.5 31.2502 12.5H2.0835C0.833497 12.5 0.000164032 13.3333 0.000164032 14.5833C0.000164032 15.8333 0.833497 16.6667 2.0835 16.6667Z" fill="#EDCB00"/>
<path d="M14.5837 29.1667C15.2087 29.1667 15.6253 28.9583 16.042 28.5417C16.8753 27.7083 16.8753 26.4583 16.042 25.625L3.54199 13.125C2.70866 12.2917 1.45866 12.2917 0.625325 13.125C-0.208009 13.9583 -0.208009 15.2083 0.625325 16.0417L13.1253 28.5417C13.542 28.9583 13.9587 29.1667 14.5837 29.1667Z" fill="#EDCB00"/>
<path d="M2.08366 16.6667C2.70866 16.6667 3.12533 16.4583 3.54199 16.0417L16.042 3.54167C16.8753 2.70833 16.8753 1.45833 16.042 0.625C15.2087 -0.208333 13.9587 -0.208333 13.1253 0.625L0.625325 13.125C-0.208009 13.9583 -0.208009 15.2083 0.625325 16.0417C1.04199 16.4583 1.45866 16.6667 2.08366 16.6667Z" fill="#EDCB00"/>
</svg>
