<svg width="34" height="30" viewBox="0 0 34 30" fill="none" xmlns="http://www.w3.org/2000/svg">
<path d="M31.25 16.6667H2.08333C0.833333 16.6667 0 15.8333 0 14.5833C0 13.3333 0.833333 12.5 2.08333 12.5H31.25C32.5 12.5 33.3333 13.3333 33.3333 14.5833C33.3333 15.8333 32.5 16.6667 31.25 16.6667Z" fill="#EDCB00"/>
<path d="M18.7498 29.1667C18.1248 29.1667 17.7082 28.9583 17.2915 28.5417C16.4582 27.7083 16.4582 26.4583 17.2915 25.625L29.7915 13.125C30.6248 12.2917 31.8748 12.2917 32.7082 13.125C33.5415 13.9583 33.5415 15.2083 32.7082 16.0417L20.2082 28.5417C19.7915 28.9583 19.3748 29.1667 18.7498 29.1667Z" fill="#EDCB00"/>
<path d="M31.2498 16.6667C30.6248 16.6667 30.2082 16.4583 29.7915 16.0417L17.2915 3.54167C16.4582 2.70833 16.4582 1.45833 17.2915 0.625C18.1248 -0.208333 19.3748 -0.208333 20.2082 0.625L32.7082 13.125C33.5415 13.9583 33.5415 15.2083 32.7082 16.0417C32.2915 16.4583 31.8748 16.6667 31.2498 16.6667Z" fill="#EDCB00"/>
</svg>
