<svg width="135" height="90" viewBox="0 0 135 90" fill="none" xmlns="http://www.w3.org/2000/svg">
<path fill-rule="evenodd" clip-rule="evenodd" d="M90.7804 12.0912L36.9263 11.8435L36.9288 11.2949L90.7871 11.5427C91.13 11.5176 96.4259 11.2492 104.115 17.7188C108.038 21.0193 111.595 24.0897 114.172 26.335C115.46 27.4576 116.503 28.3741 117.225 29.0099C117.585 29.3278 117.865 29.5755 118.055 29.7439C118.15 29.828 118.223 29.8923 118.272 29.9356L118.327 29.9846L118.34 29.9967L118.341 29.997L118.341 29.9977L118.344 29.9997C118.346 30.0012 118.348 30.0033 118.351 30.0059C118.357 30.0111 118.365 30.0183 118.375 30.0276C118.396 30.0462 118.424 30.0732 118.46 30.1086C118.532 30.1795 118.632 30.2845 118.751 30.4249C118.988 30.7057 119.3 31.1285 119.607 31.7045C120.223 32.8576 120.816 34.618 120.763 37.0695L120.957 40.5615C120.969 40.7728 121.033 40.9778 121.145 41.1578L121.63 41.9396C121.841 42.2789 121.953 42.6706 121.953 43.0704V49.0842C121.953 49.2551 121.925 49.4252 121.871 49.5873L121.729 50.0147C121.698 50.1056 121.709 50.205 121.758 50.2874L121.758 50.2877L122.028 50.7411L122.028 50.7413C122.202 51.0339 122.144 51.4084 121.89 51.6353L121.728 51.7803C121.952 52.0928 121.733 52.547 121.331 52.547H25.7012V51.9985H121.211C121.111 51.8063 121.148 51.5628 121.318 51.4109C121.319 51.4108 121.319 51.4107 121.319 51.4105L121.525 51.2264C121.583 51.1745 121.596 51.0888 121.556 51.0213M121.556 51.0212L121.287 50.5682C121.156 50.3486 121.128 50.0833 121.208 49.8412L121.351 49.414C121.351 49.414 121.351 49.414 121.351 49.414C121.386 49.3076 121.404 49.196 121.404 49.0842V43.0704C121.404 42.7729 121.321 42.4814 121.164 42.2289L120.679 41.447C120.519 41.189 120.426 40.8951 120.409 40.5919L120.215 37.0972C120.215 37.0883 120.214 37.0752 120.215 37.06C120.266 34.7061 119.697 33.0375 119.124 31.9628C118.836 31.4245 118.547 31.0335 118.332 30.7791C118.224 30.6519 118.135 30.5589 118.074 30.4987C118.044 30.4686 118.021 30.4468 118.006 30.433C117.998 30.4261 117.992 30.4212 117.989 30.4183L117.986 30.4156L117.986 30.4154L117.986 30.4153L117.986 30.4152L117.983 30.4133L117.981 30.411L118.163 30.2061C117.981 30.411 117.981 30.411 117.981 30.411L117.98 30.4107L117.907 30.3458C117.859 30.3026 117.786 30.2385 117.692 30.1545C117.502 29.9864 117.222 29.739 116.862 29.4214C116.141 28.7862 115.099 27.8704 113.811 26.7485C111.236 24.5047 107.682 21.4365 103.762 18.1386C96.1421 11.7273 90.9727 12.0785 90.824 12.09L90.8234 12.0901C90.8104 12.0911 90.7976 12.0915 90.7837 12.0913C90.7826 12.0912 90.7815 12.0912 90.7804 12.0912" fill="black"/>
<path d="M33.4951 52.2708H46.5837V45.5054C46.5092 49.251 43.3454 52.1926 39.7633 52.0435C36.3779 51.9026 33.5593 49.0401 33.4951 45.5054V52.2708Z" fill="black"/>
<path d="M95.8683 52.2708H109.094V45.5054C109.019 49.251 105.822 52.1926 102.202 52.0435C98.7812 51.9026 95.933 49.0401 95.8682 45.5054V52.2708H95.8683Z" fill="black"/>
<path fill-rule="evenodd" clip-rule="evenodd" d="M102.413 39.1668C98.9118 39.1668 96.074 42.0046 96.074 45.5053C96.074 49.0059 98.9119 51.8438 102.413 51.8438C105.913 51.8438 108.751 49.0059 108.751 45.5053C108.751 42.0046 105.913 39.1668 102.413 39.1668ZM95.6626 45.5053C95.6626 41.7774 98.6846 38.7554 102.413 38.7554C106.14 38.7554 109.162 41.7774 109.162 45.5053C109.162 49.2332 106.14 52.2552 102.413 52.2552C98.6846 52.2552 95.6626 49.2332 95.6626 45.5053Z" fill="black"/>
<path fill-rule="evenodd" clip-rule="evenodd" d="M40.039 39.1668C36.5383 39.1668 33.7005 42.0046 33.7005 45.5053C33.7005 49.0059 36.5383 51.8438 40.039 51.8438C43.5396 51.8438 46.3775 49.0059 46.3775 45.5053C46.3775 42.0046 43.5396 39.1668 40.039 39.1668ZM33.2891 45.5053C33.2891 41.7774 36.3111 38.7554 40.039 38.7554C43.7668 38.7554 46.7889 41.7774 46.7889 45.5053C46.7889 49.2332 43.7668 52.2552 40.039 52.2552C36.3111 52.2552 33.2891 49.2332 33.2891 45.5053Z" fill="black"/>
<path d="M31.8165 30.7794H83.3575C84.4499 30.7794 85.4285 30.104 85.8161 29.0825L89.3419 19.789C89.6521 18.9713 89.048 18.0959 88.1735 18.0959H35.9349C35.9349 18.0959 34.292 21.5522 29.0578 20.7542C29.0578 20.7542 29.1521 23.2311 25.7871 26.0871C25.7871 26.0871 31.3172 28.4109 31.8165 30.7794Z" fill="black"/>
<path fill-rule="evenodd" clip-rule="evenodd" d="M39.8814 40.7499C37.1654 40.7499 34.9635 42.9517 34.9635 45.6678C34.9635 48.3839 37.1654 50.5857 39.8814 50.5857C42.5975 50.5857 44.7993 48.3839 44.7993 45.6678C44.7993 42.9517 42.5975 40.7499 39.8814 40.7499ZM34.9287 45.6678C34.9287 42.9325 37.1461 40.7151 39.8814 40.7151C42.6168 40.7151 44.8342 42.9325 44.8342 45.6678C44.8342 48.4031 42.6168 50.6205 39.8814 50.6205C37.1461 50.6205 34.9287 48.4031 34.9287 45.6678Z" fill="black"/>
<path fill-rule="evenodd" clip-rule="evenodd" d="M30.9761 45.7738C30.9761 40.9141 34.9156 36.9746 39.7752 36.9746C44.6349 36.9746 48.5744 40.9141 48.5744 45.7738H48.3001C48.3001 41.0656 44.4834 37.2489 39.7752 37.2489C35.0671 37.2489 31.2503 41.0656 31.2503 45.7738H30.9761Z" fill="black"/>
<path fill-rule="evenodd" clip-rule="evenodd" d="M102.318 40.7502C99.6018 40.7502 97.4001 42.9519 97.4001 45.6679C97.4001 48.3839 99.6018 50.5857 102.318 50.5857C105.034 50.5857 107.236 48.3839 107.236 45.6679C107.236 42.9519 105.034 40.7502 102.318 40.7502ZM97.3652 45.6679C97.3652 42.9327 99.5826 40.7153 102.318 40.7153C105.053 40.7153 107.27 42.9327 107.27 45.6679C107.27 48.4032 105.053 50.6205 102.318 50.6205C99.5826 50.6205 97.3652 48.4032 97.3652 45.6679Z" fill="black"/>
<path fill-rule="evenodd" clip-rule="evenodd" d="M102.378 36.5877C97.5795 36.5877 93.6751 40.6449 93.6751 45.668H93.2637C93.2637 40.434 97.3363 36.1763 102.378 36.1763C107.419 36.1763 111.492 40.434 111.492 45.668V47.0359H111.081V45.668C111.081 40.6449 107.176 36.5877 102.378 36.5877Z" fill="black"/>
<path d="M115.249 30.5302L103.434 20.1789C102.059 19.015 100.333 18.3455 98.5321 18.2772L92.9391 18.0966C92.38 18.0755 92.1889 18.5784 92.3325 19.1191L94.8561 28.6238C95.0274 29.2688 95.5823 29.7386 96.2465 29.8013L114.819 31.552C115.531 31.619 115.794 30.9919 115.249 30.5302ZM113.859 30.9881L111.321 30.7113C110.679 30.6414 110.187 30.1101 110.165 29.4649L110.132 28.4539C110.114 27.9084 110.697 27.551 111.175 27.8151L113.622 29.1674C114.086 29.4237 114.391 29.8941 114.437 30.422C114.466 30.7508 114.187 31.0239 113.859 30.9881Z" fill="black"/>
<path fill-rule="evenodd" clip-rule="evenodd" d="M108.247 50.8303H121.792V50.9326H108.247V50.8303Z" fill="black"/>
<path fill-rule="evenodd" clip-rule="evenodd" d="M95.1346 47.639C94.5407 47.639 94.0592 48.1205 94.0592 48.7145V49.6689C94.0592 50.4143 93.4549 51.0186 92.7095 51.0186H49.2766C48.6499 51.0186 48.1417 50.5108 48.1417 49.8838V48.4997C48.1417 48.2872 47.9977 48.0739 47.7624 47.9058C47.5293 47.7394 47.2349 47.6392 46.9919 47.6392H46.4399V47.3649H46.9919C47.3001 47.3649 47.6492 47.488 47.9218 47.6826C48.1921 47.8757 48.416 48.1612 48.416 48.4997V49.8838C48.416 50.3592 48.8013 50.7444 49.2766 50.7444H92.7095C93.3034 50.7444 93.7849 50.2628 93.7849 49.6689V48.7145C93.7849 47.9691 94.3892 47.3647 95.1346 47.3647H95.8686V47.639H95.1346Z" fill="black"/>
<path fill-rule="evenodd" clip-rule="evenodd" d="M33.4912 47.836L27.0337 47.668L27.0408 47.3938L33.4984 47.5618L33.4912 47.836Z" fill="black"/>
<path fill-rule="evenodd" clip-rule="evenodd" d="M91.2158 19.4589C91.1258 18.3467 92.0036 17.395 93.1193 17.395H97.9678C100.016 17.395 101.999 18.1167 103.568 19.4331L114.077 28.2493C114.077 28.2493 114.077 28.2493 114.077 28.2493C116.498 30.2797 117.835 33.275 117.705 36.3843L117.224 47.9047H115.091L109.002 47.6985L109.016 47.2873L115.098 47.4933H116.829L117.294 36.3671C117.418 33.3878 116.138 30.5144 113.813 28.5645L103.304 19.7483C101.809 18.494 99.9195 17.8064 97.9678 17.8064H93.1193C92.2439 17.8064 91.5552 18.553 91.6259 19.4257C91.8105 21.7094 92.2659 25.8035 93.3376 29.8826C94.4119 33.9721 96.0945 38.0011 98.705 40.1996L98.4399 40.5143C95.7255 38.2282 94.0173 34.0892 92.9397 29.9872C91.8593 25.8748 91.4014 21.7539 91.2158 19.4589Z" fill="black"/>
<path fill-rule="evenodd" clip-rule="evenodd" d="M90.73 46.1023H46.5718V45.6909H90.849L94.1903 47.8009L93.9707 48.1487L90.73 46.1023Z" fill="black"/>
<path fill-rule="evenodd" clip-rule="evenodd" d="M27.0376 45.7595H33.5069V46.0338H27.0376V45.7595Z" fill="black"/>
<path fill-rule="evenodd" clip-rule="evenodd" d="M101.066 34.3218C102.339 34.3218 103.61 34.4078 104.871 34.5789L108.146 35.0237L108.073 35.5672L104.797 35.1225C103.56 34.9547 102.314 34.8704 101.067 34.8703C101.067 34.8703 101.066 34.8703 101.066 34.8703L31.9911 35.22L31.9883 34.6715L101.066 34.3218Z" fill="black"/>
<path fill-rule="evenodd" clip-rule="evenodd" d="M35.1196 34.3261C35.1196 34.1343 35.2751 33.9792 35.4665 33.9792H61.3567V35.6165H35.4665C35.275 35.6165 35.1196 35.4612 35.1196 35.2697V34.3261ZM35.531 34.3907V35.2051H60.9453V34.3907H35.531Z" fill="black"/>
<path fill-rule="evenodd" clip-rule="evenodd" d="M61.1512 34.7532L37.7865 34.8396L37.7861 34.7373L61.1508 34.6509L61.1512 34.7532Z" fill="black"/>
<path fill-rule="evenodd" clip-rule="evenodd" d="M93.9539 15.0124L93.9537 15.0125L93.9403 15.0143H37.168V14.6029H93.914C93.9148 14.6028 93.9156 14.6027 93.9164 14.6026C93.9266 14.6014 93.9412 14.5999 93.96 14.5981C93.9977 14.5945 94.0526 14.5902 94.1237 14.5865C94.2659 14.5792 94.4732 14.5748 94.739 14.5855C95.2705 14.607 96.0357 14.6891 96.9806 14.9304C98.8589 15.41 101.442 16.5172 104.309 19.0176H105.472V19.429H104.154L104.096 19.3779C101.255 16.8845 98.7075 15.796 96.8788 15.329C95.9639 15.0954 95.2275 15.017 94.7224 14.9966C94.4698 14.9864 94.2751 14.9907 94.1448 14.9974C94.0796 15.0007 94.0306 15.0047 93.9985 15.0077C93.9824 15.0092 93.9706 15.0105 93.9632 15.0113C93.9594 15.0118 93.9568 15.0121 93.9552 15.0123L93.9539 15.0124Z" fill="black"/>
<path fill-rule="evenodd" clip-rule="evenodd" d="M90.584 50.8814V14.8086H90.9954V50.8814H90.584Z" fill="black"/>
<path d="M88.0549 34.4565V31.9417C88.0549 31.8856 88.1005 31.8402 88.1564 31.8402H88.9529C88.8289 31.7524 88.678 31.7004 88.5145 31.7004H86.8602C86.4923 31.7004 86.1553 31.9061 85.9873 32.2334L85.3854 33.4051C85.2258 33.716 85.2834 34.094 85.5283 34.3432L85.5871 34.403C85.7299 34.5482 85.9252 34.63 86.1288 34.63H88.6837C88.7844 34.63 88.878 34.6024 88.961 34.558H88.1566C88.1005 34.558 88.0549 34.5124 88.0549 34.4565ZM87.3609 33.9347C87.3609 34.2225 87.1238 34.4559 86.8313 34.4559L86.268 34.4513C86.0856 34.4513 85.9109 34.3791 85.783 34.2512L85.7303 34.1985C85.5108 33.979 85.4593 33.6457 85.6024 33.3719L86.1413 32.3394C86.2919 32.0511 86.4078 31.8953 86.7424 31.8795C86.7424 31.8795 86.7465 31.8769 86.7787 31.8816C87.1081 31.9286 87.361 32.2076 87.361 32.5447L87.3609 33.9347Z" fill="black"/>
<path d="M89.104 31.9805V34.4544C89.2097 34.3475 89.2753 34.2007 89.2753 34.0385V32.461C89.2753 32.2787 89.2108 32.1114 89.104 31.9805Z" fill="black"/>
<path fill-rule="evenodd" clip-rule="evenodd" d="M96.7087 31.8018C96.3937 31.7645 96.1164 32.0107 96.1161 32.3283V33.0968C96.1161 33.5369 96.473 33.8936 96.9129 33.8936H99.6706C99.8255 33.8936 99.9336 33.7401 99.8813 33.5943L99.5734 32.7357C99.4371 32.355 99.097 32.0842 98.6952 32.0367L96.7087 31.8018ZM96.7249 31.6656C96.3282 31.6187 95.9793 31.9286 95.979 32.3283L95.979 33.0968C95.979 33.6126 96.3973 34.0307 96.9129 34.0307H99.6706C99.9203 34.0307 100.095 33.7832 100.01 33.5481L99.7025 32.6895C99.5486 32.2597 99.1647 31.9542 98.7113 31.9005L96.7249 31.6656C96.7249 31.6656 96.7249 31.6656 96.7249 31.6656Z" fill="black"/>
<path d="M96.0478 32.846L99.7245 32.9533L99.6527 32.7622C99.4765 32.2935 99.0504 31.9645 98.5525 31.9127L96.8161 31.7321C96.3513 31.6837 95.9611 32.0774 96.0135 32.5416L96.0478 32.846Z" fill="black"/>
<path fill-rule="evenodd" clip-rule="evenodd" d="M92.0811 35.8594H94.6167V39.7696H92.0811V35.8594ZM92.4925 36.2708V39.3582H94.2053V36.2708H92.4925Z" fill="black"/>
<path fill-rule="evenodd" clip-rule="evenodd" d="M117.211 29.3843L115.954 30.6177L115.666 30.324L116.923 29.0906L117.211 29.3843Z" fill="black"/>
<path fill-rule="evenodd" clip-rule="evenodd" d="M117.262 37.1174H118.49L119.38 37.9211C119.709 38.2184 119.897 38.6365 119.897 39.0762C119.897 39.0762 119.897 39.0762 119.897 39.0762L119.897 42.5407H117.036L117.262 37.1174ZM117.657 37.5288L117.465 42.1293H119.486L119.485 39.0762C119.485 38.755 119.348 38.4471 119.104 38.2263L118.332 37.5288H117.657Z" fill="black"/>
<path fill-rule="evenodd" clip-rule="evenodd" d="M117.057 42.1294H119.998C120.599 42.1294 121.087 42.6168 121.087 43.2184V44.5599H116.913L117.057 42.1294ZM117.444 42.5408L117.349 44.1485H120.675V43.2184C120.675 42.8441 120.372 42.5408 119.998 42.5408H117.444Z" fill="black"/>
<path fill-rule="evenodd" clip-rule="evenodd" d="M121.675 44.5599H120.881V44.1484H121.675V44.5599Z" fill="black"/>
<path fill-rule="evenodd" clip-rule="evenodd" d="M39.8815 40.7292C37.1539 40.7292 34.9428 42.9403 34.9428 45.6679C34.9428 48.3955 37.1539 50.6067 39.8815 50.6067C42.6091 50.6067 44.8203 48.3955 44.8203 45.6679C44.8203 42.9403 42.6091 40.7292 39.8815 40.7292ZM34.8057 45.6679C34.8057 42.8646 37.0782 40.592 39.8815 40.592C42.6849 40.592 44.9574 42.8646 44.9574 45.6679C44.9574 48.4712 42.6849 50.7438 39.8815 50.7438C37.0782 50.7438 34.8057 48.4712 34.8057 45.6679Z" fill="black"/>
<path fill-rule="evenodd" clip-rule="evenodd" d="M39.8815 41.3781C37.5123 41.3781 35.5917 43.2987 35.5917 45.6679C35.5917 48.0371 37.5123 49.9577 39.8815 49.9577C42.2507 49.9577 44.1713 48.0371 44.1713 45.6679C44.1713 43.2987 42.2507 41.3781 39.8815 41.3781ZM35.4546 45.6679C35.4546 43.223 37.4366 41.241 39.8815 41.241C42.3265 41.241 44.3085 43.223 44.3085 45.6679C44.3085 48.1128 42.3265 50.0948 39.8815 50.0948C37.4366 50.0948 35.4546 48.1128 35.4546 45.6679Z" fill="black"/>
<path fill-rule="evenodd" clip-rule="evenodd" d="M39.8815 41.8649C37.7812 41.8649 36.0785 43.5676 36.0785 45.6679C36.0785 47.7682 37.7812 49.4708 39.8815 49.4708C41.9818 49.4708 43.6845 47.7682 43.6845 45.6679C43.6845 43.5676 41.9818 41.8649 39.8815 41.8649ZM35.9414 45.6679C35.9414 43.4918 37.7055 41.7278 39.8815 41.7278C42.0576 41.7278 43.8216 43.4918 43.8216 45.6679C43.8216 47.8439 42.0576 49.608 39.8815 49.608C37.7055 49.608 35.9414 47.8439 35.9414 45.6679Z" fill="black"/>
<path d="M38.6511 43.9596L38.6515 41.9961C38.3765 42.0722 38.0215 42.2944 37.5874 42.6076C37.188 42.8959 36.9256 43.2122 36.7671 43.437C37.395 43.611 38.0231 43.7853 38.6511 43.9596Z" fill="black"/>
<path d="M40.427 41.7983H39.2461V44.0949H40.427V41.7983Z" fill="black"/>
<path d="M41.0233 43.8467L42.8941 43.2363C42.7307 43.034 42.5015 42.7915 42.1923 42.5614C41.7204 42.2105 41.2593 42.0349 40.9424 41.9436C40.9693 42.578 40.9963 43.2123 41.0233 43.8467Z" fill="black"/>
<path d="M41.9402 45.574L43.6851 44.812L43.212 43.7288L41.4672 44.4908L41.9402 45.574Z" fill="black"/>
<path d="M41.752 46.2223C42.1891 46.7496 42.6263 47.2769 43.0635 47.8043C43.2166 47.5916 43.4226 47.254 43.5593 46.7992C43.6989 46.3349 43.7112 45.932 43.699 45.668C43.05 45.8527 42.401 46.0376 41.752 46.2223Z" fill="black"/>
<path d="M38.7144 49.3604C38.9757 49.4366 39.3398 49.5133 39.778 49.517C40.2692 49.521 40.6728 49.4315 40.9501 49.3469C40.594 48.8711 40.2378 48.3952 39.8817 47.9192L38.7144 49.3604Z" fill="black"/>
<path d="M36.0369 45.8213C36.0267 46.0591 36.0395 46.4247 36.1721 46.8443C36.3184 47.3076 36.5477 47.6371 36.7045 47.8294C37.0346 47.3352 37.3647 46.8406 37.6948 46.3464C37.142 46.1713 36.5896 45.9961 36.0369 45.8213Z" fill="black"/>
<path d="M40.5527 47.5774L41.7775 49.0208C41.9134 48.9535 42.0691 48.8636 42.2317 48.7445C42.4296 48.5995 42.5843 48.4502 42.7013 48.3206C42.2837 47.8193 41.8662 47.3181 41.4486 46.8171L40.5527 47.5774Z" fill="black"/>
<path d="M38.0593 49.1215L39.2686 47.5786L38.3757 46.8788L37.1664 48.4217L38.0593 49.1215Z" fill="black"/>
<path d="M36.0376 45.2028L37.9298 45.7176L38.2724 44.5998L36.4064 44.05C36.3245 44.1887 36.2326 44.3723 36.1598 44.5978C36.0846 44.8304 36.0517 45.0389 36.0376 45.2028Z" fill="black"/>
<path fill-rule="evenodd" clip-rule="evenodd" d="M39.9086 44.9458C39.4898 44.9458 39.1503 45.2853 39.1503 45.7041C39.1503 46.1229 39.4898 46.4624 39.9086 46.4624C40.3274 46.4624 40.667 46.1229 40.667 45.7041C40.667 45.2853 40.3274 44.9458 39.9086 44.9458ZM39.1074 45.7041C39.1074 45.2616 39.4661 44.9028 39.9086 44.9028C40.3512 44.9028 40.7099 45.2616 40.7099 45.7041C40.7099 46.1466 40.3511 46.5053 39.9086 46.5053C39.4661 46.5053 39.1074 46.1466 39.1074 45.7041Z" fill="black"/>
<path fill-rule="evenodd" clip-rule="evenodd" d="M38.8311 45.1306C38.6787 45.1306 38.5551 45.2541 38.5551 45.4066C38.5551 45.559 38.6787 45.6825 38.8311 45.6825C38.9835 45.6825 39.1071 45.559 39.1071 45.4066C39.1071 45.2541 38.9835 45.1306 38.8311 45.1306ZM38.5122 45.4066C38.5122 45.2304 38.655 45.0876 38.8311 45.0876C39.0073 45.0876 39.15 45.2304 39.15 45.4066C39.15 45.5827 39.0073 45.7255 38.8311 45.7255C38.655 45.7255 38.5122 45.5827 38.5122 45.4066Z" fill="black"/>
<path fill-rule="evenodd" clip-rule="evenodd" d="M39.8814 44.4318C39.729 44.4318 39.6054 44.5554 39.6054 44.7078C39.6054 44.8602 39.729 44.9838 39.8814 44.9838C40.0338 44.9838 40.1574 44.8602 40.1574 44.7078C40.1574 44.5554 40.0338 44.4318 39.8814 44.4318ZM39.5625 44.7078C39.5625 44.5317 39.7053 44.3889 39.8814 44.3889C40.0575 44.3889 40.2003 44.5317 40.2003 44.7078C40.2003 44.884 40.0575 45.0267 39.8814 45.0267C39.7053 45.0267 39.5625 44.884 39.5625 44.7078Z" fill="black"/>
<path fill-rule="evenodd" clip-rule="evenodd" d="M40.8731 45.0268C40.7207 45.0268 40.5971 45.1504 40.5971 45.3028C40.5971 45.4552 40.7207 45.5788 40.8731 45.5788C41.0255 45.5788 41.1491 45.4552 41.1491 45.3028C41.1491 45.1504 41.0255 45.0268 40.8731 45.0268ZM40.5542 45.3028C40.5542 45.1267 40.697 44.9839 40.8731 44.9839C41.0492 44.9839 41.192 45.1267 41.192 45.3028C41.192 45.4789 41.0492 45.6217 40.8731 45.6217C40.697 45.6217 40.5542 45.4789 40.5542 45.3028Z" fill="black"/>
<path fill-rule="evenodd" clip-rule="evenodd" d="M40.4717 46.2978C40.3193 46.2978 40.1958 46.4214 40.1958 46.5738C40.1958 46.7262 40.3193 46.8498 40.4717 46.8498C40.6242 46.8498 40.7477 46.7262 40.7477 46.5738C40.7477 46.4214 40.6242 46.2978 40.4717 46.2978ZM40.1528 46.5738C40.1528 46.3977 40.2956 46.2549 40.4717 46.2549C40.6479 46.2549 40.7907 46.3977 40.7907 46.5738C40.7907 46.7499 40.6479 46.8927 40.4717 46.8927C40.2956 46.8927 40.1528 46.7499 40.1528 46.5738Z" fill="black"/>
<path fill-rule="evenodd" clip-rule="evenodd" d="M39.3399 46.2978C39.1875 46.2978 39.0639 46.4214 39.0639 46.5738C39.0639 46.7262 39.1875 46.8498 39.3399 46.8498C39.4923 46.8498 39.6159 46.7262 39.6159 46.5738C39.6159 46.4214 39.4923 46.2978 39.3399 46.2978ZM39.021 46.5738C39.021 46.3977 39.1638 46.2549 39.3399 46.2549C39.516 46.2549 39.6588 46.3977 39.6588 46.5738C39.6588 46.7499 39.516 46.8927 39.3399 46.8927C39.1638 46.8927 39.021 46.7499 39.021 46.5738Z" fill="black"/>
<path fill-rule="evenodd" clip-rule="evenodd" d="M102.378 40.6618C99.6505 40.6618 97.4394 42.8729 97.4394 45.6005C97.4394 48.3281 99.6505 50.5393 102.378 50.5393C105.106 50.5393 107.317 48.3281 107.317 45.6005C107.317 42.8729 105.106 40.6618 102.378 40.6618ZM97.3022 45.6005C97.3022 42.7972 99.5748 40.5247 102.378 40.5247C105.181 40.5247 107.454 42.7972 107.454 45.6005C107.454 48.4039 105.181 50.6764 102.378 50.6764C99.5748 50.6764 97.3022 48.4039 97.3022 45.6005Z" fill="black"/>
<path fill-rule="evenodd" clip-rule="evenodd" d="M102.378 41.3107C100.009 41.3107 98.0883 43.2313 98.0883 45.6005C98.0883 47.9697 100.009 49.8903 102.378 49.8903C104.747 49.8903 106.668 47.9697 106.668 45.6005C106.668 43.2313 104.747 41.3107 102.378 41.3107ZM97.9512 45.6005C97.9512 43.1556 99.9332 41.1736 102.378 41.1736C104.823 41.1736 106.805 43.1556 106.805 45.6005C106.805 48.0454 104.823 50.0275 102.378 50.0275C99.9332 50.0275 97.9512 48.0454 97.9512 45.6005Z" fill="black"/>
<path fill-rule="evenodd" clip-rule="evenodd" d="M102.378 41.7975C100.278 41.7975 98.5751 43.5002 98.5751 45.6005C98.5751 47.7008 100.278 49.4035 102.378 49.4035C104.478 49.4035 106.181 47.7008 106.181 45.6005C106.181 43.5002 104.478 41.7975 102.378 41.7975ZM98.438 45.6005C98.438 43.4244 100.202 41.6604 102.378 41.6604C104.554 41.6604 106.318 43.4244 106.318 45.6005C106.318 47.7766 104.554 49.5406 102.378 49.5406C100.202 49.5406 98.438 47.7766 98.438 45.6005Z" fill="black"/>
<path d="M101.148 43.8921L101.148 41.9285C100.873 42.0046 100.518 42.2267 100.084 42.54C99.6846 42.8282 99.4222 43.1446 99.2637 43.3694C99.8916 43.5435 100.52 43.7177 101.148 43.8921Z" fill="black"/>
<path d="M102.924 41.7307H101.743V44.0272H102.924V41.7307Z" fill="black"/>
<path d="M103.52 43.779L105.391 43.1686C105.227 42.9664 104.998 42.724 104.689 42.4938C104.217 42.1428 103.756 41.9673 103.439 41.876C103.466 42.5104 103.493 43.1446 103.52 43.779Z" fill="black"/>
<path d="M104.44 45.4971L106.185 44.7351L105.712 43.6519L103.967 44.4139L104.44 45.4971Z" fill="black"/>
<path d="M104.249 46.1547C104.686 46.682 105.123 47.2094 105.56 47.7367C105.713 47.5241 105.919 47.1865 106.056 46.7316C106.195 46.2672 106.208 45.8643 106.196 45.6003C105.547 45.7849 104.898 45.9699 104.249 46.1547Z" fill="black"/>
<path d="M101.21 49.2928C101.472 49.3691 101.836 49.4459 102.274 49.4495C102.765 49.4534 103.169 49.364 103.446 49.2794C103.09 48.8035 102.734 48.3277 102.378 47.8518L101.21 49.2928Z" fill="black"/>
<path d="M98.5335 45.7537C98.5233 45.9915 98.5361 46.3571 98.6686 46.7767C98.8149 47.24 99.0442 47.5696 99.2009 47.7618C99.531 47.2675 99.8611 46.773 100.191 46.2788C99.6385 46.1036 99.086 45.9285 98.5335 45.7537Z" fill="black"/>
<path d="M103.049 47.51L104.274 48.9536C104.41 48.8861 104.566 48.7964 104.728 48.6771C104.926 48.5321 105.081 48.3828 105.198 48.2532L103.945 46.7498L103.049 47.51Z" fill="black"/>
<path d="M100.554 49.0566L101.764 47.5137L100.871 46.8138L99.6614 48.3567L100.554 49.0566Z" fill="black"/>
<path d="M98.5342 45.1352L100.426 45.65L100.769 44.5322L98.9031 43.9824C98.8212 44.1211 98.7293 44.3048 98.6565 44.5301C98.5812 44.7627 98.5484 44.9713 98.5342 45.1352Z" fill="black"/>
<path fill-rule="evenodd" clip-rule="evenodd" d="M102.405 44.9252C102.012 44.9252 101.694 45.2436 101.694 45.6364C101.694 46.0292 102.012 46.3476 102.405 46.3476C102.798 46.3476 103.116 46.0292 103.116 45.6364C103.116 45.2436 102.798 44.9252 102.405 44.9252ZM101.557 45.6364C101.557 45.1679 101.936 44.7881 102.405 44.7881C102.873 44.7881 103.253 45.1679 103.253 45.6364C103.253 46.1049 102.874 46.4848 102.405 46.4848C101.936 46.4848 101.557 46.1049 101.557 45.6364Z" fill="black"/>
<path fill-rule="evenodd" clip-rule="evenodd" d="M101.328 45.11C101.202 45.11 101.099 45.2125 101.099 45.3389C101.099 45.4653 101.202 45.5678 101.328 45.5678C101.454 45.5678 101.557 45.4653 101.557 45.3389C101.557 45.2125 101.454 45.11 101.328 45.11ZM100.962 45.3389C100.962 45.1368 101.126 44.9729 101.328 44.9729C101.53 44.9729 101.694 45.1368 101.694 45.3389C101.694 45.5411 101.53 45.7049 101.328 45.7049C101.126 45.7049 100.962 45.5411 100.962 45.3389Z" fill="black"/>
<path fill-rule="evenodd" clip-rule="evenodd" d="M102.378 44.4116C102.251 44.4116 102.149 44.514 102.149 44.6404C102.149 44.7668 102.251 44.8693 102.378 44.8693C102.504 44.8693 102.607 44.7668 102.607 44.6404C102.607 44.514 102.504 44.4116 102.378 44.4116ZM102.012 44.6404C102.012 44.4383 102.176 44.2744 102.378 44.2744C102.58 44.2744 102.744 44.4383 102.744 44.6404C102.744 44.8426 102.58 45.0065 102.378 45.0065C102.176 45.0065 102.012 44.8426 102.012 44.6404Z" fill="black"/>
<path fill-rule="evenodd" clip-rule="evenodd" d="M103.369 45.0065C103.243 45.0065 103.141 45.109 103.141 45.2354C103.141 45.3618 103.243 45.4643 103.369 45.4643C103.496 45.4643 103.598 45.3618 103.598 45.2354C103.598 45.109 103.496 45.0065 103.369 45.0065ZM103.003 45.2354C103.003 45.0333 103.167 44.8694 103.369 44.8694C103.572 44.8694 103.735 45.0333 103.735 45.2354C103.735 45.4376 103.572 45.6014 103.369 45.6014C103.167 45.6014 103.003 45.4376 103.003 45.2354Z" fill="black"/>
<path fill-rule="evenodd" clip-rule="evenodd" d="M102.968 46.2773C102.842 46.2773 102.739 46.3798 102.739 46.5062C102.739 46.6326 102.842 46.735 102.968 46.735C103.094 46.735 103.197 46.6326 103.197 46.5062C103.197 46.3797 103.094 46.2773 102.968 46.2773ZM102.602 46.5062C102.602 46.304 102.766 46.1401 102.968 46.1401C103.17 46.1401 103.334 46.304 103.334 46.5062C103.334 46.7083 103.17 46.8722 102.968 46.8722C102.766 46.8722 102.602 46.7083 102.602 46.5062Z" fill="black"/>
<path fill-rule="evenodd" clip-rule="evenodd" d="M101.837 46.2773C101.71 46.2773 101.608 46.3797 101.608 46.5062C101.608 46.6326 101.71 46.735 101.837 46.735C101.963 46.735 102.066 46.6326 102.066 46.5062C102.066 46.3798 101.963 46.2773 101.837 46.2773ZM101.471 46.5062C101.471 46.304 101.635 46.1401 101.837 46.1401C102.039 46.1401 102.203 46.304 102.203 46.5062C102.203 46.7083 102.039 46.8722 101.837 46.8722C101.635 46.8722 101.471 46.7083 101.471 46.5062Z" fill="black"/>
<path fill-rule="evenodd" clip-rule="evenodd" d="M60.9453 50.8815V14.7847H61.3567V50.8815H60.9453Z" fill="black"/>
<path d="M7.81738 18.1087C7.82163 20.3668 8.52324 22.6028 9.83907 24.4411C11.1243 26.2369 12.9284 27.6171 15.0018 28.3792C17.1463 29.1673 19.544 29.2486 21.7406 28.6241C23.8563 28.0226 25.7764 26.7679 27.1739 25.0691C28.6013 23.334 29.4684 21.1962 29.6448 18.9555C29.8232 16.689 29.2767 14.3824 28.0948 12.4398C26.9603 10.5749 25.2627 9.05729 23.2722 8.15753C21.1731 7.20868 18.8087 6.94332 16.5503 7.39999C14.3852 7.83787 12.3723 8.95869 10.8473 10.5553C9.32138 12.1528 8.2901 14.21 7.95274 16.3955C7.86524 16.9627 7.81848 17.5346 7.81738 18.1087C7.8167 18.4796 8.39309 18.4802 8.39377 18.1087C8.39775 15.9572 9.06836 13.8523 10.3148 12.0979C11.5153 10.408 13.2421 9.08815 15.1911 8.38079C17.2364 7.63833 19.4938 7.55372 21.5874 8.14903C23.6023 8.72186 25.4068 9.91495 26.7424 11.5267C28.0882 13.151 28.9141 15.1983 29.0714 17.3017C29.2329 19.4615 28.7236 21.635 27.5972 23.4866C26.5169 25.2623 24.9061 26.6836 23.0161 27.5462C21.0528 28.4424 18.7973 28.689 16.6843 28.2577C14.6165 27.8355 12.7124 26.7804 11.2549 25.2545C9.79724 23.7286 8.83728 21.7724 8.51158 19.6881C8.42998 19.166 8.39473 18.6369 8.39377 18.1087C8.39309 17.7378 7.8167 17.7371 7.81738 18.1087Z" fill="black"/>
<path d="M12.5249 16.9839C12.5249 17.8099 13.1945 18.4795 14.0205 18.4795C14.8465 18.4795 15.5161 17.8099 15.5161 16.9839C15.5161 16.1579 14.8465 15.4883 14.0205 15.4883C13.1945 15.4883 12.5249 16.1579 12.5249 16.9839Z" fill="black"/>
<path d="M22.1309 16.9839C22.1309 17.8099 22.8005 18.4795 23.6265 18.4795C24.4525 18.4795 25.1221 17.8099 25.1221 16.9839C25.1221 16.1579 24.4525 15.4883 23.6265 15.4883C22.8005 15.4883 22.1309 16.1579 22.1309 16.9839Z" fill="black"/>
<path d="M18.5618 24.4703H19.0595C20.2157 24.4703 21.153 23.533 21.153 22.3768V18.6435C21.153 17.4871 20.2157 16.5498 19.0595 16.5498H18.5618C17.4056 16.5498 16.4683 17.4871 16.4683 18.6435V22.3768C16.4681 23.533 17.4055 24.4703 18.5618 24.4703Z" fill="black"/>
<path d="M10.438 10.5469C8.85532 9.9316 6.95007 10.2995 5.79908 11.5781C4.64698 12.8578 4.48996 14.7569 5.35694 16.2338C5.85366 17.0798 6.62972 17.7084 7.53551 18.071C7.68005 18.1289 7.85202 18.0078 7.89001 17.8697C7.93513 17.7054 7.83379 17.5733 7.68869 17.5152C6.3335 16.9727 5.36133 15.6331 5.36888 14.1664C5.37642 12.6933 6.39028 11.4054 7.79223 10.983C8.61588 10.7349 9.48602 10.7921 10.2848 11.1028C10.4299 11.1591 10.6011 11.0406 10.6393 10.9014C10.6841 10.7384 10.5837 10.6036 10.438 10.5469Z" fill="black"/>
<path d="M12.4401 9.33051C11.6081 7.39138 9.94665 5.7445 7.81512 5.36682C5.88615 5.02494 3.97609 5.74697 2.58264 7.08625C1.04313 8.56583 0.190274 10.6562 0.027492 12.7657C-0.13337 14.8506 0.409968 17.0135 1.70318 18.6756C2.94962 20.2772 4.9185 21.2523 6.96679 21.0031C7.31265 20.961 7.65207 20.8909 7.98531 20.7889C8.33899 20.6807 8.18814 20.1242 7.83199 20.2332C6.77096 20.5581 5.65713 20.5394 4.61858 20.1637C3.8284 19.8779 3.11391 19.3758 2.53286 18.7613C1.22223 17.3749 0.592363 15.4397 0.576729 13.5541C0.560272 11.5724 1.197 9.54266 2.49227 8.02304C3.63462 6.68265 5.2715 5.78139 7.04606 5.85709C9.01851 5.94129 10.6699 7.23312 11.5998 8.91772C11.726 9.14633 11.8394 9.38152 11.9424 9.62138C12.0037 9.76455 12.2142 9.7965 12.3367 9.72478C12.4848 9.63824 12.5018 9.47409 12.4401 9.33051Z" fill="black"/>
<path d="M27.1712 11.2946C28.5567 10.7559 30.1808 11.0272 31.2107 12.1355C32.2137 13.2148 32.3442 14.8411 31.6204 16.102C31.2048 16.8258 30.5423 17.3968 29.7672 17.707C29.6228 17.7649 29.5215 17.8994 29.566 18.0615C29.6037 18.1988 29.7752 18.321 29.9205 18.2629C30.7342 17.9372 31.4323 17.4036 31.9347 16.6822C32.4014 16.0123 32.6634 15.1944 32.6636 14.3772C32.6637 12.6501 31.4873 11.1401 29.8535 10.6303C28.9312 10.3426 27.9164 10.3895 27.018 10.7388C26.8731 10.7952 26.7724 10.9323 26.8167 11.0933C26.8547 11.2318 27.0253 11.3515 27.1712 11.2946Z" fill="black"/>
<path d="M25.5135 9.81304C26.3126 7.95084 27.8817 6.37623 29.9547 6.08824C31.7605 5.83742 33.504 6.64351 34.7331 7.95647C36.1444 9.46402 36.8622 11.5456 36.8792 13.5936C36.8954 15.5421 36.2613 17.5531 34.8977 18.9796C34.2918 19.6134 33.5461 20.1193 32.7188 20.3966C31.7873 20.7088 30.7756 20.726 29.8002 20.611C29.5754 20.5845 29.3512 20.542 29.1345 20.4762C28.7788 20.3682 28.6267 20.9243 28.9812 21.032C29.5133 21.1935 30.0899 21.2315 30.643 21.2426C31.1732 21.2531 31.7072 21.227 32.2283 21.1235C33.1733 20.9359 34.0472 20.4865 34.7854 19.8729C36.4002 18.5305 37.2635 16.4493 37.4275 14.389C37.6026 12.1889 36.9895 9.89244 35.6369 8.13653C34.4314 6.57165 32.6086 5.45179 30.5916 5.4677C29.5388 5.47606 28.4975 5.79244 27.6124 6.36128C26.6778 6.96181 25.9201 7.8144 25.3792 8.7808C25.2447 9.02121 25.1244 9.26901 25.0158 9.52217C24.9545 9.66507 24.9733 9.83114 25.1192 9.91644C25.2406 9.98748 25.4518 9.95689 25.5135 9.81304Z" fill="black"/>
<path d="M23.3788 27.8486C23.4896 29.5756 23.5949 31.3024 23.741 33.0238C23.8456 34.0859 23.8988 35.1692 24.1488 36.1996C24.6096 37.6792 24.7075 39.2727 24.3818 40.7981C23.7265 43.8376 21.2233 45.1145 18.2948 45.1037C13.9862 45.1565 11.8922 41.9923 12.138 37.9406C12.1828 37.063 12.3939 36.2006 12.5999 35.3522C13.0157 33.6708 13.5048 32.0116 13.9223 30.333C14.1094 29.4966 14.3634 28.6501 14.313 27.7854C14.4292 28.648 14.2275 29.5199 14.0873 30.3688C13.7624 32.0689 13.338 33.7484 12.9849 35.4403C12.8073 36.277 12.6234 37.1079 12.6009 37.9636C12.4648 41.6944 14.2962 44.5902 18.2931 44.5295C23.0535 44.5546 24.6951 41.2557 23.9267 36.9221C23.8367 36.4998 23.6893 36.0695 23.6536 35.6422C23.3837 33.0489 23.3781 30.4497 23.3788 27.8486Z" fill="black"/>
<path d="M28.812 39.2133C29.4097 39.0811 29.9828 38.6848 30.4304 38.2867C31.6408 37.2099 32.2395 35.6023 32.4575 34.0323C32.5795 33.1544 32.5961 32.2909 32.3403 31.4339C32.1225 30.7045 31.7472 30.0392 31.2809 29.441C30.425 28.3431 29.2701 27.4915 28.0623 26.8162C27.6164 26.5668 27.1576 26.3401 26.6887 26.1371C26.4305 26.0253 26.1669 25.904 25.8973 25.8207C25.886 25.8173 25.8749 25.8129 25.8638 25.8092C25.5115 25.6906 25.3603 26.2471 25.7106 26.3649C25.876 26.4207 26.0387 26.4857 26.2002 26.5517C26.2381 26.5672 26.2758 26.5829 26.3135 26.5986C26.3718 26.6226 26.249 26.5707 26.3231 26.6027C26.3479 26.6134 26.3729 26.6239 26.3977 26.6348C26.493 26.6761 26.5879 26.7183 26.6824 26.7615C26.9118 26.8667 27.1387 26.9773 27.3626 27.0936C28.5312 27.7001 29.5793 28.407 30.4641 29.3663C30.7119 29.6349 30.8921 29.8581 31.0879 30.1482C31.2842 30.4387 31.4551 30.7452 31.5967 31.066C31.6354 31.1535 31.5869 31.0411 31.6085 31.093C31.6162 31.1114 31.6236 31.1297 31.631 31.1483C31.6477 31.1898 31.6639 31.2316 31.6796 31.2736C31.711 31.3581 31.74 31.4434 31.7669 31.5294C31.8212 31.7037 31.8659 31.881 31.9005 32.0602C31.966 32.3998 31.9907 32.7744 31.9718 33.1568C31.925 34.1027 31.7248 35.0644 31.3654 35.9415C31.2399 36.2477 31.06 36.5918 30.8683 36.889C30.8226 36.9596 30.7754 37.0291 30.7266 37.0977C30.7056 37.1272 30.6843 37.1565 30.6628 37.1857C30.6521 37.2 30.6414 37.2143 30.6306 37.2285C30.59 37.2826 30.649 37.206 30.6111 37.2536C30.5177 37.371 30.4201 37.485 30.317 37.5937C30.223 37.693 30.125 37.7883 30.0228 37.8792C29.978 37.9192 29.9323 37.9581 29.8859 37.9964C29.8622 38.0158 29.8382 38.0348 29.8142 38.0541C29.8026 38.0633 29.771 38.0871 29.8253 38.0457C29.8097 38.0575 29.7941 38.0695 29.7784 38.0812C29.6128 38.2048 29.4386 38.317 29.2566 38.4149C29.1861 38.4527 29.1144 38.4887 29.0416 38.5219C29.0059 38.5382 28.9153 38.5741 29.0076 38.538C28.977 38.55 28.9467 38.5632 28.916 38.5749C28.8416 38.6035 28.7662 38.6265 28.6902 38.6498C28.6799 38.653 28.6693 38.6554 28.6588 38.6578C28.2968 38.7377 28.4501 39.2934 28.812 39.2133Z" fill="black"/>
<path d="M30.6294 37.5452C30.6294 37.5452 30.7026 38.1486 30.2165 38.769L31.5925 38.2239C31.5925 38.2239 31.0845 39.2609 30.3422 40.125C30.3422 40.125 32.2045 39.1944 32.3086 39.2077C32.4129 39.221 32.6213 41.7471 30.8762 42.0793C29.1312 42.4116 24.861 41.5596 30.6294 37.5452Z" fill="black"/>
<path d="M30.9282 41.7075C30.8905 41.7242 31.0208 41.6712 30.972 41.689C30.9487 41.6976 30.9259 41.7075 30.9026 41.7162C30.8215 41.7467 30.7393 41.7738 30.6563 41.7986C30.5314 41.8357 30.4046 41.8674 30.277 41.8935C30.2021 41.9087 30.1269 41.9221 30.0514 41.9335C30.0322 41.9364 30.0128 41.9391 29.9936 41.9419C30.0418 41.9348 30.0397 41.9363 29.9942 41.9415C29.9506 41.9463 29.907 41.9512 29.8634 41.9551C29.6817 41.9711 29.499 41.9752 29.3169 41.966C29.2702 41.9637 29.2238 41.9604 29.1773 41.9564C29.1537 41.9541 29.1301 41.9519 29.1065 41.9491C29.0887 41.9472 28.9872 41.9327 29.0711 41.9454C28.9703 41.9302 28.8702 41.9123 28.7711 41.8887C28.6683 41.8641 28.5667 41.8346 28.4669 41.8001C28.4172 41.7829 28.3683 41.764 28.3195 41.745C28.2724 41.7263 28.3543 41.7617 28.2937 41.7339C28.2656 41.7207 28.2375 41.7082 28.2096 41.6949C28.1058 41.6448 28.0049 41.5889 27.9074 41.5273C27.7904 41.4537 27.7062 41.3911 27.6393 41.3359C27.1785 40.9549 26.8747 40.5061 26.6172 39.9596C26.4082 39.5159 26.244 39.031 26.1524 38.5484C26.1445 38.5067 26.1373 38.4649 26.1309 38.4229C26.1268 38.3967 26.1242 38.37 26.1192 38.3439C26.1173 38.3341 26.1291 38.4253 26.122 38.364C26.1198 38.3459 26.1174 38.3278 26.1153 38.3097C26.0962 38.147 26.0844 37.9835 26.0789 37.8199C26.0718 37.6052 26.0756 37.39 26.0908 37.1758C26.0992 37.0562 26.111 36.9368 26.1266 36.8179C26.1191 36.8756 26.1299 36.7974 26.1327 36.7789C26.1372 36.7485 26.142 36.7182 26.1471 36.6877C26.1582 36.6215 26.1704 36.555 26.1838 36.489C26.4397 35.2289 27.1428 34.1314 28.2196 33.3782C28.3923 33.2574 28.5713 33.1463 28.7545 33.0425C29.0772 32.8595 28.7871 32.3613 28.4636 32.5448C27.1574 33.2852 26.1545 34.4462 25.7352 35.8988C25.4861 36.7615 25.4368 37.6846 25.5742 38.5712C25.6335 38.9538 25.7516 39.329 25.8853 39.6909C26.1284 40.3488 26.4654 40.9796 26.9556 41.4875C27.6435 42.2003 28.5936 42.5646 29.5784 42.5473C30.1017 42.538 30.6433 42.4416 31.1298 42.2436C31.1597 42.2314 31.1896 42.2189 31.2191 42.2059C31.3615 42.1428 31.3948 41.9352 31.3225 41.8116C31.2368 41.6642 31.0711 41.6442 30.9282 41.7075Z" fill="black"/>
<path d="M26.5912 34.8266C26.2135 34.3722 25.836 33.9178 25.4583 33.4633C25.4052 33.3994 25.352 33.3357 25.2989 33.2718C25.2022 33.1553 24.9901 33.1642 24.8914 33.2718C24.7778 33.3955 24.7882 33.5551 24.8914 33.6793C25.269 34.1337 25.6467 34.5881 26.0243 35.0425C26.0775 35.1064 26.1305 35.1703 26.1836 35.2342C26.2804 35.3506 26.4924 35.3417 26.5912 35.2342C26.7047 35.1105 26.6944 34.9507 26.5912 34.8266Z" fill="black"/>
<path d="M25.3264 34.1004C25.3523 34.7593 25.3774 35.4213 25.4443 36.0775C25.4606 36.2366 25.4672 36.407 25.5382 36.5532C25.6064 36.6932 25.8057 36.731 25.9327 36.6566C26.0756 36.5731 26.1042 36.4028 26.0359 36.2624C26.057 36.3056 26.0614 36.3442 26.0509 36.288C26.0466 36.2654 26.0415 36.2429 26.0378 36.2203C26.0358 36.2082 26.0343 36.196 26.0322 36.1839C26.0218 36.1214 26.0395 36.2484 26.0343 36.1987C26.0303 36.1613 26.0255 36.1238 26.0217 36.0864C26.0023 35.8991 25.9889 35.7111 25.9764 35.5232C25.9508 35.1367 25.9311 34.7497 25.9139 34.3627C25.91 34.2754 25.9062 34.1879 25.9028 34.1005C25.8966 33.945 25.7747 33.8123 25.6146 33.8123C25.4632 33.8121 25.3202 33.9442 25.3264 34.1004Z" fill="black"/>
<path d="M26.7177 41.1779C26.7291 41.257 26.7096 41.1142 26.7155 41.161C26.7223 41.2153 26.7295 41.2692 26.7359 41.3236C26.7592 41.5176 26.7795 41.7117 26.7978 41.9062C26.861 42.5817 26.8995 43.2596 26.9153 43.9378C26.9592 45.8289 26.8467 47.7352 26.3571 49.5618C26.0808 50.5926 25.6856 51.5747 25.0486 52.4403C24.9368 52.5922 25.0558 52.82 25.2208 52.8636C25.3248 52.8913 25.4271 52.9266 25.5281 52.9633C25.5757 52.9806 25.6229 52.9986 25.6698 53.0172C25.6942 53.0268 25.7186 53.037 25.7429 53.0469C25.8031 53.0714 25.6812 53.0197 25.7417 53.0463C25.7591 53.0541 25.7765 53.0615 25.7939 53.0692C25.919 53.125 26.0419 53.186 26.1613 53.2532C26.2864 53.3236 26.4058 53.4016 26.5217 53.486C26.5585 53.5129 26.4688 53.443 26.5251 53.4886C26.5367 53.4978 26.5483 53.5072 26.5598 53.5165C26.5884 53.5401 26.6163 53.5643 26.6438 53.589C26.6982 53.6382 26.7503 53.69 26.799 53.745C26.8111 53.7586 26.8814 53.8458 26.8368 53.7874C26.8587 53.8159 26.8795 53.8453 26.8991 53.8753C26.9382 53.9354 26.9719 53.9979 27.0018 54.0628C26.9693 53.992 27.0133 54.0975 27.0186 54.1136C27.0295 54.1478 27.039 54.1825 27.0467 54.2176C27.0497 54.2319 27.052 54.2461 27.055 54.2605C27.0703 54.3303 27.0517 54.2149 27.0556 54.2601C27.059 54.3014 27.0622 54.3424 27.062 54.3837C27.0618 54.4307 27.0589 54.4776 27.053 54.5241C27.0618 54.4555 27.0416 54.5726 27.0365 54.5935C27.024 54.6451 27.0077 54.6953 26.9909 54.7454C26.9708 54.8048 26.9815 54.7762 26.954 54.8342C26.8421 55.0696 26.685 55.2752 26.5092 55.4661C26.2583 55.7386 26.6649 56.1473 26.9168 55.8737C27.2387 55.5242 27.5417 55.1054 27.6159 54.6246C27.6731 54.2527 27.5965 53.8798 27.3849 53.5663C27.0164 53.0207 26.406 52.6903 25.8074 52.4552C25.6657 52.3996 25.5213 52.3472 25.374 52.3081L25.5462 52.7314C26.7354 51.1153 27.1771 49.035 27.3787 47.0763C27.5493 45.4175 27.5343 43.7366 27.3895 42.0765C27.3589 41.7252 27.3236 41.374 27.2735 41.025C27.2513 40.8707 27.0554 40.7861 26.919 40.8235C26.7533 40.8689 26.6955 41.0232 26.7177 41.1779Z" fill="black"/>
<path d="M24.0851 53.9506C24.1362 53.9374 24.1884 53.9275 24.2403 53.9185C24.2649 53.9141 24.2894 53.9101 24.3138 53.9061C24.3275 53.9039 24.3414 53.9026 24.3551 53.9C24.3843 53.8949 24.2727 53.9096 24.3487 53.9011C24.4222 53.8927 24.4957 53.8854 24.5696 53.8809C24.7513 53.8701 24.9286 53.8815 25.1096 53.8941C25.162 53.8976 25.0455 53.8827 25.1184 53.8952C25.1406 53.899 25.1629 53.9024 25.1851 53.9063C25.2364 53.9156 25.2874 53.9266 25.3378 53.9395C25.3826 53.9508 25.4268 53.9637 25.4707 53.9781C25.496 53.9865 25.5206 53.9958 25.5457 54.0047C25.6143 54.0287 25.5302 53.9953 25.5695 54.0135C25.6622 54.057 25.7488 54.1061 25.834 54.163C25.8454 54.1707 25.8564 54.1792 25.8673 54.1874C25.8662 54.1864 25.8252 54.1534 25.8499 54.1741C25.8713 54.1921 25.8928 54.2099 25.9135 54.2287C25.953 54.2649 25.9906 54.3032 26.0257 54.3436C26.0355 54.3549 26.0907 54.4284 26.0497 54.3716C26.0652 54.393 26.0806 54.4145 26.0951 54.4367C26.1275 54.486 26.1568 54.5372 26.1832 54.5899C26.1896 54.6028 26.2281 54.6892 26.2054 54.6342C26.2169 54.662 26.2273 54.6903 26.2373 54.7187C26.2615 54.7877 26.2814 54.858 26.2975 54.9291C26.3347 55.0916 26.3425 55.1762 26.348 55.3502C26.3509 55.4404 26.3498 55.5308 26.3457 55.621C26.3436 55.6662 26.3407 55.7113 26.3372 55.7563C26.3357 55.7763 26.334 55.796 26.3321 55.8161C26.3313 55.8254 26.3159 55.9588 26.3289 55.8594C26.3405 55.7727 26.3226 55.8809 26.3171 55.9026C26.3108 55.9269 26.3036 55.9509 26.2956 55.9746C26.291 55.9888 26.2852 56.0026 26.2807 56.0168C26.2575 56.0876 26.2962 55.9919 26.2796 56.0203C26.2578 56.0574 26.2414 56.098 26.2191 56.135C26.2054 56.1582 26.1896 56.1795 26.1755 56.2022C26.1434 56.2537 26.2103 56.1678 26.1566 56.2261C26.1193 56.2664 26.0813 56.3041 26.0407 56.3414C26.0032 56.3757 26.0401 56.3429 26.0479 56.337C26.0329 56.3483 26.0178 56.3593 26.002 56.3693C25.9758 56.3863 25.9493 56.4027 25.9219 56.4178C25.9089 56.4249 25.8138 56.4683 25.8665 56.447C25.8335 56.4605 25.7996 56.472 25.7654 56.4823C25.7242 56.4946 25.6823 56.5048 25.6401 56.5133C25.6253 56.5161 25.6105 56.519 25.5957 56.5214C25.4994 56.537 25.6206 56.52 25.5626 56.5252C25.3454 56.5449 25.1319 56.5235 24.9193 56.4787C24.5574 56.402 24.4027 56.9576 24.766 57.0345C25.4635 57.1819 26.2439 57.1204 26.6784 56.4858C26.9351 56.111 26.9518 55.6381 26.916 55.1995C26.8653 54.5789 26.6231 53.9958 26.091 53.6421C25.7047 53.3853 25.2194 53.2973 24.7623 53.2983C24.4866 53.299 24.1996 53.3259 23.9319 53.3948C23.5729 53.4871 23.7251 54.0431 24.0851 53.9506Z" fill="black"/>
<path d="M22.9965 54.2036C23.0047 54.2065 23.0128 54.2099 23.021 54.2129C23.0297 54.2164 23.0379 54.2202 23.0467 54.2233C23.0999 54.2434 22.9723 54.1899 23.031 54.2168C23.1119 54.2538 23.1927 54.2903 23.2718 54.3309C23.3835 54.388 23.4928 54.45 23.599 54.5168C23.6584 54.554 23.7167 54.5927 23.7739 54.633C23.8056 54.6553 23.8368 54.6782 23.8678 54.7014C23.8751 54.7069 23.9105 54.735 23.8721 54.7044C23.8895 54.7184 23.9068 54.7323 23.9239 54.7465C24.0473 54.8481 24.1636 54.9588 24.2676 55.0803C24.2828 55.0979 24.2975 55.1158 24.3122 55.1341C24.3418 55.1707 24.2901 55.1039 24.3183 55.1419C24.3434 55.1756 24.3676 55.21 24.3906 55.2452C24.4367 55.3159 24.4777 55.3897 24.514 55.466C24.5172 55.4725 24.5364 55.5161 24.5191 55.4749C24.5264 55.4921 24.5334 55.5101 24.5395 55.5279C24.5523 55.5641 24.5645 55.6001 24.5751 55.637C24.587 55.6791 24.596 55.7213 24.6052 55.7641C24.6077 55.7755 24.6176 55.8376 24.611 55.7896C24.6144 55.8144 24.6163 55.8394 24.618 55.8643C24.6316 56.0578 24.6172 56.1881 24.5587 56.3719C24.5505 56.3977 24.5247 56.4579 24.5522 56.3983C24.5399 56.4248 24.5272 56.4509 24.5127 56.476C24.4984 56.5005 24.4826 56.5234 24.4664 56.5466C24.5077 56.4875 24.4607 56.5504 24.4401 56.571C24.423 56.588 24.4046 56.6035 24.3864 56.6193C24.4327 56.5791 24.4002 56.6101 24.3713 56.6275C24.3475 56.6418 24.3235 56.6549 24.2994 56.6684C24.2274 56.7088 24.3093 56.6692 24.2735 56.6811C24.2171 56.7002 24.1614 56.7183 24.1032 56.7306C24.0761 56.7364 24.0491 56.7409 24.022 56.7456C24.1032 56.7315 23.993 56.7482 23.9708 56.7498C23.8356 56.7604 23.6993 56.7566 23.5643 56.7446C23.5272 56.7415 23.4902 56.7371 23.4531 56.7328C23.4413 56.7315 23.3968 56.725 23.4544 56.7332C23.4375 56.7308 23.4205 56.7286 23.4036 56.7257C23.3259 56.7128 23.2484 56.6994 23.1712 56.6833C23.0102 56.65 22.851 56.6093 22.6931 56.5635C22.3817 56.4732 22.0759 56.3641 21.7747 56.2441C21.7048 56.2164 21.6352 56.1878 21.5658 56.1589C21.5239 56.1415 21.6045 56.1754 21.5631 56.1578C21.5475 56.1512 21.5318 56.1444 21.5161 56.1378C21.4778 56.1213 21.4395 56.1047 21.4013 56.088C21.2781 56.034 21.1557 55.9784 21.034 55.9213C20.8586 55.8388 20.6847 55.7534 20.5128 55.6641C20.4771 55.6457 20.4387 55.6174 20.4004 55.605C20.3512 55.5891 20.4767 55.6804 20.4275 55.6265C20.3958 55.5918 20.3603 55.5604 20.3287 55.5253C20.3027 55.4965 20.278 55.4668 20.253 55.437C20.239 55.4203 20.1975 55.3643 20.2508 55.4354C20.2341 55.4129 20.2172 55.3905 20.2009 55.3678C20.1326 55.2726 20.0705 55.1728 20.0141 55.0699C19.982 55.0112 19.9517 54.9514 19.9235 54.8905C19.9092 54.8601 19.8954 54.8292 19.8822 54.7982C19.9024 54.8457 19.8601 54.7405 19.8522 54.719C19.7208 54.3651 19.6577 54.0253 19.6444 53.6633C19.6256 53.1513 19.7068 52.6461 19.8502 52.1553C19.9934 51.6652 20.0939 51.1756 20.0705 50.6616C20.0106 49.348 19.2876 48.0796 18.3051 47.2243C18.2859 47.2075 18.2666 47.1908 18.2467 47.1749C18.1253 47.0775 17.9576 47.0564 17.8391 47.1749C17.7383 47.2755 17.7171 47.4845 17.8391 47.5825C17.9226 47.6495 18.0009 47.724 18.0775 47.7989C18.1606 47.8802 18.2411 47.9644 18.3188 48.0508C18.3659 48.103 18.412 48.156 18.4569 48.2099C18.4785 48.2355 18.4996 48.2614 18.5207 48.2873C18.5341 48.3041 18.5476 48.3209 18.561 48.3378C18.5691 48.3481 18.5772 48.3585 18.5853 48.3691C18.5702 48.3493 18.5687 48.3477 18.581 48.3637C19.0485 48.9829 19.4002 49.6894 19.4789 50.4552C19.5285 50.9392 19.4738 51.4128 19.3321 51.8773C19.1673 52.4185 19.0602 52.9823 19.0654 53.5497C19.072 54.2665 19.2564 55.0011 19.6616 55.5991C19.7984 55.8008 19.9541 56.0211 20.1747 56.1371C20.6049 56.3632 21.048 56.5655 21.4975 56.7497C22.1293 57.0087 22.7847 57.2302 23.4656 57.3106C24.0203 57.3761 24.6807 57.3047 25.0006 56.7832C25.2007 56.4569 25.23 56.023 25.1687 55.6542C25.1061 55.2764 24.9065 54.9366 24.6569 54.6518C24.295 54.2387 23.8042 53.9267 23.3023 53.7106C23.2519 53.6891 23.2013 53.667 23.1498 53.6476C23.004 53.5933 22.834 53.7083 22.7953 53.8491C22.7509 54.0104 22.85 54.149 22.9965 54.2036Z" fill="black"/>
<path d="M10.9175 25.222C10.4564 25.4638 10.0075 25.7315 9.56468 26.0049C8.60266 26.5994 7.66875 27.2476 6.80451 27.978C5.96907 28.684 5.10908 29.5123 4.6531 30.5252C4.55285 30.7479 4.46728 30.9778 4.42161 31.2183C4.36511 31.517 4.37114 31.8127 4.38664 32.1152C4.42737 32.9132 4.55697 33.7141 4.81396 34.4722C5.27186 35.8233 6.142 37.0295 7.40559 37.7281C7.55644 37.8114 7.71168 37.8862 7.87007 37.9541C8.01297 38.0156 8.17905 37.9968 8.26435 37.8507C8.33538 37.7293 8.30466 37.5183 8.16094 37.4564C6.94124 36.9327 6.02886 35.9464 5.52145 34.7238C5.23895 34.0435 5.07068 33.3126 4.99786 32.5805C4.96385 32.2373 4.9297 31.8802 4.95562 31.5354C4.95768 31.5086 4.96056 31.482 4.9633 31.4553C4.96893 31.398 4.95549 31.4974 4.9655 31.4404C4.97483 31.3863 4.98456 31.3327 4.9969 31.2794C5.02227 31.1695 5.05532 31.0616 5.09427 30.9558C5.10291 30.9325 5.11196 30.9095 5.12088 30.8863C5.1254 30.8747 5.1302 30.8631 5.135 30.8516C5.15173 30.8105 5.11731 30.8917 5.13541 30.8508C5.15955 30.7962 5.18465 30.742 5.21139 30.6884C5.2646 30.5817 5.32288 30.4774 5.385 30.3755C5.44987 30.2691 5.51899 30.1652 5.59126 30.0636C5.67903 29.9405 5.71386 29.8954 5.80012 29.7895C6.15544 29.353 6.5589 28.9565 6.98087 28.5849C7.80246 27.8612 8.6881 27.2376 9.62749 26.6451C10.1374 26.3232 10.6658 26.038 11.1846 25.7321C11.1922 25.7276 11.2005 25.7238 11.2084 25.7195C11.5371 25.5474 11.2461 25.0497 10.9175 25.222Z" fill="black"/>
<path d="M11.4518 29.5825C11.4562 30.1087 11.4293 30.6364 11.3937 31.1613C11.3188 32.2636 11.1818 33.3652 10.9304 34.4421C10.7969 35.0144 10.6226 35.5711 10.4086 36.1181C10.2077 36.6322 10.0283 37.1554 9.88817 37.6894C9.59648 38.8011 9.48472 39.9566 9.67232 41.0955C9.9204 42.601 10.7261 43.9319 11.7722 45.0205C12.0297 45.2885 12.4369 44.8805 12.1797 44.613C11.2709 43.6673 10.5648 42.5389 10.286 41.2464C10.0555 40.1777 10.1416 39.0692 10.4004 38.014C10.6659 36.9316 11.1525 35.9253 11.4254 34.8456C11.7047 33.741 11.8573 32.6031 11.9474 31.4685C11.9972 30.8421 12.0334 30.211 12.0282 29.5824C12.0252 29.212 11.4488 29.2109 11.4518 29.5825Z" fill="black"/>
<path d="M8.50271 32.6176C8.787 32.866 9.05126 33.1407 9.30223 33.4222C9.73366 33.9064 10.1762 34.4828 10.3885 35.0769C10.4199 35.1647 10.4469 35.254 10.4682 35.3447C10.4779 35.3864 10.4861 35.4284 10.4935 35.4705C10.5037 35.5284 10.497 35.4898 10.4953 35.4771C10.4989 35.5044 10.5014 35.5321 10.5033 35.5596C10.509 35.6407 10.5082 35.7217 10.5014 35.8026C10.4964 35.8601 10.4998 35.8173 10.5018 35.8053C10.4977 35.8314 10.4927 35.8575 10.4868 35.8834C10.4772 35.9266 10.4647 35.969 10.4509 36.011C10.3339 36.364 10.8903 36.5152 11.0067 36.1643C11.2411 35.4569 10.9088 34.6917 10.5365 34.0965C10.174 33.5172 9.71857 32.9921 9.23269 32.5133C9.12778 32.4099 9.02137 32.3071 8.91029 32.2101C8.79317 32.1077 8.61805 32.0949 8.50271 32.2101C8.39835 32.3146 8.38519 32.5148 8.50271 32.6176Z" fill="black"/>
<path d="M11.2828 32.8191C11.1658 32.9391 11.0461 33.0564 10.925 33.1723C10.817 33.2759 10.7074 33.378 10.5953 33.4776C10.5408 33.526 10.4856 33.5739 10.4295 33.6205C10.404 33.6417 10.3783 33.6629 10.3523 33.6836C10.3415 33.6922 10.288 33.7339 10.3349 33.6974C10.3809 33.6618 10.3298 33.701 10.3191 33.7089C10.2705 33.7447 10.2207 33.7797 10.1677 33.8091C10.1577 33.8145 10.1474 33.8196 10.1374 33.8248C10.0877 33.8507 10.2053 33.8023 10.1726 33.8104C10.1642 33.8125 10.1536 33.8154 10.1455 33.8189C10.1082 33.8348 10.2308 33.8114 10.1946 33.8122C10.044 33.8151 9.89937 33.9426 9.9065 34.1003C9.91336 34.2539 10.0332 34.3918 10.1946 34.3886C10.3256 34.386 10.4449 34.3214 10.5504 34.2491C10.6802 34.1601 10.8027 34.0591 10.9219 33.9562C11.1405 33.7674 11.3495 33.567 11.5543 33.3635C11.6 33.3181 11.6455 33.2727 11.6904 33.2266C11.7957 33.1186 11.8061 32.9252 11.6904 32.8191C11.5766 32.7146 11.3953 32.7037 11.2828 32.8191Z" fill="black"/>
<path d="M14.6969 46.0894C14.1141 46.1678 13.5304 46.3953 13.0097 46.6582C11.8813 47.228 10.9869 48.1636 10.5278 49.3467C10.2616 50.0329 10.1856 50.7774 9.97319 51.481C9.92697 51.6337 9.87691 51.7858 9.82151 51.9356C9.7635 52.0925 9.73292 52.1675 9.66929 52.3038C9.55958 52.5388 9.43122 52.7668 9.27406 52.9736C9.31137 52.9245 9.25116 53.0013 9.24335 53.0107C9.22552 53.0323 9.20727 53.0535 9.18862 53.0745C9.14954 53.1182 9.10908 53.161 9.06684 53.2019C9.02817 53.2392 8.98799 53.2749 8.94712 53.3098C8.88939 53.3591 8.95001 53.3105 8.91627 53.3351C8.892 53.3527 8.86772 53.3704 8.84276 53.3873C8.74937 53.4505 8.65077 53.5044 8.54833 53.551C8.5017 53.5722 8.59125 53.5369 8.52282 53.5609C8.49773 53.5696 8.4729 53.5794 8.44767 53.5879C8.39268 53.6066 8.33672 53.6224 8.28036 53.6362C8.22235 53.6503 8.16379 53.6614 8.10483 53.6712C8.05326 53.6797 8.14624 53.6684 8.07205 53.6753C8.03873 53.6782 8.00554 53.6817 7.97221 53.6839C7.83987 53.6927 7.70699 53.6912 7.57479 53.6816C7.41146 53.6697 7.35441 53.6608 7.18601 53.6272C7.03063 53.5962 6.8769 53.5569 6.72495 53.5118C6.36455 53.4047 6.01457 53.2654 5.67365 53.1074C5.39704 52.9792 5.12935 52.8015 4.83931 52.7085C4.80859 52.6989 4.77814 52.6883 4.74797 52.6772C4.72905 52.6703 4.71026 52.6632 4.69161 52.656C4.67734 52.6505 4.60905 52.6221 4.64553 52.6378C4.68557 52.655 4.61344 52.6232 4.60302 52.6182C4.57586 52.6055 4.54885 52.5925 4.52224 52.579C4.46931 52.552 4.41733 52.5231 4.36701 52.4917C4.34273 52.4767 4.31901 52.4607 4.29542 52.4448C4.28184 52.4357 4.26854 52.4258 4.25537 52.4161C4.25866 52.4187 4.29034 52.4442 4.26497 52.4236C4.21409 52.3821 4.16857 52.3368 4.12345 52.2894C4.07984 52.2433 4.12715 52.3027 4.10219 52.2626C4.08752 52.2392 4.07367 52.2155 4.0594 52.1917C4.02663 52.1372 4.05927 52.2087 4.04638 52.1631C4.03774 52.1324 4.02827 52.1021 4.0232 52.0704C4.03403 52.138 4.02594 52.039 4.02622 52.0232C4.02622 52.0195 4.02965 51.9764 4.02594 52.0092C4.02183 52.0454 4.03006 51.9886 4.03239 51.9806C4.05625 51.8937 4.05982 51.8808 4.10219 51.8041C4.25606 51.525 3.87893 51.2081 3.6495 51.4548C3.61165 51.4956 3.56914 51.5317 3.52745 51.5683C3.46916 51.6197 3.54034 51.5617 3.49783 51.5926C3.47012 51.6127 3.44228 51.6326 3.41362 51.6514C3.35794 51.6876 3.30035 51.7207 3.24042 51.7493C3.14634 51.7945 3.00495 51.8333 2.87029 51.8142C2.90471 51.8191 2.82173 51.8014 2.81419 51.7993C2.77579 51.7884 2.74837 51.7766 2.71518 51.7592C2.62659 51.7123 2.55789 51.6457 2.49069 51.5723C2.24027 51.2977 2.01372 50.9453 1.99548 50.5635C1.9745 50.1223 2.21353 49.7458 2.50673 49.436C2.76167 49.1666 2.35478 48.7582 2.09916 49.0283C1.78772 49.3574 1.51605 49.7547 1.44378 50.2111C1.37932 50.618 1.45982 51.0135 1.64962 51.377C1.8397 51.7414 2.13948 52.1387 2.52593 52.3046C2.86343 52.4496 3.22204 52.399 3.54459 52.2406C3.73151 52.1488 3.91486 52.0155 4.05707 51.8625C3.90622 51.746 3.75537 51.6297 3.60452 51.5133C3.43337 51.8237 3.39278 52.1747 3.56722 52.4932C3.70093 52.7369 3.93954 52.9193 4.17967 53.0497C4.35288 53.1437 4.53664 53.213 4.72274 53.2758C4.73138 53.2787 4.76717 53.2942 4.74084 53.2817C4.79432 53.3072 4.95025 53.3949 5.04172 53.4405C5.23646 53.5382 5.43352 53.631 5.63347 53.7175C6.70904 54.1833 8.11511 54.6092 9.17066 53.8593C10.1862 53.138 10.5409 51.77 10.7846 50.6177C10.8662 50.2318 10.9458 49.8516 11.0903 49.483C11.2096 49.1787 11.3801 48.8723 11.5729 48.5983C11.8997 48.1343 12.3539 47.7246 12.8265 47.4248C13.0482 47.2841 13.2803 47.1596 13.5193 47.0511C13.5441 47.0398 13.5691 47.0288 13.5942 47.0178C13.6158 47.0084 13.6733 46.9842 13.62 47.0064C13.6741 46.9839 13.7286 46.962 13.7834 46.9409C13.8808 46.9036 13.9791 46.8686 14.0783 46.8362C14.3213 46.7571 14.5663 46.7043 14.8152 46.6504C14.8266 46.648 14.8386 46.6467 14.8501 46.6451C15.0045 46.6244 15.0887 46.4261 15.0514 46.2906C15.0056 46.1239 14.8517 46.0685 14.6969 46.0894Z" fill="black"/>
<path d="M4.51671 50.298C4.49408 50.3102 4.47104 50.3213 4.44786 50.3324C4.42085 50.3454 4.39342 50.3576 4.36599 50.3698C4.31347 50.3934 4.34954 50.3757 4.37792 50.3653C4.35927 50.3723 4.34103 50.3804 4.32252 50.3878C4.12641 50.4657 3.92633 50.5186 3.71884 50.5561C3.66618 50.5657 3.76259 50.5522 3.74394 50.5528C3.72885 50.5532 3.71363 50.5563 3.69854 50.5577C3.66823 50.5606 3.63779 50.5629 3.60721 50.5642C3.55085 50.5668 3.49421 50.5664 3.43771 50.5621C3.42262 50.561 3.40767 50.5589 3.39259 50.558C3.33965 50.555 3.43469 50.5666 3.41782 50.5617C3.38943 50.5532 3.35817 50.5514 3.32923 50.5444C3.30221 50.538 3.27547 50.5304 3.24901 50.5218C3.2368 50.5178 3.22487 50.513 3.21266 50.509C3.15973 50.4913 3.23337 50.5197 3.22816 50.516C3.18578 50.4859 3.12325 50.4499 3.07662 50.4274C3.10021 50.4388 3.12695 50.4705 3.09308 50.4394C3.08143 50.4287 3.06922 50.4185 3.0577 50.4075C3.03383 50.3849 3.01313 50.3601 2.99078 50.3361C2.95526 50.2978 3.00682 50.363 3.0001 50.3486C2.99407 50.3357 2.98241 50.3235 2.97459 50.3115C2.95457 50.2811 2.93619 50.2494 2.9196 50.2172C2.91082 50.2001 2.90328 50.1824 2.89451 50.1652C2.8716 50.1202 2.91274 50.2202 2.89725 50.1707C2.88449 50.1301 2.86872 50.0908 2.85693 50.0498C2.84335 50.0019 2.83224 49.9535 2.82278 49.9048C2.81812 49.8804 2.81455 49.856 2.81016 49.8316C2.80893 49.8247 2.80427 49.7875 2.80921 49.8262C2.81497 49.8711 2.80728 49.8062 2.80646 49.7971C2.79508 49.6754 2.79069 49.5533 2.7933 49.4308C2.80084 49.0855 2.84706 48.8018 2.91796 48.4624C2.8738 48.5197 2.82964 48.5772 2.78548 48.6346C2.88833 48.5685 2.99681 48.5098 3.10707 48.4572C3.12736 48.4474 3.14766 48.4378 3.16823 48.4288C3.24928 48.3923 3.11708 48.4472 3.20087 48.4153C3.24722 48.3978 3.29412 48.3812 3.34198 48.3682C3.36269 48.3625 3.38395 48.3587 3.40465 48.3528C3.46993 48.3347 3.35995 48.3468 3.42331 48.3498C3.44498 48.3509 3.46733 48.3494 3.48914 48.3502C3.42605 48.3477 3.49983 48.363 3.43771 48.3354C3.57992 48.3985 3.74736 48.3769 3.83211 48.232C3.90384 48.1093 3.87175 47.9011 3.72871 47.8377C3.39506 47.6899 3.03836 47.8433 2.73543 47.9997C2.65506 48.0412 2.57292 48.084 2.4979 48.1348C2.31688 48.2574 2.31208 48.5489 2.28205 48.75C2.19634 49.3257 2.14642 49.9721 2.42193 50.5079C2.77945 51.2032 3.6057 51.2284 4.26506 51.0192C4.45019 50.9603 4.63615 50.8879 4.80757 50.7958C5.13437 50.6197 4.84364 50.122 4.51671 50.298Z" fill="black"/>
<path d="M5.83132 49.3879C5.97861 49.3249 5.83133 49.3857 5.79485 49.3985C5.7149 49.4259 5.6333 49.4496 5.55101 49.4697C5.49753 49.4827 5.44378 49.4941 5.38961 49.504C5.36026 49.5092 5.33091 49.5137 5.30143 49.5182C5.25768 49.5251 5.37575 49.5105 5.3065 49.5173C5.28538 49.5193 5.2644 49.5218 5.24328 49.5238C5.10916 49.5356 4.9749 49.5351 4.84092 49.5211C4.7862 49.5155 4.83859 49.5205 4.84832 49.5222C4.82912 49.519 4.80979 49.5159 4.79059 49.5123C4.75576 49.5055 4.72106 49.4978 4.68678 49.4886C4.65208 49.4795 4.6178 49.4688 4.58392 49.4572C4.56486 49.4505 4.54593 49.4435 4.52728 49.4361C4.56541 49.4512 4.541 49.4427 4.51782 49.4307C4.45021 49.396 4.38548 49.3598 4.32364 49.3155C4.28345 49.287 4.37287 49.3593 4.30992 49.3045C4.29662 49.2929 4.28304 49.2814 4.27002 49.2694C4.23614 49.2385 4.20487 49.2051 4.17388 49.1714C4.13013 49.1235 4.09544 49.0721 4.04675 48.9868C3.99341 48.8934 3.96365 48.8258 3.92991 48.7267C3.89426 48.6216 3.86559 48.5137 3.84516 48.4047C3.83035 48.3251 3.8261 48.3028 3.82733 48.1921C3.82747 48.1745 3.83447 48.0759 3.83022 48.1121C3.82569 48.1492 3.84105 48.0592 3.8453 48.0434C3.85229 48.0172 3.86107 47.9916 3.8704 47.9662C3.84215 48.0429 3.88822 47.944 3.89796 47.9248C3.92484 47.8715 3.86024 47.9538 3.91483 47.904C3.93265 47.8877 3.94993 47.8705 3.96763 47.854C3.9077 47.91 3.97901 47.8483 3.99972 47.8364C4.02097 47.824 4.1097 47.7885 4.03386 47.8163C4.09173 47.7952 4.14947 47.7803 4.2094 47.7668C4.28098 47.7507 4.19541 47.7655 4.24012 47.7615C4.28167 47.7579 4.32322 47.7546 4.36505 47.7535C4.43362 47.7516 4.50232 47.7539 4.57062 47.7591C4.69061 47.7681 4.66963 47.7663 4.77797 47.7856C5.46722 47.9092 6.08517 48.1835 6.6536 48.5979C6.66704 48.6076 6.68048 48.6178 6.69392 48.6278C6.75947 48.6766 6.65045 48.5917 6.71257 48.6423C6.74274 48.667 6.77277 48.6916 6.80185 48.7172C6.92267 48.8233 7.038 48.9363 7.1547 49.0467C7.39044 49.27 7.62399 49.4956 7.85507 49.7236C8.07353 49.9388 8.29102 50.1552 8.50304 50.3768C8.76003 50.6452 9.1672 50.2372 8.91061 49.9693C8.71245 49.762 8.50921 49.5598 8.30543 49.3583C7.89264 48.9502 7.48548 48.5131 7.02388 48.16C6.42609 47.7026 5.67266 47.3628 4.93129 47.2299C4.29333 47.1156 3.40221 47.1777 3.27206 47.975C3.19924 48.4208 3.33624 48.9219 3.56485 49.3051C3.77357 49.6549 4.09736 49.914 4.48765 50.0317C5.01563 50.1909 5.6215 50.1002 6.12219 49.8859C6.26537 49.8246 6.29718 49.6141 6.2256 49.4916C6.13906 49.3434 5.97491 49.3264 5.83132 49.3879Z" fill="black"/>
<path d="M9.71846 40.1192C9.15345 40.4239 8.63384 40.847 8.16332 41.2784C7.12258 42.2332 6.29043 43.4183 5.8147 44.752C5.47364 45.7081 5.33568 46.7324 5.38162 47.7453C5.39835 48.1145 5.97487 48.1167 5.95801 47.7453C5.88409 46.1177 6.32883 44.5588 7.23544 43.2191C7.5787 42.7117 7.97928 42.2465 8.44458 41.8041C8.6315 41.6262 8.82569 41.4559 9.02633 41.2937C9.0687 41.2595 9.11149 41.2258 9.15427 41.192C9.19254 41.162 9.11094 41.2247 9.1732 41.1776C9.19569 41.1608 9.21804 41.1436 9.24067 41.1268C9.31829 41.0685 9.39674 41.0116 9.47628 40.956C9.64825 40.8359 9.82433 40.7167 10.0093 40.6169C10.336 40.4409 10.0453 39.943 9.71846 40.1192Z" fill="black"/>
<path d="M7.58677 37.4745L5.32427 36.4077C5.32427 36.4077 6.13654 37.3163 6.20922 37.5957C6.28177 37.8754 4.64873 37.2813 4.2498 37.2463C3.85087 37.2115 4.76599 38.2946 5.32427 38.4693C5.88256 38.6439 3.88721 38.7138 3.88721 38.7138C3.88721 38.7138 6.7047 42.1381 9.84927 39.9718C9.84927 39.9718 9.89959 38.7694 10.05 38.1686C10.2003 37.5676 7.58677 37.4745 7.58677 37.4745Z" fill="black"/>
<path d="M12.7257 45.2866C13.199 45.7714 13.7707 46.1834 14.3454 46.5366C15.4992 47.2455 16.843 47.7258 18.2115 47.6732C19.1641 47.6365 20.0805 47.3404 20.8943 46.8482C21.2115 46.6566 20.922 46.1579 20.6034 46.3505C19.9403 46.7515 19.1998 47.022 18.4239 47.0841C17.7375 47.1392 17.0724 47.0521 16.4157 46.8545C15.8286 46.678 15.2975 46.4317 14.7644 46.116C14.538 45.9821 14.3176 45.8382 14.1033 45.6857C14.0099 45.6192 13.9179 45.5509 13.8268 45.4814C13.7822 45.4475 13.8563 45.5048 13.8132 45.4708C13.7932 45.455 13.773 45.4394 13.753 45.4234C13.7127 45.3913 13.6725 45.3588 13.6326 45.326C13.4605 45.1846 13.2891 45.0384 13.1333 44.8789C12.8737 44.6131 12.4662 45.0207 12.7257 45.2866Z" fill="black"/>
<path fill-rule="evenodd" clip-rule="evenodd" d="M129.304 0.814074C129.345 0.816148 129.376 0.817793 129.399 0.818962L129.437 0.821C129.437 0.821021 129.437 0.82103 129.452 0.547161L129.437 0.82103L129.486 0.275009L129.452 0.547161C129.486 0.275009 129.486 0.274965 129.486 0.27492L129.485 0.274825L129.483 0.274619L129.479 0.274143C129.476 0.273798 129.472 0.273401 129.467 0.272967C129.457 0.272101 129.444 0.271077 129.426 0.270032C129.401 0.268576 129.368 0.267062 129.325 0.265887C129.32 0.265643 129.315 0.265394 129.31 0.26514C129.206 0.259923 129.053 0.252407 128.853 0.243188C128.452 0.22475 127.864 0.199501 127.115 0.172218C125.616 0.117653 123.47 0.0549494 120.882 0.0223384C115.706 -0.0428761 108.756 0.0122115 101.666 0.49388C94.5789 0.97534 87.3381 1.88384 81.5859 3.53024C78.7101 4.35335 76.1934 5.36447 74.251 6.60752C72.3094 7.85004 70.9192 9.3391 70.3398 11.1251L70.8616 11.2944C71.3875 9.67311 72.6653 8.2735 74.5466 7.06955C76.4271 5.86613 78.8881 4.87297 81.7368 4.05761C87.4338 2.42704 94.6296 1.52171 101.703 1.04117C108.773 0.560835 115.707 0.505741 120.875 0.570845C121.99 0.584896 123.023 0.604543 123.957 0.626716C119.306 1.07503 110.823 2.06491 95.4755 4.22966C92.5243 4.64592 90.2877 5.07963 88.6908 5.54955C87.8923 5.7845 87.2456 6.03083 86.7462 6.29289C86.25 6.5533 85.8786 6.83989 85.6557 7.16581C85.4244 7.50391 85.3618 7.87276 85.467 8.25311C85.5681 8.61853 85.8179 8.9735 86.1661 9.32069C86.8621 10.0147 88.0369 10.7599 89.5775 11.5739L89.8338 11.0889C88.2979 10.2774 87.1869 9.56391 86.5534 8.93223C86.2368 8.6166 86.0608 8.34199 85.9957 8.10688C85.9348 7.8867 85.9658 7.68406 86.1085 7.47548C86.2594 7.25473 86.5422 7.01946 87.0011 6.77862C87.4569 6.53943 88.0663 6.30511 88.8457 6.07579C90.4042 5.61716 92.6097 5.18784 95.5521 4.77284C110.955 2.60028 119.435 1.61238 124.063 1.16762C126.377 0.945229 127.725 0.858855 128.493 0.827939C128.877 0.812484 129.114 0.810948 129.254 0.813069C129.272 0.813349 129.289 0.813692 129.304 0.814074Z" fill="black"/>
<path fill-rule="evenodd" clip-rule="evenodd" d="M110.12 22.6995C116.799 24.9773 121.163 26.5574 125.112 28.5443C129.146 30.5743 131.823 32.8787 133.364 35.2938C134.908 37.7147 135.302 40.2344 134.785 42.663C133.755 47.5015 129.135 51.9143 123.011 54.5387C121.446 55.2094 118.399 55.7438 114.309 56.1751C110.205 56.6078 105.013 56.9399 99.1304 57.1915C87.364 57.6947 72.8193 57.8764 58.658 57.8951C44.4961 57.9138 30.7148 57.7696 20.4742 57.6207C15.3538 57.5462 11.1185 57.4706 8.16326 57.4136C6.68562 57.3851 5.52798 57.3612 4.73972 57.3445C4.34559 57.3361 4.0438 57.3295 3.84053 57.325C3.73889 57.3228 3.66189 57.3211 3.61028 57.3199L3.53366 57.3182C3.53284 57.3181 3.53243 57.3181 3.53871 57.0439C3.545 56.7697 3.5454 56.7697 3.54621 56.7698L3.62263 56.7715C3.67416 56.7726 3.75109 56.7744 3.85265 56.7766C4.05577 56.7811 4.3574 56.7877 4.75136 56.796C5.53929 56.8128 6.69658 56.8366 8.17384 56.8651C11.1284 56.9221 15.3628 56.9977 20.4822 57.0722C30.7211 57.2211 44.4993 57.3653 58.6573 57.3466C72.816 57.3278 87.3518 57.1461 99.1069 56.6434C104.985 56.3921 110.164 56.0606 114.251 55.6296C118.353 55.1971 121.317 54.6676 122.795 54.0345C128.838 51.4445 133.271 47.1398 134.248 42.5489C134.735 40.2628 134.37 37.8899 132.902 35.5888C131.43 33.2822 128.842 31.0356 124.865 29.0343C120.955 27.0667 116.625 25.4974 109.943 23.2187L110.12 22.6995Z" fill="black"/>
<path d="M59.1472 74.8132H56.4028V66.5923H58.9636C58.9858 66.9807 59.0069 67.3505 59.0356 67.8518C59.2691 67.6363 59.4323 67.4907 59.5898 67.3394C60.3071 66.6505 61.1415 66.2717 62.157 66.3057C63.0691 66.3363 63.787 66.688 64.2848 67.4633C64.3526 67.569 64.4259 67.6713 64.5399 67.8383C64.7301 67.6498 64.8991 67.4786 65.0719 67.3116C66.0351 66.3802 67.1724 66.109 68.4597 66.4317C69.1702 66.6097 69.6599 67.0601 69.8907 67.743C70.0309 68.1579 70.1418 68.6043 70.1488 69.0384C70.1782 70.8757 70.164 72.7136 70.1635 74.5512C70.1635 74.6114 70.1398 74.6721 70.1081 74.8232C69.2097 74.8723 68.299 74.8566 67.3401 74.8299C67.3276 74.56 67.3101 74.3543 67.3097 74.1487C67.3071 72.9024 67.3086 71.6561 67.308 70.4098C67.308 70.241 67.3123 70.0715 67.3017 69.9031C67.2633 69.2909 67.0124 68.9178 66.5498 68.7733C66.0727 68.6241 65.462 68.8163 65.1264 69.2343C64.7926 69.6501 64.6986 70.1424 64.6986 70.6612C64.6988 71.8229 64.6994 72.9847 64.6962 74.1465C64.6957 74.3522 64.6784 74.558 64.667 74.8059H61.836C61.836 74.5796 61.836 74.3762 61.836 74.1731C61.836 72.927 61.8364 71.6805 61.8354 70.4342C61.8353 70.2442 61.8442 70.0526 61.8229 69.8646C61.7679 69.3791 61.61 68.9448 61.0879 68.7856C60.5529 68.6224 60.0511 68.7543 59.7131 69.1801C59.4884 69.4629 59.3331 69.8422 59.268 70.2001C59.1821 70.6727 59.204 71.1669 59.1992 71.6519C59.1904 72.5179 59.1985 73.3842 59.1943 74.2501C59.1935 74.4151 59.1675 74.5799 59.1472 74.8132Z" fill="black"/>
<path d="M122 75.2217V61.6586C122.927 61.529 123.834 61.402 124.818 61.2642V66.8306C125.075 66.7446 125.247 66.6929 125.415 66.6297C127.916 65.6873 130.218 67.0003 130.652 69.6445C130.789 70.4806 130.776 71.3283 130.546 72.1575C130.094 73.7926 128.696 74.9872 127.009 75.1802C126.206 75.2721 125.403 75.26 124.621 75.0477C124.053 74.8936 123.505 74.8775 122.941 75.0414C122.662 75.1225 122.368 75.1532 122 75.2217ZM124.836 72.9418C125.587 73.2342 126.233 73.2342 126.836 72.8031C127.899 72.043 128.171 70.1226 127.343 69.1066C126.686 68.3012 125.871 68.3247 125.028 68.8333C124.928 68.8937 124.845 69.0704 124.844 69.1941C124.831 70.4344 124.836 71.675 124.836 72.9418Z" fill="black"/>
<path d="M5 61.6594C5.88865 61.5306 6.75838 61.4046 7.71944 61.2654V69.7574C7.76181 69.7708 7.80419 69.7844 7.84656 69.7979C7.95271 69.6862 8.07106 69.5836 8.1628 69.4614C8.79652 68.6172 9.4338 67.7753 10.0494 66.9179C10.241 66.6511 10.4496 66.5304 10.7838 66.5393C11.5757 66.5604 12.3685 66.5461 13.3234 66.5461C12.3097 67.7979 11.3994 68.9219 10.4518 70.0918C11.6055 71.6352 12.7502 73.1663 13.9503 74.7718C13.7088 74.8062 13.5549 74.8456 13.4008 74.8474C12.7251 74.8543 12.0487 74.8325 11.3739 74.8572C10.9947 74.8714 10.7574 74.7401 10.5445 74.4218C9.78144 73.2816 8.98975 72.1603 8.20628 71.0338C8.10178 70.8835 7.98219 70.7438 7.80295 70.6105C7.70764 71.3006 7.73219 71.9839 7.72767 72.6654C7.72301 73.358 7.72657 74.0509 7.72657 74.8209C6.79156 74.8719 5.91882 74.8552 5 74.8325V61.6594Z" fill="black"/>
<path d="M119.761 74.547C118.957 74.7671 118.11 74.9987 117.243 75.2357C117.121 74.9794 117.024 74.7751 116.906 74.5263C116.714 74.63 116.533 74.7276 116.353 74.8255C114.988 75.5655 113.43 75.3602 112.323 74.2764C111.18 73.1579 110.832 71.7594 110.966 70.2162C111.063 69.1087 111.473 68.1277 112.283 67.3414C113.449 66.209 114.845 65.8876 116.375 66.3353C117.081 66.542 117.767 66.6288 118.488 66.5879C118.865 66.5667 119.245 66.5842 119.71 66.5842C119.727 69.2108 119.744 71.8189 119.761 74.547ZM116.851 70.6011C116.851 70.0738 116.837 69.5465 116.856 69.0201C116.866 68.7144 116.734 68.5555 116.46 68.4601C115.749 68.2133 115.126 68.3636 114.597 68.879C113.679 69.7724 113.609 71.5599 114.441 72.5375C115 73.1945 115.766 73.2838 116.47 72.7907C116.733 72.6064 116.873 72.3927 116.857 72.0558C116.834 71.5719 116.851 71.0862 116.851 70.6011Z" fill="black"/>
<path d="M48.6168 74.5459C47.8174 74.7653 46.9709 74.9977 46.1009 75.2365C45.9805 74.9841 45.8834 74.781 45.7583 74.5188C45.5699 74.6244 45.3933 74.7255 45.2147 74.8229C43.8322 75.577 42.2523 75.3561 41.1382 74.2372C40.0287 73.1225 39.6897 71.7415 39.8227 70.2226C39.9196 69.1162 40.3247 68.1323 41.1341 67.345C42.2786 66.2319 43.6542 65.8878 45.1629 66.3201C45.9319 66.5403 46.6804 66.629 47.4645 66.5854C47.7995 66.5668 48.1364 66.5824 48.5646 66.5824C48.5819 69.2079 48.5989 71.8149 48.6168 74.5459ZM45.7051 70.5613C45.7051 70.0343 45.6959 69.507 45.7088 68.9804C45.7157 68.7013 45.5809 68.5625 45.3384 68.4674C44.6749 68.2067 43.9477 68.3674 43.4227 68.9051C42.5431 69.8062 42.4758 71.5472 43.2829 72.5194C43.8499 73.2022 44.645 73.2912 45.3594 72.7676C45.601 72.5905 45.7229 72.3879 45.7112 72.079C45.692 71.5738 45.7059 71.0674 45.7051 70.5613Z" fill="black"/>
<path d="M33.0292 74.5501C32.2102 74.7718 31.3617 75.0017 30.5004 75.2348C30.3797 74.9686 30.2864 74.7631 30.1759 74.5191C29.9488 74.6439 29.7504 74.7574 29.5479 74.8637C28.2556 75.5411 26.7361 75.3436 25.6675 74.3504C24.5121 73.2765 24.1285 71.9076 24.2193 70.3848C24.2865 69.256 24.6657 68.2394 25.4762 67.4165C26.6355 66.2389 28.0446 65.8742 29.6001 66.3292C30.3514 66.5492 31.0794 66.6152 31.8402 66.5851C32.195 66.5712 32.5508 66.5828 32.9725 66.5828C32.9913 69.2267 33.0098 71.8361 33.0292 74.5501ZM30.1161 70.5431C30.1161 70.1426 30.1167 69.742 30.116 69.3416C30.1147 68.5779 29.8819 68.3399 29.1146 68.3449C28.6294 68.3478 28.214 68.5344 27.8673 68.8741C26.9563 69.7665 26.8765 71.5667 27.7052 72.535C28.2686 73.1931 29.0267 73.2833 29.7336 72.7923C29.9969 72.6093 30.1386 72.3984 30.1221 72.0601C30.0976 71.5556 30.1158 71.0488 30.1161 70.5431Z" fill="black"/>
<path d="M80.5764 66.5833C80.6094 69.2557 80.6415 71.8491 80.6749 74.5424C79.8855 74.7615 79.0432 74.9952 78.1702 75.2373C78.051 74.9966 77.9514 74.7954 77.8239 74.5374C77.6626 74.6203 77.5009 74.6984 77.3439 74.7854C75.8413 75.6181 74.1755 75.3405 73.0322 74.0656C71.5117 72.3703 71.434 69.4344 72.8891 67.6851C74.0481 66.2916 75.5543 65.8399 77.2696 66.3359C78.0018 66.5477 78.7086 66.6073 79.4471 66.5851C79.8016 66.5744 80.1566 66.5833 80.5764 66.5833ZM77.7534 70.5476H77.7519C77.7519 70.0212 77.7446 69.4948 77.7548 68.9687C77.7601 68.6914 77.6268 68.5467 77.379 68.4609C76.6708 68.2157 76.0493 68.3621 75.5183 68.877C74.5906 69.7763 74.5137 71.5391 75.3498 72.5267C75.9228 73.2036 76.7205 73.2888 77.4254 72.7626C77.6459 72.5979 77.7634 72.4088 77.757 72.1266C77.745 71.6004 77.7534 71.0739 77.7534 70.5476Z" fill="black"/>
<path d="M18.3719 66.1477C21.0717 66.1492 22.9783 68.041 22.9741 70.7137C22.97 73.3566 21.0111 75.2842 18.3432 75.2704C15.6819 75.2568 13.7676 73.3201 13.7789 70.6525C13.79 68.0163 15.6966 66.1461 18.3719 66.1477ZM20.0023 70.6876C20.0274 70.0726 19.9082 69.5018 19.565 68.996C18.9297 68.0602 17.7859 68.0685 17.1577 69.0067C16.5666 69.8896 16.5792 71.4846 17.1411 72.381C17.7091 73.2874 18.9923 73.3504 19.595 72.3679C19.9151 71.8463 20.0311 71.2804 20.0023 70.6876Z" fill="black"/>
<path d="M81.5966 66.5538C82.7508 66.5538 83.7577 66.5402 84.7634 66.5686C84.908 66.5727 85.0765 66.7555 85.1824 66.8949C85.5625 67.3962 85.9207 67.9146 86.3371 68.4959C86.7702 67.9415 87.1727 67.4612 87.5333 66.9512C87.7528 66.641 88.0071 66.5257 88.3819 66.5388C89.0886 66.5637 89.7969 66.546 90.6635 66.546C89.6103 67.9211 88.655 69.1686 87.6847 70.4353C88.7052 71.8782 89.7022 73.2874 90.7448 74.7615C90.5416 74.7999 90.4101 74.8453 90.2783 74.8464C89.4758 74.8531 88.6731 74.8359 87.871 74.8564C87.531 74.865 87.3309 74.7293 87.1508 74.4548C86.7815 73.8916 86.3799 73.3492 85.9612 72.7553C85.8319 72.8757 85.718 72.9583 85.6336 73.0644C85.239 73.5599 84.8475 74.0581 84.4657 74.5633C84.3283 74.7452 84.1752 74.852 83.9387 74.8502C83.1595 74.8435 82.3803 74.8476 81.6292 74.8476C81.5917 74.7845 81.5791 74.7685 81.5722 74.7502C81.5651 74.7316 81.5555 74.708 81.5614 74.6917C81.5755 74.6523 81.5923 74.6117 81.6175 74.5789C82.5836 73.3252 83.5508 72.0723 84.5646 70.7591C83.6091 69.4057 82.6526 68.05 81.5966 66.5538Z" fill="black"/>
<path d="M109.684 66.9198C109.586 67.7259 109.489 68.5163 109.381 69.3949C109.068 69.2423 108.833 69.1166 108.59 69.0119C107.824 68.6821 107.045 68.4403 106.197 68.6778C105.125 68.9776 104.463 69.9063 104.589 70.9478C104.725 72.071 105.533 72.7741 106.705 72.8079C107.449 72.8291 108.114 72.5785 108.761 72.2542C109.039 72.1148 109.307 71.9564 109.676 71.7533C109.597 72.6371 109.539 73.4281 109.442 74.2141C109.426 74.3416 109.255 74.4876 109.12 74.5568C107.574 75.3498 105.954 75.5101 104.343 74.8578C101.101 73.5451 101.033 69.7109 102.748 67.8421C103.484 67.0393 104.369 66.5106 105.441 66.2845C106.614 66.0371 108.529 66.1661 109.684 66.9198Z" fill="black"/>
<path d="M38.0743 74.8129H35.2882C35.1556 74.3411 35.1234 62.4575 35.2571 61.6526C36.1315 61.5297 37.024 61.4041 37.9303 61.2769C38.149 61.4642 38.0703 61.7112 38.0707 61.9257C38.0761 64.8213 38.0743 67.7171 38.0743 70.6129C38.0743 71.7754 38.0743 72.9378 38.0743 74.1003V74.8129Z" fill="black"/>
<path d="M94.3575 74.8143H91.6356C91.4983 74.3556 91.4605 67.381 91.5947 66.5339C92.4865 66.4127 93.3985 66.2886 94.3044 66.1653C94.4384 66.6653 94.4798 73.7842 94.3575 74.8143Z" fill="black"/>
<path d="M94.3575 65.3667H91.6356C91.4983 65.2263 91.4605 63.0909 91.5947 62.8316C92.4865 62.7944 93.3985 62.7565 94.3044 62.7188C94.4384 62.8717 94.4798 65.0515 94.3575 65.3667Z" fill="black"/>
<path d="M22.2813 23.8479C21.9364 25.3121 20.0926 26.4207 18.7178 25.5714L18.729 25.5319C20.2796 25.4692 21.4928 25.392 22.2426 23.8337L22.2813 23.8479Z" fill="black"/>
<path d="M35.5436 85.8444C35.9368 86.0148 36.2353 86.2556 36.4392 86.5667C36.6431 86.8778 36.745 87.2556 36.745 87.7C36.745 88.4037 36.4938 88.9407 35.9914 89.3111C35.489 89.6815 34.7609 89.8667 33.807 89.8667H31V82.1333H33.9381C34.7609 82.1333 35.3943 82.3111 35.8385 82.6667C36.2827 83.0148 36.5048 83.5148 36.5048 84.1667C36.5048 84.9444 36.1844 85.5037 35.5436 85.8444ZM32.4417 83.4222V85.2667H33.807C34.2002 85.2667 34.4951 85.1852 34.6917 85.0222C34.8883 84.8593 34.9866 84.6222 34.9866 84.3111C34.9866 83.9704 34.8992 83.737 34.7244 83.6111C34.557 83.4852 34.2548 83.4222 33.8179 83.4222H32.4417ZM33.807 88.5667C34.324 88.5667 34.688 88.4926 34.8992 88.3444C35.1176 88.1889 35.2269 87.9259 35.2269 87.5556C35.2269 87.2074 35.1104 86.9519 34.8774 86.7889C34.6516 86.6259 34.2985 86.5444 33.8179 86.5444H32.4417V88.5667H33.807Z" fill="black"/>
<path d="M42.1099 90C41.3308 90 40.6609 89.837 40.1003 89.5111C39.5396 89.1852 39.1136 88.7222 38.8224 88.1222C38.5311 87.5222 38.3855 86.8148 38.3855 86C38.3855 85.1852 38.5311 84.4778 38.8224 83.8778C39.1136 83.2778 39.5396 82.8148 40.1003 82.4889C40.6609 82.163 41.3308 82 42.1099 82C42.889 82 43.5589 82.163 44.1196 82.4889C44.6803 82.8148 45.1062 83.2778 45.3975 83.8778C45.6888 84.4778 45.8344 85.1852 45.8344 86C45.8344 86.8148 45.6888 87.5222 45.3975 88.1222C45.1062 88.7222 44.6803 89.1852 44.1196 89.5111C43.5589 89.837 42.889 90 42.1099 90ZM42.1099 88.6444C42.7944 88.6444 43.3332 88.4185 43.7264 87.9667C44.1196 87.5074 44.3162 86.8519 44.3162 86C44.3162 85.1481 44.1196 84.4963 43.7264 84.0444C43.3332 83.5852 42.7944 83.3556 42.1099 83.3556C41.4255 83.3556 40.8867 83.5852 40.4935 84.0444C40.1003 84.4963 39.9037 85.1481 39.9037 86C39.9037 86.8519 40.1003 87.5074 40.4935 87.9667C40.8867 88.4185 41.4255 88.6444 42.1099 88.6444Z" fill="black"/>
<path d="M52.1675 89.8667L50.6166 86.9222H49.2622V89.8667H47.8205V82.1333H50.562C51.545 82.1333 52.2804 82.3333 52.7682 82.7333C53.2561 83.1333 53.5 83.7148 53.5 84.4778C53.5 85.0185 53.3799 85.4778 53.1396 85.8556C52.8993 86.2333 52.5425 86.5148 52.0692 86.7L53.7512 89.8667H52.1675ZM49.2622 85.6333H50.5729C51.0535 85.6333 51.4066 85.5481 51.6323 85.3778C51.8653 85.2074 51.9818 84.9185 51.9818 84.5111C51.9818 84.1185 51.869 83.8407 51.6432 83.6778C51.4175 83.5148 51.0571 83.4333 50.562 83.4333H49.2622V85.6333Z" fill="black"/>
<path d="M61.9559 82.1333V89.8667H60.5141L56.9098 84.7556V89.8667H55.4681V82.1333H56.9098L60.5141 87.2333V82.1333H61.9559Z" fill="black"/>
<path d="M67.1666 82.1333H68.6083V89.8667H67.1666V82.1333Z" fill="black"/>
<path d="M77.2511 82.1333V89.8667H75.8094L72.2051 84.7556V89.8667H70.7634V82.1333H72.2051L75.8094 87.2333V82.1333H77.2511Z" fill="black"/>
<path d="M87.071 88.1111H83.8271L83.1936 89.8667H81.7519L84.6353 82.1333H86.3173L89.2008 89.8667H87.7044L87.071 88.1111ZM86.6232 86.8667L85.4545 83.5778L84.2749 86.8667H86.6232Z" fill="black"/>
<path d="M93.5664 90C92.5543 90 91.7606 89.7037 91.1854 89.1111C90.6101 88.5185 90.3225 87.7037 90.3225 86.6667V82.1333H91.7642V86.6333C91.7642 87.3444 91.9208 87.8704 92.2339 88.2111C92.547 88.5444 92.9912 88.7111 93.5664 88.7111C94.1489 88.7111 94.5931 88.5407 94.8989 88.2C95.212 87.8519 95.3685 87.3296 95.3685 86.6333V82.1333H96.8103V86.6667C96.8103 87.7037 96.5226 88.5185 95.9474 89.1111C95.3722 89.7037 94.5785 90 93.5664 90Z" fill="black"/>
<path d="M101.313 90C100.905 90 100.472 89.9444 100.013 89.8333C99.5547 89.7222 99.1215 89.5704 98.7137 89.3778V87.9556C99.6603 88.4741 100.505 88.7333 101.248 88.7333C101.619 88.7333 101.918 88.6519 102.143 88.4889C102.376 88.3259 102.493 88.0963 102.493 87.8C102.493 87.5926 102.427 87.4185 102.296 87.2778C102.172 87.1296 102.016 87.0111 101.826 86.9222C101.637 86.8259 101.368 86.7111 101.018 86.5778C100.545 86.4 100.159 86.2296 99.8605 86.0667C99.562 85.9037 99.3071 85.6741 99.096 85.3778C98.8848 85.0741 98.7792 84.6852 98.7792 84.2111C98.7792 83.5148 99.0159 82.9741 99.4892 82.5889C99.9625 82.1963 100.611 82 101.433 82C101.819 82 102.198 82.0444 102.569 82.1333C102.941 82.2148 103.283 82.337 103.596 82.5V83.8889C102.86 83.4741 102.151 83.2667 101.466 83.2667C101.087 83.2667 100.789 83.337 100.57 83.4778C100.359 83.6111 100.254 83.8037 100.254 84.0556C100.254 84.3074 100.363 84.5074 100.581 84.6556C100.807 84.7963 101.153 84.9519 101.619 85.1222C102.107 85.3074 102.507 85.4852 102.82 85.6556C103.134 85.8259 103.403 86.0741 103.629 86.4C103.862 86.7185 103.985 87.1333 104 87.6444C104 88.3778 103.756 88.9556 103.268 89.3778C102.78 89.7926 102.129 90 101.313 90Z" fill="black"/>
<path fill-rule="evenodd" clip-rule="evenodd" d="M5 85H25V86H5V85Z" fill="black"/>
<path fill-rule="evenodd" clip-rule="evenodd" d="M111 85H131V86H111V85Z" fill="black"/>
</svg>
